<svg width="16" height="16" viewBox="0 0 16 16" fill="none" xmlns="http://www.w3.org/2000/svg">
<path d="M7.98278 0.948853C3.96999 0.948853 0.727539 4.19729 0.727539 8.20408C0.727539 11.2793 2.63838 13.9067 5.33744 14.9637C5.27177 14.3904 5.21803 13.5067 5.36134 12.8797C5.49271 12.3124 6.20927 9.27296 6.20927 9.27296C6.20927 9.27296 5.99431 8.83703 5.99431 8.1981C5.99431 7.18895 6.5795 6.43654 7.30802 6.43654C7.92904 6.43654 8.22761 6.90231 8.22761 7.45765C8.22761 8.07869 7.83349 9.01021 7.62451 9.87606C7.45133 10.5986 7.98876 11.1898 8.69934 11.1898C9.98918 11.1898 10.9804 9.8283 10.9804 7.86968C10.9804 6.13201 9.73239 4.91983 7.94695 4.91983C5.88085 4.91983 4.66867 6.46641 4.66867 8.06673C4.66867 8.68777 4.90752 9.35654 5.2061 9.72082C5.26579 9.79247 5.27177 9.85814 5.25386 9.9298C5.20012 10.1567 5.07472 10.6523 5.05083 10.7539C5.02098 10.8852 4.94335 10.9151 4.806 10.8494C3.9103 10.4195 3.34898 9.09382 3.34898 8.0309C3.34898 5.74387 5.00902 3.64194 8.144 3.64194C10.658 3.64194 12.6166 5.43336 12.6166 7.83386C12.6166 10.3358 11.0401 12.3482 8.8546 12.3482C8.12013 12.3482 7.42743 11.966 7.19456 11.5122C7.19456 11.5122 6.83031 12.8976 6.74072 13.2379C6.5795 13.8709 6.13762 14.6591 5.83904 15.1428C6.51978 15.3518 7.23637 15.4653 7.98876 15.4653C11.9956 15.4653 15.244 12.2168 15.244 8.21004C15.238 4.19729 11.9896 0.948853 7.98278 0.948853Z" fill="white"/>
</svg>
