<svg width="17" height="14" viewBox="0 0 17 14" fill="none" xmlns="http://www.w3.org/2000/svg">
<path fill-rule="evenodd" clip-rule="evenodd" d="M16.5171 3.76488C16.5171 5.78246 16.5171 8.61321 16.5046 10.6308V10.633C16.5046 11.8926 15.5948 12.967 14.3541 13.1758C13.0031 13.3413 11.124 13.4912 8.74441 13.4912C6.36521 13.4912 4.48606 13.3413 3.13842 13.1891C1.88813 12.9811 0.97168 11.9003 0.97168 10.633C0.97168 8.61543 0.97168 5.78468 0.984263 3.7671C0.984263 3.76636 0.984263 3.76562 0.984263 3.76488C0.984263 2.50533 1.89404 1.43084 3.13472 1.22209C4.48569 1.05664 6.36485 0.906738 8.74441 0.906738C11.1236 0.906738 13.0028 1.05664 14.3504 1.20876C15.6007 1.41678 16.5171 2.49756 16.5171 3.76488ZM11.1554 7.51615L7.45414 9.73693C7.34013 9.80577 7.19764 9.80762 7.08141 9.74174C6.96556 9.67623 6.89376 9.55297 6.89376 9.41973V4.97817C6.89376 4.84492 6.96556 4.72167 7.08141 4.65615C7.19764 4.59027 7.34013 4.59212 7.45414 4.66096L11.1554 6.88174C11.2672 6.94837 11.3353 7.06903 11.3353 7.19895C11.3353 7.32886 11.2672 7.44953 11.1554 7.51615Z" fill="white"/>
</svg>
