<svg width="115" height="22" viewBox="0 0 115 22" fill="none" xmlns="http://www.w3.org/2000/svg">
<g clip-path="url(#clip0_1_12458)">
<path d="M9.39376 3.44633C8.05547 3.44633 7.66854 4.0399 7.66854 5.34907V7.52085H11.2382L10.8804 11.0295H7.66993V21.6776H3.386V11.0295H0.5V7.52085H3.386V5.4087C3.386 1.8695 4.81305 5.49521e-05 8.79465 5.49521e-05C9.62897 -0.00188661 10.4627 0.0476222 11.2909 0.148445V3.45049L9.39376 3.44633Z" fill="#F2F6FA"/>
<path d="M11.5352 14.1529C11.5352 10.1977 13.4088 7.21875 17.3349 7.21875C19.4762 7.21875 20.7839 8.31989 21.4094 9.68731V7.52108H25.513V21.6779H21.4094V19.5366C20.8145 20.9054 19.4762 21.976 17.3349 21.976C13.4088 21.976 11.5352 19.0013 11.5352 15.0419V14.1529ZM15.8177 15.1057C15.8177 17.2164 16.5902 18.6144 18.583 18.6144C20.3388 18.6144 21.2305 17.3357 21.2305 15.3137V13.8922C21.2305 11.8702 20.3388 10.5915 18.583 10.5915C16.5902 10.5915 15.8177 11.9895 15.8177 14.1002V15.1057Z" fill="#F2F6FA"/>
<path d="M34.4361 7.22266C36.1003 7.22266 37.6771 7.58046 38.5397 8.17402L37.5883 11.2084C36.6961 10.7835 35.7211 10.5599 34.7329 10.5538C32.4127 10.5538 31.4045 11.8921 31.4045 14.1832V15.0153C31.4045 17.3063 32.4155 18.6446 34.7329 18.6446C35.7211 18.6384 36.6961 18.415 37.5883 17.99L38.5397 21.023C37.6771 21.618 36.1017 21.9758 34.4361 21.9758C29.4088 21.9758 27.1191 19.2687 27.1191 14.9265V14.2719C27.1191 9.92975 29.4088 7.22266 34.4361 7.22266Z" fill="#F2F6FA"/>
<path d="M39.1035 15.1403V13.8922C39.1035 9.87727 41.3932 7.23535 46.064 7.23535C50.4658 7.23535 52.3991 9.91194 52.3991 13.8381V16.0986H43.3847C43.4748 18.0318 44.3374 18.8945 46.7131 18.8945C48.3204 18.8945 50.0151 18.5672 51.2647 18.0318L52.0482 20.965C50.9179 21.5613 48.5978 22.0065 46.5467 22.0065C41.1255 22.0051 39.1035 19.3008 39.1035 15.1403ZM43.3861 13.2958H48.5617V12.9394C48.5617 11.3931 47.9376 10.1657 46.0654 10.1657C44.1308 10.1671 43.3861 11.3875 43.3861 13.2903V13.2958Z" fill="#F2F6FA"/>
<path d="M68.2752 15.0456C68.2752 19.0009 66.3725 21.9798 62.4505 21.9798C60.3092 21.9798 58.8225 20.9091 58.2276 19.5403V21.6816H54.1836V0.411751L58.4661 0.0234375V9.48164C59.0902 8.23349 60.459 7.2211 62.4519 7.2211C66.378 7.2211 68.2766 10.1959 68.2766 14.1553L68.2752 15.0456ZM63.9927 14.0637C63.9927 12.0709 63.2202 10.5842 61.1677 10.5842C59.412 10.5842 58.4606 11.8323 58.4606 13.8557V15.3424C58.4606 17.3644 59.412 18.6139 61.1677 18.6139C63.2202 18.6139 63.9927 17.1272 63.9927 15.1344V14.0637Z" fill="#F2F6FA"/>
<path d="M69.707 14.9556V14.2428C69.707 10.1669 72.0272 7.22266 76.7563 7.22266C81.4854 7.22266 83.807 10.1669 83.807 14.2428V14.9556C83.807 19.0302 81.4868 21.9758 76.7577 21.9758C72.0286 21.9758 69.707 19.0302 69.707 14.9556ZM79.523 13.9446C79.523 12.071 78.7492 10.5843 76.7494 10.5843C74.7496 10.5843 73.9826 12.071 73.9826 13.9446V15.2538C73.9826 17.1274 74.7565 18.6141 76.7494 18.6141C78.7423 18.6141 79.523 17.1274 79.523 15.2538V13.9446Z" fill="#F2F6FA"/>
<path d="M85.2305 14.9556V14.2428C85.2305 10.1669 87.5506 7.22266 92.2797 7.22266C97.0088 7.22266 99.329 10.1669 99.329 14.2428V14.9556C99.329 19.0302 97.0088 21.9758 92.2797 21.9758C87.5506 21.9758 85.2305 19.0302 85.2305 14.9556ZM95.0465 13.9446C95.0465 12.071 94.2726 10.5843 92.2797 10.5843C90.2869 10.5843 89.5144 12.071 89.5144 13.9446V15.2538C89.5144 17.1274 90.2869 18.6141 92.2797 18.6141C94.2726 18.6141 95.0465 17.1274 95.0465 15.2538V13.9446Z" fill="#F2F6FA"/>
<path d="M105.218 14.2718L109.44 7.52066H113.991L109.56 14.5103L114.17 21.6774H109.619L105.218 14.7433V21.6774H100.934V0.411751L105.218 0.0234375V14.2718Z" fill="#F2F6FA"/>
</g>
<defs>
<clipPath id="clip0_1_12458">
<rect width="113.671" height="22" fill="white" transform="translate(0.5)"/>
</clipPath>
</defs>
</svg>
