<svg width="161" height="28" viewBox="0 0 161 28" fill="none" xmlns="http://www.w3.org/2000/svg">
<g clip-path="url(#clip0_1_12448)">
<path d="M122.71 22.222L128.855 5.92969H131.22L137.365 22.222H135.042L133.474 17.8039H126.622L125.027 22.222H122.703H122.71ZM127.329 15.8479H132.746L130.083 8.49595H129.993L127.329 15.8479ZM143.24 22.5826C141.798 22.5826 140.556 22.0139 139.509 20.8764C138.461 19.739 137.941 18.331 137.941 16.6456C137.941 14.9602 138.461 13.5522 139.509 12.4147C140.556 11.2772 141.798 10.7085 143.24 10.7085C144.093 10.7085 144.856 10.8888 145.529 11.2564C146.202 11.6171 146.708 12.0748 147.041 12.6228H147.131L147.041 11.0761V5.92969H149.136V22.222H147.131V20.6753H147.041C146.708 21.2232 146.202 21.6741 145.529 22.0417C144.856 22.4023 144.093 22.5896 143.24 22.5896V22.5826ZM143.58 20.6684C144.565 20.6684 145.404 20.3008 146.098 19.5794C146.791 18.8512 147.131 17.8732 147.131 16.6456C147.131 15.4179 146.784 14.44 146.098 13.7117C145.404 12.9834 144.565 12.6228 143.58 12.6228C142.595 12.6228 141.777 12.9904 141.076 13.7256C140.383 14.4608 140.029 15.4387 140.029 16.6525C140.029 17.8663 140.376 18.8442 141.076 19.5794C141.777 20.3146 142.609 20.6822 143.58 20.6822V20.6684ZM155.711 22.5826C154.469 22.5826 153.436 22.2775 152.624 21.6741C151.813 21.0637 151.216 20.3077 150.835 19.3991L152.701 18.6292C153.29 20.0233 154.303 20.7238 155.725 20.7238C156.377 20.7238 156.911 20.5782 157.327 20.2938C157.743 20.0025 157.951 19.628 157.951 19.1563C157.951 18.4281 157.445 17.9356 156.425 17.679L154.171 17.1311C153.457 16.9507 152.784 16.604 152.146 16.0976C151.508 15.5913 151.189 14.9047 151.189 14.0377C151.189 13.0528 151.626 12.2482 152.5 11.6379C153.373 11.0206 154.407 10.7154 155.607 10.7154C156.592 10.7154 157.473 10.9374 158.242 11.3882C159.019 11.8321 159.567 12.4771 159.907 13.3094L158.083 14.0585C157.674 13.0736 156.821 12.5812 155.537 12.5812C154.913 12.5812 154.393 12.7129 153.97 12.9696C153.547 13.2262 153.332 13.573 153.332 14.0169C153.332 14.655 153.824 15.085 154.809 15.3139L157.015 15.8341C158.062 16.0768 158.832 16.493 159.338 17.0825C159.838 17.6721 160.087 18.3448 160.087 19.087C160.087 20.0857 159.678 20.925 158.86 21.5908C158.041 22.2567 156.987 22.5896 155.697 22.5896L155.711 22.5826Z" fill="#F2F6FA"/>
<path d="M52.3453 22.5552C47.296 22.5552 42.9473 18.4006 42.9473 13.3513C42.9473 8.30203 47.1989 4.14746 52.3453 4.14746C55.1127 4.14746 57.1935 5.23639 58.6778 6.72066L56.8952 8.50317C55.8063 7.51135 54.322 6.72066 52.3453 6.72066C48.6832 6.72066 45.7147 9.6892 45.7147 13.4484C45.7147 17.2077 48.5861 20.1762 52.3453 20.1762C54.7174 20.1762 56.1046 19.1844 56.9993 18.2966C57.6929 17.603 58.1853 16.5141 58.3865 15.1269H52.3523V12.6508H60.8625C60.9597 13.1433 60.9597 13.6426 60.9597 14.2322C60.9597 16.1118 60.4672 18.4908 58.7818 20.1693C57.1033 21.6535 55.0226 22.5413 52.3523 22.5413L52.3453 22.5552ZM74.0129 16.6181C74.0129 20.0791 71.3426 22.5552 68.1729 22.5552C65.0032 22.5552 62.333 20.0791 62.333 16.6181C62.333 13.1571 65.0032 10.681 68.1729 10.681C71.3426 10.681 74.0129 13.2542 74.0129 16.6181ZM71.4397 16.6181C71.4397 14.4403 69.9554 13.0531 68.1729 13.0531C66.3904 13.0531 64.9061 14.5374 64.9061 16.6181C64.9061 18.6989 66.3904 20.1831 68.1729 20.1831C69.9554 20.2802 71.4397 18.796 71.4397 16.6181ZM87.1702 16.6181C87.1702 20.0791 84.4999 22.5552 81.3302 22.5552C78.1605 22.5552 75.4902 20.0791 75.4902 16.6181C75.4902 13.1571 78.1605 10.681 81.3302 10.681C84.4999 10.681 87.1702 13.2542 87.1702 16.6181ZM84.597 16.6181C84.597 14.4403 83.1127 13.0531 81.3302 13.0531C79.5477 13.0531 78.0634 14.5374 78.0634 16.6181C78.0634 18.6989 79.5477 20.1831 81.3302 20.1831C83.0156 20.2802 84.597 18.796 84.597 16.6181ZM99.9322 11.0764V21.7645C99.9322 26.1202 97.359 27.9998 94.2933 27.9998C91.4219 27.9998 89.6394 26.0231 89.0498 24.5388L91.3248 23.547C91.7201 24.5388 92.7119 25.6278 94.2933 25.6278C96.27 25.6278 97.4561 24.4417 97.4561 22.1668V21.279H97.359C96.7625 21.9726 95.6805 22.6662 94.1962 22.6662C91.2277 22.6662 88.5574 20.093 88.5574 16.7291C88.5574 13.3652 91.3248 10.792 94.1962 10.792C95.5834 10.792 96.7694 11.3885 97.359 12.0751H97.4561V11.0833H99.9322V11.0764ZM97.6572 16.7152C97.6572 14.6345 96.27 13.0531 94.4945 13.0531C92.7189 13.0531 91.2277 14.5374 91.2277 16.7152C91.2277 18.8931 92.7119 20.2802 94.4945 20.2802C96.277 20.2802 97.6572 18.6989 97.6572 16.7152ZM104.482 4.74394V22.1598H101.909V4.75088H104.482V4.74394ZM114.768 18.5948L116.745 19.982C116.051 20.9738 114.567 22.6523 111.799 22.6523C108.436 22.6523 105.959 20.0791 105.959 16.7152C105.959 13.1502 108.436 10.7781 111.501 10.7781C114.567 10.7781 116.051 13.2542 116.55 14.5374L116.849 15.2309L108.935 18.4977C109.531 19.6838 110.516 20.2802 111.806 20.2802C113.096 20.2802 114.081 19.5866 114.775 18.6018L114.768 18.5948ZM108.533 16.417L113.873 14.2391C113.575 13.5455 112.687 12.956 111.695 12.956C110.308 12.956 108.429 14.142 108.533 16.417Z" fill="#F2F6FA"/>
<path opacity="0.4" d="M1.15884 18.6504L10.6887 2.34424C11.9025 3.05863 17.9991 6.43639 18.984 7.07448L9.45411 23.3807C8.41373 24.7539 -0.15897 20.7381 1.15884 18.6504Z" fill="#F2F6FA"/>
<path d="M28.5492 18.6502L19.0263 2.34404C17.6946 0.124568 14.8232 -0.67999 12.4719 0.630884C10.1137 1.94176 9.39934 4.75771 10.731 7.07428L20.2609 23.3874C21.5926 25.5999 24.464 26.4045 26.8152 25.1005C29.0694 23.7897 29.8878 20.8697 28.5561 18.6571L28.5492 18.6502Z" fill="#F2F6FA"/>
<path d="M5.2788 16.396C7.92135 16.396 10.0576 18.4837 10.0576 21.0569C10.0576 23.6301 7.91442 25.7178 5.2788 25.7178C2.64318 25.7178 0.5 23.637 0.5 21.0638C0.5 18.4906 2.64318 16.4029 5.2788 16.4029V16.396Z" fill="#F2F6FA"/>
</g>
<defs>
<clipPath id="clip0_1_12448">
<rect width="159.601" height="28" fill="white" transform="translate(0.5)"/>
</clipPath>
</defs>
</svg>
