<svg width="97" height="28" viewBox="0 0 97 28" fill="none" xmlns="http://www.w3.org/2000/svg">
<path d="M10.869 4.49268V12.1475H3.83652V4.49268H0.5V22.7658H3.83742V15.3594H10.8681V22.7658H14.2065V4.49268H10.869ZM24.8889 16.8596C24.8889 17.5921 24.5979 18.2945 24.08 18.8124C23.5621 19.3303 22.8597 19.6213 22.1273 19.6213C21.3949 19.6213 20.6924 19.3303 20.1745 18.8124C19.6566 18.2945 19.3657 17.5921 19.3657 16.8596V9.03229H16.1999V16.8596C16.1999 18.4301 16.8237 19.9363 17.9343 21.0468C19.0448 22.1573 20.5509 22.7812 22.1214 22.7812C23.6919 22.7812 25.1981 22.1573 26.3086 21.0468C27.4191 19.9363 28.043 18.4301 28.043 16.8596V9.03229H24.8889V16.8596ZM48.3466 9.83887C48.3466 8.23384 49.4079 7.72532 50.5703 7.72532C51.5079 7.72532 52.7453 8.43887 53.5555 9.30416L55.6284 6.86003C54.5933 5.46003 52.4942 4.49268 50.7754 4.49268C47.3404 4.49268 44.8565 6.50416 44.8565 9.83887C44.8565 16.026 52.4183 14.0624 52.4183 17.5253C52.4183 18.5929 51.3814 19.5359 50.1946 19.5359C48.3222 19.5359 47.7152 18.6209 46.8554 17.6527L44.5539 20.0453C46.0262 21.8518 47.8417 22.7695 50.0157 22.7695C53.2791 22.7695 55.9039 20.7336 55.9039 17.5506C55.9039 10.6825 48.3412 12.8168 48.3412 9.83887M95.1283 19.8466C93.2577 19.8466 92.7257 19.0373 92.7257 17.7981V12.311H95.6341V9.53087H92.7257V5.86287L89.5156 7.30351V18.48C89.5156 21.3387 91.4883 22.7794 94.1925 22.7794C94.617 22.7866 95.0415 22.7523 95.4588 22.6782L96.2419 19.7951C95.8888 19.8195 95.4832 19.8439 95.1283 19.8439M36.9397 9.12351C35.3717 9.12351 34.277 9.57874 33.2184 10.6165V4.60197H30.0481V15.7505C30.0481 19.9234 33.0649 22.783 36.4556 22.783C40.2166 22.783 43.5252 19.8728 43.5252 15.9546C43.5252 12.0852 40.4804 9.12622 36.9397 9.12622M36.9199 19.5919C36.4474 19.5919 35.9795 19.4988 35.543 19.318C35.1064 19.1372 34.7098 18.8722 34.3757 18.5381C34.0416 18.204 33.7766 17.8073 33.5958 17.3708C33.4149 16.9343 33.3219 16.4664 33.3219 15.9939C33.3219 15.5214 33.4149 15.0535 33.5958 14.617C33.7766 14.1805 34.0416 13.7838 34.3757 13.4497C34.7098 13.1156 35.1064 12.8506 35.543 12.6698C35.9795 12.489 36.4474 12.3959 36.9199 12.3959C37.8741 12.3959 38.7893 12.775 39.464 13.4497C40.1388 14.1245 40.5179 15.0397 40.5179 15.9939C40.5179 16.9482 40.1388 17.8633 39.464 18.5381C38.7893 19.2128 37.8741 19.5919 36.9199 19.5919ZM71.3707 15.7884C71.3707 11.863 68.0694 8.96003 64.3012 8.96003C60.9114 8.96003 57.8937 11.8187 57.8937 15.9925V27.1474H61.064V21.1247C62.1208 22.1607 63.2173 22.6177 64.7835 22.6177C68.3241 22.6177 71.3707 19.6587 71.3707 15.7884ZM68.3684 15.7487C68.3684 16.7029 67.9893 17.6181 67.3146 18.2928C66.6398 18.9676 65.7246 19.3467 64.7704 19.3467C63.8161 19.3467 62.901 18.9676 62.2262 18.2928C61.5515 17.6181 61.1724 16.7029 61.1724 15.7487C61.1724 14.7944 61.5515 13.8793 62.2262 13.2045C62.901 12.5297 63.8161 12.1507 64.7704 12.1507C65.7246 12.1507 66.6398 12.5297 67.3146 13.2045C67.9893 13.8793 68.3684 14.7944 68.3684 15.7487Z" fill="#F2F6FA"/>
<path d="M81.616 8.8063V5.62063C82.0369 5.42388 82.3934 5.11161 82.6438 4.72016C82.8942 4.32872 83.0283 3.87421 83.0304 3.40953V3.33637C83.0304 1.98153 81.9321 0.883207 80.5773 0.883207H80.5041C79.8535 0.883207 79.2295 1.14166 78.7694 1.60172C78.3094 2.06178 78.0509 2.68575 78.0509 3.33637V3.40953C78.0531 3.87421 78.1872 4.32872 78.4376 4.72016C78.688 5.11161 79.0444 5.42388 79.4654 5.62063V8.8063C78.2555 8.99156 77.116 9.49323 76.1623 10.2605L67.4254 3.45559C67.4877 3.23069 67.5202 2.99946 67.5238 2.76734C67.5249 2.22062 67.3638 1.68586 67.0609 1.23071C66.758 0.775565 66.327 0.420468 65.8222 0.21034C65.3175 0.000212729 64.7618 -0.0555053 64.2254 0.0502339C63.689 0.155973 63.196 0.418419 62.8088 0.804375C62.4216 1.19033 62.1575 1.68246 62.05 2.21851C61.9425 2.75455 61.9965 3.31044 62.2049 3.81585C62.4134 4.32126 62.7671 4.75348 63.2212 5.05786C63.6754 5.36223 64.2096 5.52507 64.7563 5.52579C65.2347 5.52354 65.704 5.39584 66.1175 5.15547L74.7207 11.8502C73.9479 13.0177 73.5447 14.3911 73.5637 15.7911C73.5827 17.1912 74.023 18.5531 74.8273 19.6992L72.2107 22.3168C71.9992 22.2491 71.7788 22.2132 71.5567 22.2102C71.108 22.2105 70.6694 22.3439 70.2964 22.5935C69.9234 22.843 69.6327 23.1975 69.4612 23.6122C69.2896 24.0269 69.2448 24.4831 69.3324 24.9232C69.4201 25.3634 69.6362 25.7676 69.9535 26.085C70.2709 26.4023 70.6751 26.6184 71.1153 26.7061C71.5554 26.7937 72.0116 26.7489 72.4263 26.5774C72.841 26.4058 73.1955 26.1151 73.4451 25.7421C73.6946 25.3692 73.828 24.9306 73.8283 24.4818C73.8254 24.2597 73.7895 24.0393 73.7218 23.8279L76.3104 21.2383C77.1546 21.8882 78.1362 22.3362 79.1803 22.5481C80.2243 22.76 81.303 22.73 82.3337 22.4606C83.3644 22.1912 84.3197 21.6895 85.1266 20.9938C85.9334 20.2981 86.5703 19.427 86.9884 18.4472C87.4066 17.4674 87.5949 16.4048 87.539 15.341C87.4831 14.2771 87.1844 13.2402 86.6658 12.3096C86.1472 11.379 85.4225 10.5795 84.5472 9.97224C83.6719 9.365 82.6692 8.96617 81.616 8.8063ZM80.5429 19.2837C80.0645 19.2969 79.5883 19.214 79.1425 19.04C78.6966 18.866 78.2902 18.6045 77.9471 18.2707C77.6041 17.937 77.3314 17.5379 77.1453 17.097C76.9591 16.6561 76.8631 16.1824 76.8631 15.7038C76.8631 15.2252 76.9591 14.7515 77.1453 14.3106C77.3314 13.8697 77.6041 13.4706 77.9471 13.1368C78.2902 12.8031 78.6966 12.5415 79.1425 12.3675C79.5883 12.1935 80.0645 12.1107 80.5429 12.1239C81.4702 12.1563 82.3486 12.5474 82.9933 13.2147C83.6379 13.8819 83.9984 14.7733 83.9989 15.7011C83.9994 16.6289 83.6397 17.5207 82.9958 18.1886C82.3518 18.8566 81.4737 19.2485 80.5465 19.2819" fill="#F2F6FA" fill-opacity="0.5"/>
</svg>
