<svg width="100" height="27" viewBox="0 0 100 27" fill="none" xmlns="http://www.w3.org/2000/svg">
<path d="M73 2.48983C73 1.4535 73.8614 0.612875 74.9241 0.612875H97.1128C98.1754 0.612875 99.0369 1.4535 99.0369 2.48983V24.938C99.0369 25.9747 98.1754 26.8149 97.1128 26.8149H74.9241C73.8614 26.8149 73 25.9747 73 24.938V2.48983Z" fill="#F2F6FA"/>
<path fill-rule="evenodd" clip-rule="evenodd" d="M0.113281 22.5605H10.9792V18.9933H4.04553V5.38298H0.113281V22.5605Z" fill="#F2F6FA"/>
<path fill-rule="evenodd" clip-rule="evenodd" d="M16.4796 22.5605V10.7292H12.547V22.5605H16.4796ZM14.5133 9.11378C15.8847 9.11378 16.7382 8.20524 16.7382 7.06912C16.7127 5.9085 15.8847 5.02552 14.5394 5.02552C13.194 5.02552 12.3145 5.9085 12.3145 7.06912C12.3145 8.20524 13.1679 9.11378 14.4876 9.11378H14.5133Z" fill="#F2F6FA"/>
<path fill-rule="evenodd" clip-rule="evenodd" d="M18.3066 22.5605H22.2393V15.9532C22.2393 15.5996 22.2648 15.2463 22.3689 14.9936C22.653 14.2874 23.3 13.5557 24.3864 13.5557C25.8096 13.5557 26.3789 14.641 26.3789 16.2305V22.5605H30.3112V15.7764C30.3112 12.1423 28.3708 10.4512 25.7835 10.4512C23.6621 10.4512 22.7306 11.637 22.2131 12.4447H22.2393V10.7292H18.3067C18.3584 11.8394 18.3066 22.5605 18.3066 22.5605Z" fill="#F2F6FA"/>
<path fill-rule="evenodd" clip-rule="evenodd" d="M35.8586 5.38298H31.9258V22.5605H35.8586V18.7247L36.8414 17.4874L39.9202 22.5605H44.7581L39.584 15.2162L44.1115 10.2194H39.3771C39.3771 10.2194 36.1432 14.69 35.8586 15.2201V5.38298Z" fill="#F2F6FA"/>
<path fill-rule="evenodd" clip-rule="evenodd" d="M55.2761 17.6252C55.3277 17.3213 55.4055 16.7384 55.4055 16.0795C55.4055 13.0209 53.8529 9.91611 49.7654 9.91611C45.3929 9.91611 43.375 13.3742 43.375 16.5105C43.375 20.3897 45.8328 22.8125 50.1275 22.8125C51.8351 22.8125 53.413 22.5604 54.7068 22.0303L54.1892 19.4332C53.1286 19.7851 52.042 19.9608 50.6968 19.9608C48.8599 19.9608 47.256 19.207 47.1264 17.6L55.2761 17.6245V17.6252ZM47.1008 14.9647C47.2042 13.955 47.8769 12.4656 49.5585 12.4656C51.3433 12.4656 51.7575 14.0562 51.7575 14.9647H47.1008Z" fill="#F2F6FA"/>
<path fill-rule="evenodd" clip-rule="evenodd" d="M65.1101 5.38317V11.3295H65.0585C64.4892 10.4973 63.2988 9.94199 61.7211 9.94199C58.6939 9.94199 56.0292 12.3648 56.0549 16.5034C56.0549 20.34 58.4611 22.8384 61.4621 22.8384C63.092 22.8384 64.6442 22.1315 65.4204 20.7685H65.4982L65.6534 22.5607H69.1463C69.0945 21.7278 69.0424 20.2892 69.0424 18.8762V5.38317H65.1101ZM65.1101 17.0843C65.1101 17.3868 65.0842 17.69 65.0323 17.9421C64.7998 19.0274 63.8681 19.7843 62.7301 19.7843C61.1001 19.7843 60.0393 18.4721 60.0393 16.4026C60.0393 14.4595 60.945 12.8948 62.7557 12.8948C63.9715 12.8948 64.8255 13.7274 65.0585 14.762C65.1101 14.9896 65.1101 15.242 65.1101 15.4689V17.0843Z" fill="#F2F6FA"/>
<path fill-rule="evenodd" clip-rule="evenodd" d="M80.8917 22.5469V10.7152H76.959V22.5469H80.8917ZM78.9253 9.09976C80.2967 9.09976 81.1503 8.19122 81.1503 7.0558C81.1247 5.89483 80.2967 5.0115 78.9514 5.0115C77.6061 5.0115 76.7266 5.89483 76.7266 7.0558C76.7266 8.19122 77.58 9.09976 78.8997 9.09976H78.9253Z" fill="#22143A"/>
<path fill-rule="evenodd" clip-rule="evenodd" d="M83.0664 22.5469H86.999V15.9396C86.999 15.5859 87.0246 15.2327 87.1284 14.9799C87.4127 14.2734 88.0598 13.5416 89.1462 13.5416C90.5692 13.5416 91.1385 14.6266 91.1385 16.2172V22.5469H95.0707V15.7627C95.0707 12.1286 93.1306 10.4375 90.5432 10.4375C88.4217 10.4375 87.4903 11.6234 86.9728 12.4311H86.9991V10.7152H83.0665C83.1181 11.8254 83.0664 22.5469 83.0664 22.5469Z" fill="#22143A"/>
</svg>
