<svg width="20" height="20" viewBox="0 0 20 20" fill="none" xmlns="http://www.w3.org/2000/svg">
<path d="M6.66699 10.7183H5.91699V10.7183L6.66699 10.7183ZM6.66699 11.232H7.41699V11.232L6.66699 11.232ZM5.48363 12.7747L5.27271 12.055H5.27271L5.48363 12.7747ZM3.81697 13.2632L3.60604 12.5434H3.60604L3.81697 13.2632ZM1.66699 11.7205L2.41699 11.7205L1.66699 11.7205ZM1.66699 10.118L2.41699 10.118L1.66699 10.118ZM2.03435 8.99092L1.45683 8.51241H1.45683L2.03435 8.99092ZM10.0003 5.8335V6.5835V5.8335ZM17.8089 8.21351L18.3085 7.6541V7.6541L17.8089 8.21351ZM13.3337 11.0418H12.5837H13.3337ZM14.7506 12.6356L14.6419 13.3776L14.7506 12.6356ZM16.4173 12.8798L16.5261 12.1377L16.4173 12.8798ZM18.3337 11.2859H17.5837V11.2859L18.3337 11.2859ZM18.3337 9.51539H19.0837V9.51539L18.3337 9.51539ZM10.0003 9.49707V8.74707V9.49707ZM5.91699 10.7183L5.91699 11.232L7.41699 11.232L7.41699 10.7183L5.91699 10.7183ZM5.27271 12.055L3.60604 12.5434L4.02789 13.9829L5.69456 13.4945L5.27271 12.055ZM2.41699 11.7205L2.41699 10.118L0.916992 10.118L0.916992 11.7205L2.41699 11.7205ZM2.61186 9.46944C3.32874 8.60424 5.4716 6.5835 10.0003 6.5835V5.0835C4.94806 5.0835 2.40569 7.36723 1.45683 8.51241L2.61186 9.46944ZM10.0003 6.5835C14.3298 6.5835 16.4935 8.04435 17.3094 8.77291L18.3085 7.6541C17.2231 6.68484 14.7055 5.0835 10.0003 5.0835V6.5835ZM12.5837 10.7183V11.0418H14.0837V10.7183H12.5837ZM14.6419 13.3776L16.3086 13.6219L16.5261 12.1377L14.8594 11.8935L14.6419 13.3776ZM19.0837 11.2859V9.51539H17.5837V11.2859H19.0837ZM13.3337 10.7183C14.0837 10.7183 14.0837 10.7173 14.0837 10.7162C14.0837 10.7159 14.0836 10.7149 14.0836 10.7142C14.0836 10.7128 14.0836 10.7114 14.0836 10.71C14.0836 10.7071 14.0835 10.7042 14.0835 10.7011C14.0833 10.695 14.0831 10.6886 14.0828 10.6818C14.0822 10.6681 14.0813 10.653 14.0798 10.6366C14.0768 10.6037 14.0717 10.5653 14.0633 10.5223C14.0465 10.436 14.0165 10.3317 13.9642 10.2169C13.8575 9.98213 13.6694 9.7292 13.3603 9.50268C12.7577 9.06114 11.7364 8.74707 10.0003 8.74707V10.2471C11.5976 10.2471 12.243 10.5436 12.4737 10.7126C12.5293 10.7534 12.5609 10.7866 12.5776 10.807C12.5861 10.8174 12.5915 10.8254 12.5946 10.8304C12.5962 10.8329 12.5973 10.8349 12.5979 10.8361C12.5986 10.8374 12.5989 10.838 12.5989 10.838C12.5989 10.838 12.5986 10.8374 12.5982 10.8362C12.5977 10.835 12.5971 10.8333 12.5963 10.8309C12.5948 10.8261 12.5929 10.819 12.591 10.8093C12.5891 10.7997 12.5873 10.7875 12.5859 10.7725C12.5852 10.765 12.5847 10.7568 12.5843 10.7477C12.5841 10.7432 12.5839 10.7385 12.5838 10.7336C12.5838 10.7312 12.5837 10.7287 12.5837 10.7261C12.5837 10.7248 12.5837 10.7235 12.5837 10.7222C12.5837 10.7216 12.5837 10.7206 12.5837 10.7202C12.5837 10.7193 12.5837 10.7183 13.3337 10.7183ZM10.0003 8.74707C8.26422 8.74707 7.24299 9.06114 6.64038 9.50268C6.33122 9.72921 6.14319 9.98214 6.0364 10.2169C5.98417 10.3317 5.95419 10.436 5.93736 10.5223C5.92897 10.5653 5.92388 10.6037 5.92089 10.6366C5.91939 10.653 5.91842 10.6681 5.91782 10.6818C5.91752 10.6886 5.91731 10.695 5.91718 10.7011C5.91711 10.7042 5.91707 10.7071 5.91704 10.71C5.91702 10.7114 5.91701 10.7128 5.917 10.7142C5.917 10.7149 5.917 10.7159 5.91699 10.7162C5.91699 10.7173 5.91699 10.7183 6.66699 10.7183C7.41699 10.7183 7.41699 10.7193 7.41699 10.7202C7.41699 10.7206 7.41698 10.7216 7.41698 10.7222C7.41697 10.7235 7.41696 10.7248 7.41695 10.7261C7.41692 10.7287 7.41688 10.7312 7.41683 10.7336C7.41672 10.7385 7.41657 10.7432 7.41637 10.7477C7.41597 10.7568 7.4154 10.765 7.41472 10.7725C7.41335 10.7875 7.41152 10.7997 7.40964 10.8093C7.40776 10.819 7.40584 10.8261 7.40432 10.8309C7.40357 10.8333 7.40293 10.835 7.40247 10.8362C7.40201 10.8374 7.40175 10.838 7.40175 10.838C7.40175 10.838 7.40205 10.8374 7.40272 10.8361C7.40339 10.8349 7.40446 10.8329 7.40604 10.8304C7.40916 10.8254 7.41452 10.8174 7.42304 10.807C7.43977 10.7866 7.47131 10.7534 7.52694 10.7126C7.75766 10.5436 8.4031 10.2471 10.0003 10.2471V8.74707ZM16.3086 13.6219C17.7409 13.8318 19.0837 12.7585 19.0837 11.2859L17.5837 11.2859C17.5837 11.7863 17.1106 12.2234 16.5261 12.1377L16.3086 13.6219ZM17.3094 8.77291C17.4776 8.92314 17.5837 9.17277 17.5837 9.51539L19.0837 9.51539C19.0837 8.87974 18.8834 8.16751 18.3085 7.6541L17.3094 8.77291ZM2.41699 10.118C2.41699 9.83218 2.48966 9.61693 2.61186 9.46944L1.45683 8.51241C1.05216 9.00081 0.916992 9.589 0.916992 10.118L2.41699 10.118ZM12.5837 11.0418C12.5837 12.2295 13.4775 13.207 14.6419 13.3776L14.8594 11.8935C14.3943 11.8253 14.0837 11.4481 14.0837 11.0418L12.5837 11.0418ZM3.60604 12.5434C2.98296 12.726 2.41699 12.2678 2.41699 11.7205L0.916992 11.7205C0.916993 13.3364 2.51038 14.4276 4.02789 13.9829L3.60604 12.5434ZM5.91699 11.232C5.91699 11.595 5.6698 11.9386 5.27271 12.055L5.69456 13.4945C6.703 13.1989 7.41699 12.2894 7.41699 11.232L5.91699 11.232Z" fill="#F2F6FA"/>
</svg>
