<svg width="70" height="70" viewBox="0 0 70 70" fill="none" xmlns="http://www.w3.org/2000/svg">
<rect x="1.5" y="1.5" width="67" height="67" rx="33.5" fill="url(#paint0_linear_2087_8927)"/>
<rect x="1.5" y="1.5" width="67" height="67" rx="33.5" stroke="url(#paint1_linear_2087_8927)" stroke-width="3"/>
<path d="M43.4375 23.1934H25.5625C23.3224 23.1934 21.5 25.0158 21.5 27.2559V38.9863C21.5 41.2264 23.3224 43.0488 25.5625 43.0488H32.5703C33.1312 43.0488 33.5859 42.5941 33.5859 42.0332C33.5859 41.4723 33.1312 41.0176 32.5703 41.0176H25.5625C24.4425 41.0176 23.5312 40.1064 23.5312 38.9863V27.4711L32.3547 32.9577C33.0165 33.3692 33.7581 33.5749 34.5 33.5749C35.2417 33.5749 35.9837 33.3691 36.6453 32.9578L45.4688 27.4711V33.6035C45.4688 34.1644 45.9234 34.6191 46.4844 34.6191C47.0453 34.6191 47.5 34.1644 47.5 33.6035V27.2559C47.5 25.0158 45.6776 23.1934 43.4375 23.1934ZM35.5727 31.2327C34.911 31.6442 34.089 31.6442 33.4274 31.2327L24.3792 25.6064C24.7127 25.3665 25.1213 25.2246 25.5625 25.2246H43.4375C43.8788 25.2246 44.2873 25.3665 44.6208 25.6064L35.5727 31.2327ZM46.8337 41.7989C46.7221 41.7532 46.0337 41.4395 46.0337 40.6468V39.1224C46.0337 36.9783 44.5305 35.159 42.5234 34.6777V34.0098C42.5234 33.4488 42.0687 32.9941 41.5078 32.9941C40.9469 32.9941 40.4922 33.4488 40.4922 34.0098V34.666C38.4598 35.1286 36.9312 36.9603 36.9312 39.1224V40.6469C36.9312 41.4396 36.2427 41.7533 36.1311 41.7989C35.7169 41.937 35.4648 42.3154 35.4648 42.7528C35.4648 43.4009 35.6954 44.1084 36.0815 44.6453C36.6129 45.3842 37.4056 45.7911 38.3136 45.7911H40.4922C40.4922 46.351 40.9478 46.8067 41.5078 46.8067C42.0678 46.8067 42.5234 46.351 42.5234 45.7911H44.6512C45.5592 45.7911 46.3519 45.3842 46.8834 44.6453C47.2695 44.1084 47.5 43.4009 47.5 42.7527C47.5 42.3154 47.248 41.9369 46.8337 41.7989ZM44.6512 43.7598H38.3136C37.9359 43.7598 37.732 43.5195 37.6223 43.2737C38.2946 42.7792 38.9624 41.9227 38.9624 40.6468V39.1224C38.9624 37.7415 40.0842 36.603 41.4632 36.5845C41.4696 36.5845 41.476 36.5843 41.4824 36.5841C41.4888 36.5843 41.4953 36.5845 41.5017 36.5845C42.8806 36.603 44.0024 37.7415 44.0024 39.1224V40.6468C44.0024 41.9227 44.6702 42.7792 45.3426 43.2737C45.2329 43.5195 45.029 43.7598 44.6512 43.7598Z" fill="#F2F6FA"/>
<defs>
<linearGradient id="paint0_linear_2087_8927" x1="0" y1="0" x2="70" y2="70" gradientUnits="userSpaceOnUse">
<stop stop-color="#F8E42E" stop-opacity="0.15"/>
<stop offset="1" stop-color="#FF7D54" stop-opacity="0.15"/>
</linearGradient>
<linearGradient id="paint1_linear_2087_8927" x1="71.7714" y1="33.0278" x2="-1.77138" y2="36.9722" gradientUnits="userSpaceOnUse">
<stop stop-color="#F8E42E"/>
<stop offset="1" stop-color="#FF7D54"/>
</linearGradient>
</defs>
</svg>
