<svg width="70" height="70" viewBox="0 0 70 70" fill="none" xmlns="http://www.w3.org/2000/svg">
<rect x="1.5" y="1.5" width="67" height="67" rx="33.5" fill="url(#paint0_linear_2087_8934)"/>
<rect x="1.5" y="1.5" width="67" height="67" rx="33.5" stroke="url(#paint1_linear_2087_8934)" stroke-width="3"/>
<g clip-path="url(#clip0_2087_8934)">
<path d="M33.929 48.0001C33.5741 47.9988 33.2237 47.9204 32.902 47.7704C32.3766 47.5364 31.9546 47.1188 31.7153 46.5958C31.4759 46.0728 31.4357 45.4805 31.602 44.9299L33.2931 39.3334H29.3086C28.801 39.334 28.3002 39.2157 27.8465 38.9879C27.3929 38.7602 26.9988 38.4293 26.6961 38.0218C26.3933 37.6144 26.1902 37.1416 26.103 36.6415C26.0158 36.1414 26.047 35.6279 26.194 35.142L29.47 24.3086C29.6697 23.6386 30.0813 23.0513 30.6431 22.6351C31.2049 22.2188 31.8865 21.996 32.5857 22.0001H36.5864C37.0412 22.0004 37.4891 22.1109 37.8918 22.322C38.2946 22.5332 38.6402 22.8387 38.8992 23.2124C39.1582 23.5862 39.3229 24.0171 39.3791 24.4683C39.4354 24.9196 39.3815 25.3777 39.2222 25.8036L37.3989 30.6667H40.169C40.7595 30.6667 41.3388 30.8275 41.8448 31.1319C42.3507 31.4363 42.7642 31.8728 43.0408 32.3945C43.3173 32.9162 43.4465 33.5034 43.4145 34.093C43.3825 34.6826 43.1904 35.2524 42.8589 35.7411L35.9256 46.8994C35.7113 47.2351 35.4162 47.5117 35.0675 47.7039C34.7187 47.8962 34.3273 47.998 33.929 48.0001ZM32.5857 24.1667C32.353 24.1665 32.1265 24.2412 31.9396 24.3797C31.7527 24.5182 31.6153 24.7132 31.5479 24.9359L28.2719 35.7692C28.2228 35.9311 28.2123 36.1022 28.2413 36.2688C28.2702 36.4355 28.3378 36.593 28.4386 36.7288C28.5394 36.8647 28.6705 36.975 28.8216 37.0511C28.9727 37.1271 29.1395 37.1667 29.3086 37.1667H34.7524C34.9215 37.1667 35.0883 37.2063 35.2394 37.2824C35.3904 37.3584 35.5216 37.4688 35.6224 37.6046C35.7232 37.7404 35.7907 37.898 35.8197 38.0646C35.8486 38.2313 35.8382 38.4024 35.7891 38.5642L33.6799 45.5431C33.6701 45.5687 33.6658 45.5962 33.6672 45.6236C33.6686 45.651 33.6757 45.6779 33.688 45.7024C33.7003 45.727 33.7176 45.7487 33.7388 45.7662C33.76 45.7837 33.7845 45.7966 33.8109 45.8041C33.8349 45.8195 33.8618 45.8297 33.8899 45.834C33.918 45.8383 33.9467 45.8367 33.9742 45.8292C34.0016 45.8218 34.0272 45.8087 34.0493 45.7907C34.0714 45.7728 34.0895 45.7504 34.1024 45.7251L41.0357 34.5667C41.1569 34.4023 41.2292 34.2069 41.2442 34.0031C41.2591 33.7994 41.2161 33.5955 41.1202 33.4151C41.0313 33.2394 40.8952 33.0919 40.7272 32.9892C40.5592 32.8864 40.3659 32.8325 40.169 32.8334H35.8357C35.6606 32.8335 35.4881 32.7912 35.3329 32.71C35.1778 32.6289 35.0446 32.5113 34.9448 32.3675C34.845 32.2236 34.7816 32.0577 34.76 31.8839C34.7383 31.7102 34.7592 31.5338 34.8206 31.3698L37.1931 25.0431C37.2296 24.945 37.2418 24.8396 37.2288 24.7358C37.2157 24.632 37.1778 24.5328 37.1183 24.4468C37.0587 24.3607 36.9793 24.2903 36.8867 24.2416C36.7941 24.1928 36.6911 24.1671 36.5864 24.1667H32.5857Z" fill="#F2F6FA"/>
</g>
<defs>
<linearGradient id="paint0_linear_2087_8934" x1="0" y1="0" x2="70" y2="70" gradientUnits="userSpaceOnUse">
<stop stop-color="#3245FF" stop-opacity="0.25"/>
<stop offset="1" stop-color="#3245FF" stop-opacity="0"/>
</linearGradient>
<linearGradient id="paint1_linear_2087_8934" x1="-0.716342" y1="49.4943" x2="71.6407" y2="46.9666" gradientUnits="userSpaceOnUse">
<stop stop-color="#3245FF"/>
<stop offset="1" stop-color="#B845ED"/>
</linearGradient>
<clipPath id="clip0_2087_8934">
<rect width="26" height="26" fill="white" transform="translate(21.75 22)"/>
</clipPath>
</defs>
</svg>
