<svg width="70" height="70" viewBox="0 0 70 70" fill="none" xmlns="http://www.w3.org/2000/svg">
<rect x="1.5" y="1.5" width="67" height="67" rx="33.5" fill="url(#paint0_linear_2087_8920)"/>
<rect x="1.5" y="1.5" width="67" height="67" rx="33.5" stroke="url(#paint1_linear_2087_8920)" stroke-width="3"/>
<g clip-path="url(#clip0_2087_8920)">
<path d="M36.4167 49H34.5862C34.4039 49 34.2241 48.9574 34.0613 48.8754C33.8985 48.7935 33.7572 48.6745 33.6486 48.5281C33.5401 48.3817 33.4673 48.2118 33.4363 48.0322C33.4052 47.8526 33.4166 47.6682 33.4697 47.4938C33.8037 46.4697 34.0098 45.4081 34.0833 44.3333C34.0833 43.7145 33.8375 43.121 33.3999 42.6834C32.9623 42.2458 32.3688 42 31.75 42C31.1312 42 30.5377 42.2458 30.1001 42.6834C29.6625 43.121 29.4167 43.7145 29.4167 44.3333C29.4902 45.4081 29.6963 46.4697 30.0303 47.4938C30.0834 47.6682 30.0948 47.8526 30.0637 48.0322C30.0327 48.2118 29.9599 48.3817 29.8514 48.5281C29.7428 48.6745 29.6015 48.7935 29.4387 48.8754C29.2759 48.9574 29.0961 49 28.9138 49H27.0833C25.5368 48.9981 24.0542 48.383 22.9606 47.2894C21.867 46.1959 21.2519 44.7132 21.25 43.1667V33.8333C21.2519 32.2868 21.867 30.8042 22.9606 29.7106C24.0542 28.617 25.5368 28.0019 27.0833 28H27.4007C27.2159 27.235 27.1096 26.4532 27.0833 25.6667C27.0833 24.429 27.575 23.242 28.4502 22.3668C29.3253 21.4917 30.5123 21 31.75 21C32.9877 21 34.1747 21.4917 35.0498 22.3668C35.925 23.242 36.4167 24.429 36.4167 25.6667C36.3904 26.4532 36.2841 27.235 36.0993 28H36.4167C37.9184 28.0002 39.3624 28.5788 40.4487 29.6158C41.535 30.6528 42.1801 32.0684 42.25 33.5685C43.0151 33.384 43.7968 33.2773 44.5833 33.25C45.821 33.25 47.008 33.7417 47.8832 34.6168C48.7583 35.492 49.25 36.679 49.25 37.9167C49.25 39.1543 48.7583 40.3413 47.8832 41.2165C47.008 42.0917 45.821 42.5833 44.5833 42.5833C43.7969 42.5564 43.0151 42.45 42.25 42.266V43.1667C42.2481 44.7132 41.633 46.1959 40.5394 47.2894C39.4459 48.383 37.9632 48.9981 36.4167 49ZM36.0993 46.6667H36.4167C37.3449 46.6667 38.2352 46.2979 38.8915 45.6415C39.5479 44.9852 39.9167 44.0949 39.9167 43.1667V40.7528C39.9166 40.5706 39.9593 40.3908 40.0412 40.228C40.1232 40.0652 40.2421 39.9238 40.3886 39.8153C40.535 39.7067 40.7048 39.634 40.8844 39.6029C41.0641 39.5718 41.2484 39.5833 41.4228 39.6363C42.4471 39.9701 43.5086 40.1762 44.5833 40.25C45.2022 40.25 45.7957 40.0042 46.2332 39.5666C46.6708 39.129 46.9167 38.5355 46.9167 37.9167C46.9167 37.2978 46.6708 36.7043 46.2332 36.2668C45.7957 35.8292 45.2022 35.5833 44.5833 35.5833C43.5086 35.6571 42.4471 35.8632 41.4228 36.197C41.2484 36.25 41.0641 36.2615 40.8844 36.2304C40.7048 36.1993 40.535 36.1266 40.3886 36.0181C40.2421 35.9095 40.1232 35.7682 40.0412 35.6053C39.9593 35.4425 39.9166 35.2628 39.9167 35.0805V33.8333C39.9167 32.9051 39.5479 32.0148 38.8915 31.3585C38.2352 30.7021 37.3449 30.3333 36.4167 30.3333H34.5862C34.4039 30.3334 34.2241 30.2907 34.0613 30.2088C33.8985 30.1268 33.7572 30.0079 33.6486 29.8614C33.5401 29.715 33.4673 29.5452 33.4363 29.3656C33.4052 29.1859 33.4166 29.0016 33.4697 28.8272C33.8037 27.803 34.0098 26.7414 34.0833 25.6667C34.0833 25.0478 33.8375 24.4543 33.3999 24.0168C32.9623 23.5792 32.3688 23.3333 31.75 23.3333C31.1312 23.3333 30.5377 23.5792 30.1001 24.0168C29.6625 24.4543 29.4167 25.0478 29.4167 25.6667C29.4902 26.7414 29.6963 27.803 30.0303 28.8272C30.0834 29.0016 30.0948 29.1859 30.0637 29.3656C30.0327 29.5452 29.9599 29.715 29.8514 29.8614C29.7428 30.0079 29.6015 30.1268 29.4387 30.2088C29.2759 30.2907 29.0961 30.3334 28.9138 30.3333H27.0833C26.1551 30.3333 25.2648 30.7021 24.6085 31.3585C23.9521 32.0148 23.5833 32.9051 23.5833 33.8333V43.1667C23.5833 44.0949 23.9521 44.9852 24.6085 45.6415C25.2648 46.2979 26.1551 46.6667 27.0833 46.6667H27.4007C27.2159 45.9017 27.1096 45.1199 27.0833 44.3333C27.0833 43.0957 27.575 41.9087 28.4502 41.0335C29.3253 40.1583 30.5123 39.6667 31.75 39.6667C32.9877 39.6667 34.1747 40.1583 35.0498 41.0335C35.925 41.9087 36.4167 43.0957 36.4167 44.3333C36.3904 45.1199 36.2841 45.9017 36.0993 46.6667Z" fill="#F2F6FA"/>
</g>
<defs>
<linearGradient id="paint0_linear_2087_8920" x1="0" y1="0" x2="70" y2="70" gradientUnits="userSpaceOnUse">
<stop stop-color="#D83333" stop-opacity="0.2"/>
<stop offset="1" stop-color="#F041FF" stop-opacity="0.2"/>
</linearGradient>
<linearGradient id="paint1_linear_2087_8920" x1="-7.2407" y1="53.1306" x2="77.2407" y2="16.8694" gradientUnits="userSpaceOnUse">
<stop stop-color="#D83333"/>
<stop offset="1" stop-color="#F041FF"/>
</linearGradient>
<clipPath id="clip0_2087_8920">
<rect width="28" height="28" fill="white" transform="translate(21.25 21)"/>
</clipPath>
</defs>
</svg>
