<svg width="160" height="29" viewBox="0 0 160 29" fill="none" xmlns="http://www.w3.org/2000/svg">
<path d="M159.655 17.5329H50.0312V28.1989H159.655V17.5329Z" fill="white"/>
<path d="M50.3516 0.0392113C50.4692 0.222431 50.7128 0.567194 51.0803 1.08176C51.4478 1.59632 51.8787 2.18985 52.3629 2.86183C52.847 3.53381 53.3662 4.25533 53.9112 5.01247C54.4562 5.76961 54.9672 6.48236 55.4466 7.15434C55.9261 7.82632 56.3452 8.40178 56.7028 8.89518C57.0605 9.38859 57.2964 9.71116 57.414 9.86806C57.4533 9.80251 57.5756 9.62807 57.7846 9.34472C57.9936 9.06137 58.2491 8.70319 58.5526 8.27585C58.8561 7.84851 59.2024 7.36388 59.5951 6.82764C59.9879 6.2914 60.3848 5.73709 60.7905 5.17608C61.1961 4.61506 61.6018 4.05044 61.9987 3.492C62.3956 2.93357 62.762 2.42313 63.098 1.96534C63.434 1.50755 63.722 1.10137 63.962 0.757124C64.202 0.412877 64.3723 0.177013 64.4781 0.0459207V14.7711H62.2227V6.86635C62.2226 6.7552 62.2328 6.64428 62.2531 6.535C62.2682 6.45136 62.2783 6.36692 62.2836 6.28211C62.1659 6.43694 61.9827 6.70067 61.7298 7.07176C61.4769 7.44284 61.1842 7.86141 60.8524 8.33675C60.5205 8.81209 60.1763 9.30962 59.8098 9.83348C59.4434 10.3573 59.1033 10.8543 58.7802 11.3209C58.4571 11.7875 58.1696 12.1983 57.925 12.5555C57.6804 12.9126 57.5121 13.1619 57.4192 13.3059C57.3273 13.1882 57.1488 12.9446 56.8824 12.5771C56.6161 12.2097 56.3065 11.7787 55.9488 11.2817C55.5911 10.7847 55.2159 10.2655 54.819 9.70703C54.4221 9.1486 54.0557 8.62939 53.7197 8.1494C53.3837 7.66942 53.0916 7.25962 52.8423 6.91486C52.6886 6.71179 52.5459 6.50057 52.415 6.28211C52.418 6.36711 52.4282 6.45171 52.4454 6.535C52.4636 6.64456 52.4738 6.75531 52.4759 6.86635V14.767H50.3557V0.0392113H50.3516Z" fill="white"/>
<path d="M76.6747 14.767C76.6092 14.623 76.5199 14.4181 76.4043 14.143C76.2887 13.8679 76.1555 13.5541 76.0074 13.2006C75.8593 12.8471 75.6977 12.4548 75.5187 12.0316C75.3396 11.6084 75.1651 11.1723 74.9819 10.7186H69.9999L68.3292 14.767H66.2266L72.5087 0C72.5871 0.18322 72.727 0.510435 72.9273 0.99042C73.1275 1.4704 73.368 2.04639 73.6472 2.71372C73.9264 3.38105 74.2361 4.12271 74.5809 4.92991C74.9256 5.73711 75.2745 6.56134 75.6322 7.39021C75.9899 8.21909 76.3388 9.04177 76.6835 9.84175C77.0283 10.6417 77.3421 11.386 77.6259 12.0579C77.9098 12.7299 78.1539 13.3054 78.3547 13.7812C78.5555 14.2571 78.6948 14.5838 78.7733 14.7618H76.6747V14.767ZM70.7374 8.92875H74.2578C74.0746 8.5014 73.9042 8.0911 73.7417 7.69421C73.5791 7.29731 73.432 6.935 73.2921 6.60366C73.1523 6.27232 73.0341 5.98432 72.9309 5.73969C72.8276 5.49505 72.7476 5.29893 72.6955 5.15493C72.6612 5.06656 72.6321 4.97626 72.6083 4.88449C72.5644 4.72965 72.5252 4.58772 72.4994 4.45715C72.469 4.60189 72.4297 4.74461 72.3817 4.88449C72.3301 5.03932 72.2986 5.12861 72.2857 5.15493L70.7374 8.92875Z" fill="white"/>
<path d="M80.5273 14.767V0.663205H84.3796C85.0683 0.655098 85.7541 0.753637 86.4126 0.955325C86.9968 1.13483 87.5395 1.42849 88.0094 1.8193C88.4578 2.2017 88.8142 2.68031 89.052 3.21951C89.3077 3.81897 89.4339 4.46565 89.4225 5.11726C89.4227 5.50562 89.3833 5.89299 89.3049 6.27335C89.2252 6.65711 89.0978 7.02937 88.9255 7.38144C88.7506 7.74206 88.5246 8.07562 88.2546 8.37186C87.9736 8.68564 87.638 8.94584 87.2642 9.13984C87.7834 9.95581 88.348 10.8631 88.957 11.853C89.566 12.8429 90.1828 13.8143 90.8068 14.7629H88.2592C87.9976 14.3613 87.7312 13.9371 87.452 13.4979C87.1728 13.0587 86.8936 12.6205 86.6144 12.1849C86.3352 11.7493 86.0647 11.3209 85.7984 10.9024C85.5321 10.4838 85.2823 10.0864 85.048 9.72459H82.6739V14.7634H80.5273V14.767ZM82.6651 7.72362H84.5933C85.0424 7.73838 85.4888 7.64882 85.8975 7.46195C86.218 7.30868 86.501 7.08685 86.7264 6.81217C86.9246 6.56512 87.0701 6.28003 87.1537 5.97452C87.2323 5.70944 87.2748 5.43498 87.2802 5.15854C87.2751 4.88496 87.2326 4.61337 87.1537 4.35134C87.0656 4.05244 86.9171 3.77474 86.7176 3.53537C86.4903 3.26697 86.2075 3.05108 85.8887 2.90262C85.4892 2.72168 85.0533 2.63515 84.615 2.64972H82.6692V7.72362H82.6651Z" fill="white"/>
<path d="M101.106 14.7665C100.653 14.1816 100.218 13.6247 99.8022 13.0958C99.3866 12.567 98.978 12.0347 98.5765 11.499C98.1753 10.9667 97.7696 10.4287 97.3595 9.8851C96.9493 9.34146 96.5175 8.77718 96.064 8.19225C95.8937 8.37547 95.7327 8.54114 95.5753 8.68978C95.4179 8.83842 95.2527 8.99067 95.0695 9.14809C95.0695 10.1459 95.0724 11.0823 95.0783 11.9573C95.0841 12.8323 95.087 13.7687 95.087 14.7665H92.7305V0.662683H95.086V5.93271C95.0871 6.04681 95.0769 6.16073 95.0556 6.27283C95.0364 6.38521 95.0262 6.49894 95.0251 6.61294C95.0862 6.5282 95.1516 6.44672 95.2212 6.36882C95.2948 6.28809 95.3605 6.20047 95.4174 6.10715C96.3378 5.23905 97.2262 4.33465 98.0826 3.39395C98.9378 2.45153 99.8275 1.5442 100.748 0.658554H103.453C102.48 1.67048 101.517 2.68842 100.562 3.71239C99.6084 4.73636 98.6449 5.7543 97.6722 6.76623C98.2176 7.46849 98.7396 8.14614 99.2381 8.7992C99.7357 9.45363 100.229 10.1081 100.717 10.7537C101.205 11.3994 101.694 12.0579 102.187 12.7149C102.68 13.372 103.19 14.0568 103.722 14.7567H101.1L101.106 14.7665Z" fill="white"/>
<path d="M105.332 14.767V0.663181H114.594V2.59138H107.474V6.72028H113.817V8.68151H107.474V12.8104H114.868V14.7716H105.332V14.767Z" fill="white"/>
<path d="M125.544 0.663181V2.68737H121.983V14.7711H119.862V2.68325H116.383V0.663181H125.544Z" fill="white"/>
<path d="M128.055 0.663181H130.175V14.767H128.055V0.663181Z" fill="white"/>
<path d="M146.012 0.663205V15.408C145.682 15.0129 145.331 14.6358 144.96 14.2783L143.173 12.4899C142.497 11.8138 141.78 11.1071 141.023 10.3697C140.263 9.63272 139.548 8.92462 138.872 8.25832C138.196 7.59201 137.607 6.99332 137.101 6.46947C136.594 5.94562 136.259 5.57092 136.088 5.3526L135.718 4.84681L135.775 5.47079V14.7711H133.633V0C133.856 0.270119 134.094 0.528518 134.344 0.774169C134.675 1.11016 135.064 1.50292 135.513 1.95194C135.962 2.40096 136.455 2.88094 136.992 3.40015C137.528 3.91936 138.076 4.4427 138.628 4.97481C139.18 5.50692 139.723 6.03077 140.264 6.54069C140.805 7.05061 141.293 7.53111 141.742 7.97136C142.192 8.4116 142.575 8.80023 142.899 9.14035C143.222 9.48047 143.448 9.72924 143.579 9.89955L143.95 10.4451L143.893 9.78188V0.663205H146.012Z" fill="white"/>
<path d="M159.995 8.01369V13.9294C159.385 14.2643 158.73 14.5097 158.05 14.6581C157.297 14.8327 156.527 14.9205 155.755 14.9198C154.729 14.9357 153.709 14.7582 152.749 14.3965C151.898 14.0707 151.121 13.5784 150.463 12.9482C149.826 12.3317 149.329 11.5847 149.006 10.7584C148.663 9.87877 148.491 8.94144 148.501 7.99717C148.487 6.95785 148.689 5.92704 149.094 4.96966C149.471 4.08301 150.02 3.27954 150.708 2.60535C151.387 1.94387 152.187 1.41833 153.064 1.05701C153.961 0.685383 154.924 0.49709 155.895 0.50322C156.609 0.50785 157.321 0.595665 158.015 0.764889C158.693 0.91462 159.343 1.16773 159.943 1.51532L158.914 3.24739C158.701 3.12109 158.477 3.01731 158.243 2.93772C157.984 2.84433 157.721 2.76575 157.453 2.70238C157.184 2.63749 156.912 2.5894 156.637 2.55838C156.38 2.52806 156.122 2.51204 155.863 2.51038C155.18 2.5087 154.504 2.6484 153.878 2.92069C153.253 3.18438 152.685 3.56822 152.207 4.05046C151.722 4.5373 151.332 5.11169 151.06 5.74331C150.773 6.40679 150.627 7.12296 150.633 7.84595C150.629 8.5133 150.758 9.17476 151.012 9.7917C151.259 10.3924 151.619 10.9403 152.072 11.4056C152.538 11.8811 153.094 12.2579 153.708 12.5137C154.374 12.7917 155.089 12.9313 155.811 12.924C156.166 12.9186 156.52 12.8895 156.871 12.8368C157.274 12.7819 157.669 12.681 158.049 12.5359V9.85208H155.305V8.02246H159.999L159.995 8.01369Z" fill="white"/>
<path d="M43.4721 22.1154C43.2185 21.6293 42.8682 21.2 42.4429 20.8539C42.0175 20.5078 41.526 20.2521 40.9984 20.1026C40.4433 19.9526 39.9246 19.6912 39.4738 19.3342C39.0231 18.9772 38.6497 18.5322 38.3765 18.0263L32.3824 6.56497C32.0194 5.86132 31.9337 5.04703 32.1424 4.28324C32.2517 3.87922 32.2769 3.45709 32.2166 3.04293C32.1563 2.62876 32.0117 2.23136 31.7918 1.87528C31.5718 1.51919 31.2812 1.21197 30.9379 0.972614C30.5946 0.733253 30.2058 0.566828 29.7956 0.48362C29.7827 0.48362 29.7693 0.479491 29.7564 0.479491C29.678 0.466588 29.6016 0.453169 29.5252 0.444395C29.4876 0.438191 29.4497 0.433885 29.4117 0.431492C29.36 0.427363 29.3084 0.422718 29.2568 0.422718C29.2052 0.422718 29.1608 0.418589 29.1128 0.422718C29.0824 0.422718 29.0519 0.426847 29.0215 0.426847C28.6041 0.445677 28.195 0.549637 27.8193 0.732339C27.4436 0.915041 27.1093 1.17263 26.8367 1.48928C26.5642 1.80592 26.3593 2.17494 26.2346 2.57367C26.1099 2.9724 26.0681 3.39241 26.1116 3.8079C26.2078 4.60456 26.0041 5.40851 25.5403 6.06331L23.2214 9.2436C22.8796 9.71616 22.4573 10.125 21.974 10.4513C21.4896 10.126 21.0671 9.71684 20.7265 9.24308L18.4097 6.06434C17.9453 5.40977 17.7416 4.60563 17.8384 3.80893C17.882 3.3934 17.8402 2.97333 17.7155 2.57455C17.5909 2.17576 17.386 1.80667 17.1134 1.48997C16.8409 1.17326 16.5065 0.91563 16.1308 0.732896C15.755 0.550162 15.3459 0.446188 14.9285 0.427363C14.8981 0.427363 14.8676 0.423234 14.8366 0.423234H14.6926C14.641 0.423234 14.5894 0.427363 14.5378 0.432008C14.4862 0.436653 14.4547 0.436137 14.4155 0.440782C14.337 0.449556 14.2607 0.462459 14.1843 0.475878C14.1714 0.480007 14.158 0.480007 14.1451 0.484652C13.7347 0.567626 13.3458 0.733862 13.0023 0.973086C12.6588 1.21231 12.368 1.51944 12.1478 1.87549C11.9277 2.23155 11.7829 2.62897 11.7224 3.04319C11.662 3.4574 11.6871 3.87963 11.7962 4.28376C12.0049 5.04754 11.9192 5.86183 11.5562 6.56549L5.55797 18.0232C5.28579 18.5302 4.9128 18.9762 4.46193 19.3338C4.01105 19.6914 3.49181 19.953 2.93612 20.1026C2.16082 20.3224 1.46903 20.7691 0.949789 21.3854C0.430546 22.0016 0.107614 22.7592 0.022555 23.5605C-0.0625035 24.3618 0.0942048 25.1703 0.47251 25.8818C0.850816 26.5934 1.43341 27.1754 2.1453 27.553C2.85719 27.9306 3.6658 28.0865 4.46705 28.0007C5.26831 27.9149 6.02554 27.5912 6.64129 27.0713C7.25704 26.5515 7.70312 25.8593 7.92212 25.0838C8.14113 24.3083 8.12303 23.485 7.87016 22.7198C7.6747 22.1553 7.59522 21.5572 7.63645 20.9612C7.67769 20.3652 7.83881 19.7837 8.11015 19.2515L14.0604 7.87848C14.2907 7.44675 14.6196 7.07542 15.0204 6.79464C15.4539 7.01524 15.8292 7.33515 16.1156 7.72829L18.5062 11.0087C19.0263 11.7456 19.3245 12.616 19.3655 13.517C19.3944 13.9911 19.553 14.4481 19.8238 14.8383L19.828 14.8424C19.8409 14.8599 19.8496 14.8775 19.8631 14.894C19.8806 14.9203 19.9069 14.9456 19.924 14.9724C19.9493 15.0077 19.977 15.0412 20.0071 15.0726C20.0325 15.1037 20.0603 15.1329 20.0902 15.1598C20.1206 15.1949 20.1557 15.2253 20.1903 15.2599C20.2202 15.2899 20.2523 15.3177 20.2863 15.343C20.3038 15.3606 20.3214 15.3735 20.3379 15.391C20.3514 15.4026 20.3661 15.4128 20.3818 15.4215C20.4256 15.4519 20.469 15.487 20.5128 15.5133C20.5433 15.535 20.5737 15.5572 20.6047 15.5742C20.6486 15.6006 20.6919 15.6258 20.7312 15.6486C20.7704 15.6713 20.8055 15.6878 20.8401 15.7053C20.8746 15.7229 20.9185 15.7404 20.9536 15.7569C20.9975 15.7745 21.0408 15.792 21.0888 15.8085C21.1239 15.8215 21.1544 15.8302 21.189 15.8436C21.237 15.8612 21.2891 15.8741 21.3371 15.8875C21.3675 15.8963 21.4026 15.9004 21.4331 15.9092C21.4847 15.918 21.5363 15.9309 21.5879 15.9396L21.6911 15.9525L21.8351 15.9654H22.088L22.232 15.9525L22.3352 15.9396C22.3869 15.9309 22.4385 15.9221 22.4901 15.9092C22.5205 15.9004 22.5556 15.8963 22.5861 15.8875C22.6362 15.8755 22.6856 15.8608 22.7342 15.8436C22.7684 15.8346 22.8019 15.8228 22.8343 15.8085C22.8782 15.791 22.9215 15.7735 22.9695 15.7569C23.0088 15.7394 23.048 15.7218 23.0831 15.7053C23.1182 15.6888 23.1574 15.6661 23.192 15.6486C23.2356 15.6264 23.2778 15.6016 23.3184 15.5742C23.3489 15.5567 23.3793 15.535 23.4103 15.5133L23.5414 15.4215C23.555 15.4099 23.5697 15.3997 23.5853 15.391C23.6035 15.3762 23.6208 15.3602 23.6369 15.343L23.7329 15.2599C23.768 15.2295 23.7984 15.1944 23.833 15.1598C23.8593 15.1293 23.8898 15.103 23.9161 15.0726C23.9424 15.0421 23.9729 15.007 23.9992 14.9724C24.0219 14.9482 24.0422 14.922 24.0601 14.894C24.073 14.8764 24.0818 14.8589 24.0952 14.8424L24.0993 14.8383C24.369 14.4473 24.5275 13.9905 24.5576 13.5165C24.5972 12.6152 24.8955 11.7444 25.4169 11.0082L27.8076 7.72777C28.0952 7.33576 28.4702 7.01611 28.9028 6.79413C29.3045 7.07381 29.6336 7.44539 29.8627 7.87796L35.8115 19.251C36.0818 19.7836 36.2423 20.365 36.2835 20.9608C36.3248 21.5566 36.2458 22.1546 36.0514 22.7193C35.8436 23.3523 35.7955 24.0268 35.9115 24.6828C36.0275 25.3389 36.304 25.956 36.7163 26.4793C37.1286 27.0026 37.664 27.4158 38.2747 27.6821C38.8854 27.9483 39.5525 28.0594 40.2165 28.0053C40.8805 27.9513 41.5209 27.7339 42.0805 27.3724C42.6401 27.0109 43.1016 26.5166 43.4239 25.9335C43.7462 25.3504 43.9193 24.6967 43.9277 24.0305C43.9361 23.3644 43.7796 22.7065 43.4721 22.1154ZM4.14434 26.5654C3.65171 26.5654 3.17015 26.4193 2.76055 26.1456C2.35094 25.8719 2.0317 25.4829 1.84318 25.0278C1.65466 24.5727 1.60533 24.0718 1.70144 23.5887C1.79755 23.1055 2.03477 22.6617 2.38311 22.3134C2.73145 21.965 3.17526 21.7278 3.65842 21.6317C4.14158 21.5356 4.64238 21.5849 5.09751 21.7734C5.55264 21.962 5.94164 22.2812 6.21533 22.6908C6.48902 23.1004 6.6351 23.582 6.6351 24.0746C6.63387 24.7345 6.37104 25.367 5.90424 25.8334C5.43744 26.2998 4.80474 26.5621 4.14486 26.5628L4.14434 26.5654ZM39.9295 26.5654C39.4369 26.5654 38.9553 26.4193 38.5457 26.1456C38.1361 25.8719 37.8169 25.4829 37.6283 25.0278C37.4398 24.5727 37.3905 24.0718 37.4866 23.5887C37.5827 23.1055 37.8199 22.6617 38.1683 22.3134C38.5166 21.965 38.9604 21.7278 39.4436 21.6317C39.9268 21.5356 40.4276 21.5849 40.8827 21.7734C41.3378 21.962 41.7268 22.2812 42.0005 22.6908C42.2742 23.1004 42.4203 23.582 42.4203 24.0746C42.419 24.7346 42.1561 25.3671 41.6892 25.8336C41.2223 26.3 40.5895 26.5622 39.9295 26.5628V26.5654ZM18.436 18.3994H17.6288C17.5307 18.3993 17.4335 18.4185 17.3429 18.456C17.2522 18.4935 17.1698 18.5485 17.1004 18.6179C17.0311 18.6872 16.976 18.7696 16.9386 18.8603C16.9011 18.951 16.8819 19.0481 16.882 19.1462V27.2735C16.882 27.4713 16.9606 27.661 17.1004 27.8008C17.2403 27.9407 17.43 28.0193 17.6278 28.0193H18.435C18.6328 28.0193 18.8225 27.9407 18.9623 27.8008C19.1022 27.661 19.1808 27.4713 19.1808 27.2735V19.1462C19.1813 19.0482 19.1624 18.951 19.1252 18.8603C19.088 18.7696 19.0332 18.6871 18.964 18.6177C18.8947 18.5483 18.8124 18.4932 18.7218 18.4558C18.6312 18.4183 18.5341 18.3992 18.436 18.3994ZM22.5933 22.7487H21.7851C21.5873 22.7487 21.3976 22.8273 21.2577 22.9671C21.1179 23.107 21.0393 23.2967 21.0393 23.4945V27.2724C21.0391 27.3705 21.0582 27.4677 21.0956 27.5583C21.133 27.649 21.1879 27.7314 21.2572 27.8008C21.3264 27.8702 21.4087 27.9253 21.4993 27.9629C21.5899 28.0004 21.687 28.0198 21.7851 28.0198H22.5923C22.7901 28.0198 22.9798 27.9412 23.1196 27.8013C23.2595 27.6615 23.338 27.4718 23.338 27.274V23.496C23.3375 23.2985 23.2589 23.1093 23.1194 22.9695C22.9799 22.8297 22.7908 22.7507 22.5933 22.7497V22.7487ZM30.9027 16.7417H30.0945C29.8967 16.7417 29.707 16.8203 29.5671 16.9601C29.4273 17.1 29.3487 17.2897 29.3487 17.4875V27.2735C29.3486 27.3715 29.3679 27.4685 29.4053 27.559C29.4428 27.6496 29.4977 27.7318 29.5669 27.8012C29.6362 27.8705 29.7184 27.9254 29.809 27.963C29.8995 28.0005 29.9965 28.0198 30.0945 28.0198H30.9017C31.0995 28.0198 31.2892 27.9412 31.429 27.8013C31.5689 27.6615 31.6475 27.4718 31.6475 27.274V17.4885C31.6468 17.2913 31.5683 17.1023 31.429 16.9626C31.2897 16.823 31.101 16.7439 30.9037 16.7427L30.9027 16.7417ZM26.7454 20.4716H25.9393C25.8411 20.4714 25.7438 20.4905 25.653 20.5279C25.5622 20.5653 25.4797 20.6203 25.4102 20.6897C25.3407 20.7591 25.2856 20.8415 25.2481 20.9322C25.2105 21.023 25.1913 21.1202 25.1914 21.2184V27.2735C25.1914 27.4713 25.27 27.661 25.4098 27.8008C25.5497 27.9407 25.7394 28.0193 25.9372 28.0193H26.7444C26.9422 28.0193 27.1319 27.9407 27.2717 27.8008C27.4116 27.661 27.4902 27.4713 27.4902 27.2735V21.2184C27.4909 21.1205 27.4722 21.0233 27.4351 20.9326C27.3981 20.8419 27.3433 20.7595 27.2741 20.6901C27.205 20.6208 27.1227 20.5658 27.0321 20.5285C26.9415 20.4912 26.8444 20.4722 26.7465 20.4727L26.7454 20.4716ZM14.2818 20.8845H13.4757C13.2779 20.8845 13.0882 20.9631 12.9483 21.103C12.8084 21.2428 12.7299 21.4325 12.7299 21.6303V27.2735C12.7298 27.3715 12.749 27.4685 12.7865 27.559C12.8239 27.6496 12.8789 27.7318 12.9481 27.8012C13.0174 27.8705 13.0996 27.9254 13.1901 27.963C13.2807 28.0005 13.3777 28.0198 13.4757 28.0198H14.2829C14.4806 28.0198 14.6703 27.9412 14.8102 27.8013C14.9501 27.6615 15.0286 27.4718 15.0286 27.274V21.6329C15.029 21.5348 15.01 21.4377 14.9727 21.347C14.9354 21.2563 14.8804 21.174 14.8111 21.1046C14.7418 21.0353 14.6594 20.9804 14.5687 20.943C14.4781 20.9057 14.3809 20.8867 14.2829 20.8871L14.2818 20.8845Z" fill="url(#paint0_linear_2087_9598)"/>
<path d="M62.8945 26.2314V19.5044H64.7314C65.0593 19.5014 65.3858 19.5484 65.6996 19.6438C65.9782 19.7282 66.2366 19.8687 66.4588 20.0567C66.6722 20.2393 66.8422 20.4673 66.9563 20.724C67.0781 21.0092 67.1375 21.3172 67.1308 21.6272C67.1315 21.8133 67.1125 21.9989 67.074 22.181C67.0361 22.3636 66.976 22.541 66.8949 22.709C66.8103 22.8796 66.7032 23.038 66.5765 23.1802C66.441 23.3278 66.2817 23.4516 66.1053 23.5466C66.354 23.9347 66.6214 24.3667 66.9125 24.8421C67.2036 25.3174 67.4972 25.7757 67.7935 26.2294H66.5765C66.4542 26.0374 66.3236 25.8366 66.1925 25.6276C66.0614 25.4186 65.9262 25.209 65.7956 24.9995C65.665 24.7899 65.5339 24.5892 65.4075 24.3889C65.281 24.1887 65.1634 24.0008 65.0498 23.8264H63.9144V26.2299H62.8945V26.2314ZM63.9154 22.8726H64.8356C65.0491 22.8792 65.2612 22.8359 65.455 22.7461C65.6073 22.6734 65.7415 22.5676 65.8477 22.4365C65.9419 22.319 66.012 22.1841 66.0542 22.0396C66.0916 21.9135 66.1121 21.783 66.1151 21.6515C66.1124 21.5213 66.0919 21.3921 66.0542 21.2675C66.0134 21.1244 65.9419 20.992 65.8446 20.8794C65.7371 20.7517 65.6031 20.649 65.4519 20.5785C65.2615 20.4926 65.0542 20.4508 64.8454 20.4561H63.9164L63.9154 22.8726Z" fill="black"/>
<path d="M76.1445 26.2314V19.5044H80.5594V20.4247H77.1654V22.3921H80.1888V23.3299H77.1654V25.2973H80.6904V26.2351H76.1445V26.2314Z" fill="black"/>
<path d="M89.293 26.2314V19.5044H91.1298C91.4578 19.5014 91.7843 19.5484 92.098 19.6438C92.3766 19.7282 92.635 19.8687 92.8572 20.0567C93.0707 20.2393 93.2407 20.4673 93.3548 20.724C93.4765 21.0092 93.536 21.3172 93.5292 21.6272C93.5295 21.8965 93.4882 22.1642 93.4069 22.421C93.3285 22.6811 93.1963 22.9219 93.0188 23.1275C92.8241 23.3468 92.5826 23.5197 92.3122 23.6333C91.978 23.7726 91.6182 23.8394 91.2563 23.8295H90.3097V26.233H89.293V26.2314ZM90.3092 22.8726H91.2294C91.4435 22.8799 91.6561 22.8349 91.8488 22.7415C92.0004 22.6656 92.1343 22.5585 92.2415 22.4272C92.3357 22.3097 92.4058 22.1748 92.448 22.0303C92.4847 21.907 92.5051 21.7795 92.5089 21.6509C92.5062 21.5208 92.4857 21.3916 92.448 21.267C92.4072 21.1239 92.3356 20.9914 92.2384 20.8788C92.1309 20.7512 91.9969 20.6485 91.8457 20.5779C91.6553 20.4921 91.448 20.4503 91.2392 20.4556H90.3102L90.3092 22.8726Z" fill="black"/>
<path d="M101.594 22.8721C101.593 22.4176 101.685 21.9678 101.864 21.5503C102.037 21.1398 102.287 20.7665 102.601 20.451C102.915 20.1366 103.285 19.8837 103.692 19.7052C104.113 19.5239 104.566 19.4304 105.025 19.4304C105.483 19.4304 105.936 19.5239 106.357 19.7052C107.183 20.0626 107.84 20.723 108.193 21.5503C108.375 21.9697 108.468 22.4218 108.468 22.8788C108.468 23.3357 108.375 23.7878 108.193 24.2072C108.015 24.613 107.764 24.9826 107.452 25.2978C107.138 25.6119 106.766 25.8622 106.357 26.0348C105.935 26.2133 105.482 26.3052 105.024 26.3052C104.566 26.3052 104.113 26.2133 103.691 26.0348C102.869 25.6839 102.214 25.0289 101.863 24.2067C101.681 23.7857 101.589 23.3309 101.594 22.8721ZM102.602 22.8808C102.601 23.534 102.858 24.1612 103.317 24.6258C103.542 24.8489 103.807 25.028 104.098 25.1538C104.396 25.2851 104.719 25.3519 105.045 25.3499C105.369 25.3524 105.691 25.2855 105.987 25.1538C106.275 25.027 106.538 24.848 106.761 24.6258C107.219 24.1569 107.475 23.5266 107.472 22.871C107.473 22.2178 107.216 21.5906 106.757 21.126C106.534 20.9033 106.272 20.7242 105.983 20.5981C105.686 20.4663 105.365 20.3995 105.041 20.4019C104.715 20.4 104.392 20.4668 104.094 20.5981C103.805 20.7242 103.543 20.9033 103.32 21.126C102.864 21.5962 102.608 22.2257 102.609 22.8808H102.602Z" fill="black"/>
<path d="M117.066 26.2314V19.5044H118.904C119.232 19.5014 119.558 19.5484 119.872 19.6438C120.151 19.7282 120.409 19.8687 120.631 20.0567C120.845 20.2393 121.015 20.4673 121.129 20.724C121.25 21.0092 121.31 21.3172 121.303 21.6272C121.304 21.8133 121.285 21.9989 121.246 22.181C121.208 22.3636 121.148 22.541 121.067 22.709C120.983 22.8796 120.876 23.038 120.749 23.1802C120.613 23.3278 120.454 23.4516 120.278 23.5466C120.526 23.9347 120.794 24.3667 121.085 24.8421C121.376 25.3174 121.67 25.7757 121.966 26.2294H120.749C120.627 26.0374 120.496 25.8366 120.365 25.6276C120.234 25.4186 120.099 25.209 119.968 24.9995C119.837 24.7899 119.706 24.5892 119.58 24.3889C119.453 24.1887 119.336 24.0008 119.222 23.8264H118.087V26.2299H117.066V26.2314ZM118.087 22.8726H119.007C119.22 22.8792 119.433 22.8359 119.626 22.7461C119.779 22.6734 119.913 22.5676 120.019 22.4365C120.113 22.319 120.183 22.1841 120.226 22.0396C120.263 21.9135 120.283 21.783 120.286 21.6515C120.284 21.5213 120.263 21.3921 120.226 21.2675C120.185 21.1244 120.113 20.992 120.016 20.8794C119.908 20.7517 119.774 20.649 119.623 20.5785C119.433 20.4926 119.226 20.4508 119.017 20.4561H118.088V22.8731L118.087 22.8726Z" fill="black"/>
<path d="M134.086 19.5044V20.4685H132.389V26.2314H131.377V20.4685H129.715V19.5044H134.086Z" fill="black"/>
<path d="M146.554 19.875L146.192 20.7008C145.946 20.6112 145.694 20.5369 145.438 20.4783C145.202 20.4237 144.96 20.3958 144.718 20.3952C144.389 20.378 144.064 20.4617 143.784 20.6352C143.679 20.6991 143.592 20.7887 143.531 20.8954C143.47 21.0022 143.437 21.1228 143.435 21.2458C143.433 21.3439 143.454 21.4412 143.497 21.5293C143.541 21.6174 143.605 21.6937 143.684 21.7516C143.876 21.8912 144.084 22.0069 144.303 22.0963C144.552 22.1965 144.82 22.3028 145.111 22.4019C145.394 22.5008 145.665 22.6326 145.918 22.7946C146.163 22.9528 146.374 23.1591 146.537 23.4011C146.713 23.6829 146.8 24.0114 146.786 24.3435C146.791 24.6195 146.736 24.8933 146.624 25.146C146.515 25.3869 146.349 25.5979 146.14 25.7612C145.904 25.9464 145.632 26.0814 145.342 26.1581C144.978 26.2564 144.602 26.3033 144.225 26.2975C143.978 26.3002 143.732 26.2812 143.488 26.2407C143.286 26.2102 143.088 26.162 142.894 26.0967C142.734 26.0463 142.579 25.9821 142.43 25.9047C142.299 25.835 142.186 25.7736 142.09 25.7174L142.535 24.8364C142.795 24.9844 143.072 25.1002 143.361 25.1811C143.628 25.263 143.906 25.3072 144.186 25.3122C144.34 25.3105 144.494 25.2945 144.645 25.2642C144.826 25.235 145.002 25.1806 145.168 25.1027C145.33 25.028 145.477 24.9229 145.6 24.793C145.722 24.6589 145.787 24.4817 145.779 24.3001C145.784 24.1356 145.733 23.9742 145.635 23.8418C145.531 23.7071 145.402 23.5931 145.256 23.5058C145.085 23.4031 144.905 23.3155 144.719 23.2442C144.518 23.1657 144.313 23.0893 144.104 23.0042C143.894 22.919 143.691 22.8339 143.489 22.7379C143.294 22.6505 143.114 22.536 142.952 22.3977C142.797 22.2681 142.669 22.1105 142.572 21.9332C142.471 21.7365 142.422 21.5174 142.428 21.2964C142.43 21.064 142.477 20.8343 142.568 20.6202C142.662 20.3942 142.805 20.1916 142.986 20.0267C143.187 19.8437 143.421 19.7015 143.675 19.6082C143.983 19.4989 144.309 19.4464 144.635 19.4533C144.855 19.4523 145.074 19.4713 145.29 19.5101C145.503 19.5493 145.695 19.5885 145.87 19.6365C146.044 19.6845 146.188 19.7279 146.311 19.7718C146.44 19.827 146.519 19.8574 146.554 19.875Z" fill="black"/>
<defs>
<linearGradient id="paint0_linear_2087_9598" x1="48.4762" y1="7.2296" x2="5.35235" y2="36.0362" gradientUnits="userSpaceOnUse">
<stop stop-color="#4AF2C8"/>
<stop offset="1" stop-color="#2F4CB3"/>
</linearGradient>
</defs>
</svg>
