<svg width="20" height="20" viewBox="0 0 20 20" fill="none" xmlns="http://www.w3.org/2000/svg">
<path d="M16.0019 4.30188H16.0023C16.4111 4.3038 16.8154 4.38702 17.1917 4.54672C17.5678 4.70633 17.9083 4.93913 18.1936 5.23157C18.7702 5.80612 19.0961 6.58551 19.1 7.39953L19.1 7.40001V14.6C19.1 15.4217 18.7736 16.2097 18.1926 16.7907C17.6116 17.3717 16.8235 17.6981 16.0019 17.6981H3.99813C3.17645 17.6981 2.38843 17.3717 1.80742 16.7907C1.22641 16.2097 0.9 15.4217 0.9 14.6V7.40001C0.9 6.57833 1.22641 5.79031 1.80742 5.2093C2.38843 4.62829 3.17645 4.30188 3.99813 4.30188H5.96695L6.64224 2.95129C6.64227 2.95124 6.6423 2.95118 6.64232 2.95113C6.79889 2.6347 7.04102 2.36848 7.34122 2.18269C7.64144 1.99689 7.98772 1.89896 8.34078 1.90001M16.0019 4.30188L8.34063 2.00001M16.0019 4.30188H14.0331L13.3578 2.95129C13.3577 2.95127 13.3577 2.95125 13.3577 2.95122C13.2012 2.63475 12.959 2.3685 12.6588 2.18269L12.6064 2.26733L12.6588 2.18269C12.3586 1.99689 12.0123 1.89896 11.6592 1.90001M16.0019 4.30188L11.6594 2.00001M8.34078 1.90001C8.34083 1.90001 8.34088 1.90001 8.34093 1.90001L8.34063 2.00001M8.34078 1.90001H8.34063V2.00001M8.34078 1.90001H11.6592M8.34063 2.00001H11.6594M11.6592 1.90001C11.6592 1.90001 11.6591 1.90001 11.6591 1.90001L11.6594 2.00001M11.6592 1.90001H11.6594V2.00001M7.89569 3.58036L7.89594 3.57986C7.93864 3.49327 8.00568 3.42102 8.08883 3.37196C8.17199 3.3229 8.26765 3.29916 8.3641 3.30365L8.36409 3.30376H8.36875H11.6875V3.30387L11.6922 3.30365C11.7886 3.29916 11.8843 3.3229 11.9674 3.37196C12.0506 3.42102 12.1176 3.49327 12.1603 3.57987L12.1606 3.58035L12.5213 4.30188H7.53493L7.89569 3.58036ZM2.43036 6.75C2.50993 6.55663 2.62479 6.37989 2.76896 6.22876H2.78547L2.81482 6.19911C2.97177 6.04053 3.15868 5.91475 3.36469 5.82907C3.57069 5.74339 3.79167 5.69952 4.01478 5.70001H4.015H16.0019C16.4527 5.70001 16.8851 5.87911 17.204 6.19793C17.5228 6.51674 17.7019 6.94914 17.7019 7.40001L17.7019 9.19954C17.7019 9.19967 17.7019 9.1998 17.7019 9.19994C17.7004 9.49074 17.5842 9.76923 17.3786 9.97487C17.173 10.1805 16.8945 10.2967 16.6037 10.2981H3.40195C3.11114 10.2967 2.83266 10.1805 2.62702 9.97487C2.42134 9.76919 2.30517 9.49063 2.30375 9.19977L2.30375 7.40001L2.30375 7.39947C2.30256 7.17674 2.3456 6.95598 2.43036 6.75ZM17.2025 15.8061L17.2021 15.8065C17.0451 15.9651 16.8582 16.0909 16.6522 16.1766C16.4462 16.2623 16.2252 16.3061 16.0021 16.3056H16.0019H3.99813C3.54726 16.3056 3.11486 16.1265 2.79604 15.8077C2.47723 15.4889 2.29813 15.0565 2.29813 14.6056V11.4386C2.63812 11.6094 3.01369 11.6999 3.39572 11.7019H3.39625L16.5981 11.7019L16.5986 11.7019C16.9807 11.6999 17.3563 11.6094 17.6962 11.4386L17.6962 14.6056L17.6963 14.6062C17.6974 14.8289 17.6544 15.0497 17.5696 15.2556C17.4849 15.4616 17.3601 15.6487 17.2025 15.8061Z" fill="#F2F6FA" stroke="#F2F6FA" stroke-width="0.2"/>
<path d="M8.52356 9.26759C8.61488 9.29787 8.71143 9.30905 8.80722 9.30045H11.1998C11.2956 9.30905 11.3921 9.29787 11.4835 9.26759C11.5764 9.23679 11.6618 9.18689 11.7343 9.1211C11.8068 9.05531 11.8647 8.97508 11.9043 8.88558C11.944 8.79608 11.9644 8.69927 11.9644 8.60139C11.9644 8.5035 11.944 8.4067 11.9043 8.31719C11.8647 8.22769 11.8068 8.14747 11.7343 8.08168C11.6618 8.01589 11.5764 7.96599 11.4835 7.93518C11.3921 7.9049 11.2956 7.89372 11.1998 7.90232H8.80722C8.71143 7.89372 8.61488 7.9049 8.52356 7.93518C8.43064 7.96599 8.3452 8.01589 8.27272 8.08168C8.20024 8.14747 8.14232 8.22769 8.10269 8.31719C8.06305 8.4067 8.04258 8.5035 8.04258 8.60139C8.04258 8.69927 8.06305 8.79608 8.10269 8.88558C8.14232 8.97508 8.20024 9.05531 8.27272 9.1211C8.3452 9.18689 8.43064 9.23679 8.52356 9.26759Z" fill="#F2F6FA" stroke="#F2F6FA" stroke-width="0.2"/>
</svg>
