<svg width="20" height="20" viewBox="0 0 20 20" fill="none" xmlns="http://www.w3.org/2000/svg">
<path d="M5.00033 6.66683L6.80033 8.16683C8.33366 9.44183 9.10033 10.0835 10.0003 10.0835C10.9003 10.0835 11.667 9.44183 13.2003 8.16683L15.0003 6.66683M8.33366 16.6668H11.667C14.8087 16.6668 16.3837 16.6668 17.3587 15.6918C18.3337 14.7168 18.3337 13.1418 18.3337 10.0002C18.3337 6.8585 18.3337 5.2835 17.3587 4.3085C16.3837 3.3335 14.8087 3.3335 11.667 3.3335H8.33366C5.19199 3.3335 3.61699 3.3335 2.64199 4.3085C1.66699 5.2835 1.66699 6.8585 1.66699 10.0002C1.66699 13.1418 1.66699 14.7168 2.64199 15.6918C3.61699 16.6668 5.19199 16.6668 8.33366 16.6668Z" stroke="#9CA3AF" stroke-width="1.5" stroke-linecap="round"/>
</svg>
