<svg width="20" height="20" viewBox="0 0 20 20" fill="none" xmlns="http://www.w3.org/2000/svg">
<path d="M5.00033 6.66671L6.80033 8.16671C8.33366 9.44171 9.10033 10.0834 10.0003 10.0834C10.9003 10.0834 11.667 9.44171 13.2003 8.16671L15.0003 6.66671M8.33366 16.6667H11.667C14.8087 16.6667 16.3837 16.6667 17.3587 15.6917C18.3337 14.7167 18.3337 13.1417 18.3337 10C18.3337 6.85837 18.3337 5.28337 17.3587 4.30837C16.3837 3.33337 14.8087 3.33337 11.667 3.33337H8.33366C5.19199 3.33337 3.61699 3.33337 2.64199 4.30837C1.66699 5.28337 1.66699 6.85837 1.66699 10C1.66699 13.1417 1.66699 14.7167 2.64199 15.6917C3.61699 16.6667 5.19199 16.6667 8.33366 16.6667Z" stroke="#F2F6FA" stroke-width="1.5" stroke-linecap="round"/>
</svg>
