<svg width="49" height="48" viewBox="0 0 49 48" fill="none" xmlns="http://www.w3.org/2000/svg">
<path d="M18.6562 20L25.9144 25.4436C26.3328 25.7574 26.9224 25.6957 27.2668 25.3021L40.6562 10" stroke="url(#paint0_linear_1_10227)" stroke-width="5" stroke-linecap="round"/>
<path d="M42.6562 24C42.6562 27.761 41.4782 31.4275 39.2875 34.4846C37.0968 37.5417 34.0035 39.8358 30.4422 41.0447C26.8808 42.2537 23.0302 42.3167 19.4311 41.2249C15.8321 40.1332 12.6654 37.9415 10.3759 34.9577C8.08635 31.9739 6.78894 28.3479 6.66589 24.5889C6.54283 20.83 7.60031 17.1269 9.6898 13.9997C11.7793 10.8726 14.7958 8.4785 18.3157 7.15369C21.8357 5.82889 25.6822 5.63992 29.315 6.61333" stroke="url(#paint1_linear_1_10227)" stroke-width="5" stroke-linecap="round"/>
<defs>
<linearGradient id="paint0_linear_1_10227" x1="18.4311" y1="21.061" x2="41.1447" y2="19.9451" gradientUnits="userSpaceOnUse">
<stop stop-color="#3245FF"/>
<stop offset="1" stop-color="#B845ED"/>
</linearGradient>
<linearGradient id="paint1_linear_1_10227" x1="6.28785" y1="31.4542" x2="43.5" y2="30.1542" gradientUnits="userSpaceOnUse">
<stop stop-color="#3245FF"/>
<stop offset="1" stop-color="#B845ED"/>
</linearGradient>
</defs>
</svg>
