<svg width="24" height="25" viewBox="0 0 24 25" fill="none" xmlns="http://www.w3.org/2000/svg">
<g clip-path="url(#clip0_1_12350)">
<path d="M12 0.5C5.38298 0.5 0 5.88327 0 12.5C0 19.1167 5.38298 24.5 12 24.5C18.617 24.5 24 19.1167 24 12.5C24 5.88327 18.617 0.5 12 0.5ZM17.6362 11.1641L12.0632 16.7371C11.4518 17.3485 10.4613 17.3485 9.84984 16.7371L6.62466 13.5119C6.01322 12.9007 6.01322 11.9097 6.62466 11.2985C7.23609 10.6871 8.22656 10.6871 8.838 11.2985L10.9565 13.4168L15.4229 8.95067C16.0343 8.33923 17.0248 8.33923 17.6362 8.95067C18.2476 9.56192 18.2476 10.5529 17.6362 11.1641Z" fill="#F2F6FA"/>
<path d="M17.6361 11.1642L12.0631 16.7372C11.4517 17.3486 10.4612 17.3486 9.84978 16.7372L6.62459 13.512C6.01316 12.9008 6.01316 11.9098 6.62459 11.2986C7.23603 10.6872 8.2265 10.6872 8.83794 11.2986L10.9565 13.4169L15.4228 8.95077C16.0342 8.33933 17.0247 8.33933 17.6361 8.95077C18.2476 9.56202 18.2476 10.553 17.6361 11.1642Z" fill="url(#paint0_linear_1_12350)"/>
</g>
<defs>
<linearGradient id="paint0_linear_1_12350" x1="6.04394" y1="14.6461" x2="18.3611" y2="14.0564" gradientUnits="userSpaceOnUse">
<stop stop-color="#3245FF"/>
<stop offset="1" stop-color="#B845ED"/>
</linearGradient>
<clipPath id="clip0_1_12350">
<rect width="24" height="24" fill="white" transform="translate(0 0.5)"/>
</clipPath>
</defs>
</svg>
