<svg width="160" height="30" viewBox="0 0 160 30" fill="none" xmlns="http://www.w3.org/2000/svg">
<path d="M159.657 18.4331H50.0332V29.0991H159.657V18.4331Z" fill="white"/>
<path d="M50.3516 0.939453C50.4692 1.12267 50.7128 1.46744 51.0803 1.982C51.4478 2.49656 51.8787 3.09009 52.3629 3.76207C52.847 4.43405 53.3662 5.15558 53.9112 5.91271C54.4562 6.66985 54.9672 7.3826 55.4466 8.05458C55.9261 8.72656 56.3452 9.30202 56.7028 9.79543C57.0605 10.2888 57.2964 10.6114 57.414 10.7683C57.4533 10.7028 57.5756 10.5283 57.7846 10.245C57.9936 9.96162 58.2491 9.60343 58.5526 9.17609C58.8561 8.74875 59.2024 8.26412 59.5951 7.72788C59.9879 7.19164 60.3848 6.63733 60.7905 6.07632C61.1961 5.51531 61.6018 4.95068 61.9987 4.39225C62.3956 3.83381 62.762 3.32338 63.098 2.86558C63.434 2.40779 63.722 2.00161 63.962 1.65737C64.202 1.31312 64.3723 1.07726 64.4781 0.946163V15.6714H62.2227V7.76659C62.2226 7.65544 62.2328 7.54452 62.2531 7.43524C62.2682 7.35161 62.2783 7.26717 62.2836 7.18235C62.1659 7.33718 61.9827 7.60092 61.7298 7.972C61.4769 8.34309 61.1842 8.76165 60.8524 9.23699C60.5205 9.71233 60.1763 10.2099 59.8098 10.7337C59.4434 11.2576 59.1033 11.7546 58.7802 12.2212C58.4571 12.6877 58.1696 13.0985 57.925 13.4557C57.6804 13.8128 57.5121 14.0621 57.4192 14.2061C57.3273 14.0884 57.1488 13.8448 56.8824 13.4774C56.6161 13.1099 56.3065 12.6789 55.9488 12.1819C55.5911 11.6849 55.2159 11.1657 54.819 10.6073C54.4221 10.0488 54.0557 9.52963 53.7197 9.04964C53.3837 8.56966 53.0916 8.15987 52.8423 7.8151C52.6886 7.61204 52.5459 7.40081 52.415 7.18235C52.418 7.26736 52.4282 7.35195 52.4454 7.43524C52.4636 7.54481 52.4738 7.65555 52.4759 7.76659V15.6672H50.3557V0.939453H50.3516Z" fill="white"/>
<path d="M76.6747 15.6674C76.6092 15.5234 76.5199 15.3185 76.4043 15.0434C76.2887 14.7683 76.1555 14.4545 76.0074 14.101C75.8593 13.7475 75.6977 13.3552 75.5187 12.932C75.3396 12.5088 75.1651 12.0727 74.9819 11.619H69.9999L68.3292 15.6674H66.2266L72.5087 0.900391C72.5871 1.08361 72.727 1.41083 72.9273 1.89081C73.1275 2.3708 73.368 2.94678 73.6472 3.61411C73.9264 4.28144 74.2361 5.0231 74.5809 5.8303C74.9256 6.6375 75.2745 7.46173 75.6322 8.29061C75.9899 9.11948 76.3388 9.94217 76.6835 10.7421C77.0283 11.5421 77.3421 12.2863 77.6259 12.9583C77.9098 13.6303 78.1539 14.2058 78.3547 14.6816C78.5555 15.1575 78.6948 15.4842 78.7733 15.6622H76.6747V15.6674ZM70.7374 9.82914H74.2578C74.0746 9.4018 73.9042 8.99149 73.7417 8.5946C73.5791 8.19771 73.432 7.83539 73.2921 7.50405C73.1523 7.17271 73.0341 6.88472 72.9309 6.64008C72.8276 6.39544 72.7476 6.19932 72.6955 6.05532C72.6612 5.96695 72.6321 5.87665 72.6083 5.78488C72.5644 5.63005 72.5252 5.48811 72.4994 5.35754C72.469 5.50228 72.4297 5.645 72.3817 5.78488C72.3301 5.93971 72.2986 6.029 72.2857 6.05532L70.7374 9.82914Z" fill="white"/>
<path d="M80.5264 15.6673V1.56345H84.3786C85.0673 1.55534 85.7531 1.65388 86.4116 1.85557C86.9958 2.03507 87.5386 2.32874 88.0084 2.71954C88.4568 3.10194 88.8132 3.58056 89.051 4.11976C89.3067 4.71922 89.433 5.36589 89.4216 6.0175C89.4217 6.40586 89.3823 6.79323 89.3039 7.17359C89.2242 7.55735 89.0968 7.92962 88.9246 8.28169C88.7496 8.64231 88.5236 8.97587 88.2536 9.27211C87.9726 9.58588 87.637 9.84609 87.2632 10.0401C87.7824 10.8561 88.347 11.7634 88.956 12.7533C89.565 13.7432 90.1818 14.7145 90.8058 15.6631H88.2583C87.9966 15.2616 87.7303 14.8373 87.451 14.3981C87.1718 13.9589 86.8926 13.5207 86.6134 13.0851C86.3342 12.6495 86.0637 12.2212 85.7974 11.8026C85.5311 11.384 85.2813 10.9866 85.047 10.6248H82.6729V15.6636H80.5264V15.6673ZM82.6641 8.62387H84.5923C85.0414 8.63863 85.4878 8.54906 85.8965 8.3622C86.2171 8.20892 86.5 7.9871 86.7254 7.71241C86.9236 7.46537 87.0691 7.18027 87.1527 6.87476C87.2313 6.60969 87.2739 6.33523 87.2792 6.05879C87.2741 5.78521 87.2316 5.51361 87.1527 5.25159C87.0646 4.95268 86.9162 4.67499 86.7166 4.43562C86.4894 4.16721 86.2066 3.95132 85.8877 3.80286C85.4882 3.62193 85.0523 3.5354 84.614 3.54997H82.6682V8.62387H82.6641Z" fill="white"/>
<path d="M101.108 15.667C100.655 15.0821 100.22 14.5252 99.8042 13.9964C99.3886 13.4675 98.98 12.9352 98.5784 12.3995C98.1772 11.8672 97.7716 11.3293 97.3614 10.7856C96.9513 10.242 96.5195 9.6777 96.066 9.09278C95.8957 9.276 95.7347 9.44167 95.5772 9.59031C95.4198 9.73895 95.2547 9.8912 95.0714 10.0486C95.0714 11.0464 95.0744 11.9828 95.0802 12.8578C95.0861 13.7328 95.089 14.6692 95.089 15.667H92.7324V1.56321H95.088V6.83324C95.089 6.94733 95.0788 7.06126 95.0575 7.17335C95.0383 7.28574 95.0282 7.39947 95.0271 7.51347C95.0881 7.42873 95.1536 7.34725 95.2232 7.26935C95.2968 7.18862 95.3625 7.10099 95.4193 7.00768C96.3397 6.13958 97.2281 5.23518 98.0845 4.29448C98.9397 3.35206 99.8295 2.44473 100.75 1.55908H103.455C102.482 2.57101 101.519 3.58895 100.564 4.61292C99.6103 5.63689 98.6469 6.65483 97.6742 7.66676C98.2196 8.36901 98.7415 9.04667 99.2401 9.69973C99.7376 10.3542 100.231 11.0086 100.719 11.6542C101.207 12.2999 101.696 12.9585 102.189 13.6155C102.682 14.2725 103.192 14.9574 103.724 15.6572H101.102L101.108 15.667Z" fill="white"/>
<path d="M105.331 15.6673V1.56348H114.593V3.49167H107.473V7.62057H113.816V9.5818H107.473V13.7107H114.867V15.6719H105.331V15.6673Z" fill="white"/>
<path d="M125.543 1.56348V3.58767H121.982V15.6714H119.861V3.58354H116.382V1.56348H125.543Z" fill="white"/>
<path d="M128.056 1.56348H130.176V15.6673H128.056V1.56348Z" fill="white"/>
<path d="M146.012 1.5636V16.3084C145.682 15.9133 145.331 15.5362 144.96 15.1786L143.173 13.3903C142.497 12.7142 141.78 12.0075 141.023 11.2701C140.263 10.5331 139.548 9.82501 138.872 9.15871C138.196 8.49241 137.607 7.89371 137.101 7.36986C136.594 6.84601 136.259 6.47131 136.088 6.25299L135.718 5.7472L135.775 6.37118V15.6715H133.633V0.900391C133.856 1.17051 134.094 1.42891 134.344 1.67456C134.675 2.01055 135.064 2.40331 135.513 2.85233C135.962 3.30135 136.455 3.78133 136.992 4.30054C137.528 4.81975 138.076 5.34309 138.628 5.8752C139.18 6.40731 139.723 6.93117 140.264 7.44108C140.805 7.951 141.293 8.4315 141.742 8.87175C142.192 9.31199 142.575 9.70062 142.899 10.0407C143.222 10.3809 143.448 10.6296 143.579 10.7999L143.95 11.3455L143.893 10.6823V1.5636H146.012Z" fill="white"/>
<path d="M159.996 8.91393V14.8296C159.386 15.1645 158.731 15.4099 158.051 15.5584C157.298 15.7329 156.528 15.8207 155.756 15.82C154.73 15.836 153.71 15.6584 152.75 15.2967C151.899 14.971 151.122 14.4786 150.464 13.8485C149.827 13.2319 149.33 12.4849 149.007 11.6586C148.664 10.779 148.492 9.84169 148.502 8.89742C148.488 7.8581 148.69 6.82728 149.095 5.8699C149.472 4.98325 150.021 4.17978 150.709 3.50559C151.388 2.84412 152.188 2.31858 153.065 1.95725C153.962 1.58563 154.925 1.39734 155.896 1.40347C156.61 1.4081 157.322 1.49591 158.016 1.66513C158.694 1.81487 159.344 2.06797 159.944 2.41556L158.915 4.14764C158.702 4.02134 158.478 3.91755 158.244 3.83797C157.985 3.74457 157.722 3.666 157.454 3.60262C157.185 3.53774 156.913 3.48965 156.638 3.45863C156.381 3.42831 156.123 3.41229 155.864 3.41063C155.181 3.40894 154.505 3.54864 153.879 3.82094C153.254 4.08463 152.686 4.46847 152.208 4.95071C151.722 5.43755 151.333 6.01194 151.061 6.64356C150.774 7.30704 150.628 8.02321 150.634 8.7462C150.63 9.41354 150.759 10.075 151.013 10.6919C151.26 11.2927 151.62 11.8405 152.073 12.3058C152.539 12.7813 153.095 13.1582 153.709 13.4139C154.375 13.692 155.09 13.8316 155.812 13.8242C156.167 13.8189 156.521 13.7897 156.872 13.737C157.275 13.6822 157.67 13.5812 158.05 13.4361V10.7523H155.306V8.92271H160L159.996 8.91393Z" fill="white"/>
<path d="M43.4721 23.0159C43.2185 22.5297 42.8682 22.1004 42.4429 21.7543C42.0175 21.4082 41.526 21.1525 40.9984 21.003C40.4433 20.853 39.9246 20.5916 39.4738 20.2346C39.0231 19.8776 38.6497 19.4326 38.3765 18.9267L32.3824 7.46538C32.0194 6.76172 31.9337 5.94743 32.1424 5.18365C32.2517 4.77962 32.2769 4.35749 32.2166 3.94333C32.1563 3.52917 32.0117 3.13177 31.7918 2.77568C31.5718 2.41959 31.2812 2.11238 30.9379 1.87302C30.5946 1.63366 30.2058 1.46723 29.7956 1.38403C29.7827 1.38403 29.7693 1.3799 29.7564 1.3799C29.678 1.36699 29.6016 1.35357 29.5252 1.3448C29.4876 1.3386 29.4497 1.33429 29.4117 1.3319C29.36 1.32777 29.3084 1.32312 29.2568 1.32312C29.2052 1.32312 29.1608 1.319 29.1128 1.32312C29.0824 1.32312 29.0519 1.32725 29.0215 1.32725C28.6041 1.34608 28.195 1.45004 27.8193 1.63274C27.4436 1.81545 27.1093 2.07303 26.8367 2.38968C26.5642 2.70633 26.3593 3.07535 26.2346 3.47408C26.1099 3.8728 26.0681 4.29281 26.1116 4.70831C26.2078 5.50497 26.0041 6.30891 25.5403 6.96372L23.2214 10.144C22.8796 10.6166 22.4573 11.0254 21.974 11.3517C21.4896 11.0264 21.0671 10.6172 20.7265 10.1435L18.4097 6.96475C17.9453 6.31018 17.7416 5.50604 17.8384 4.70934C17.882 4.2938 17.8402 3.87374 17.7155 3.47495C17.5909 3.07616 17.386 2.70708 17.1134 2.39038C16.8409 2.07367 16.5065 1.81604 16.1308 1.6333C15.755 1.45057 15.3459 1.34659 14.9285 1.32777C14.8981 1.32777 14.8676 1.32364 14.8366 1.32364H14.6926C14.641 1.32364 14.5894 1.32777 14.5378 1.33241C14.4862 1.33706 14.4547 1.33654 14.4155 1.34119C14.337 1.34996 14.2607 1.36286 14.1843 1.37628C14.1714 1.38041 14.158 1.38041 14.1451 1.38506C13.7347 1.46803 13.3458 1.63427 13.0023 1.87349C12.6588 2.11272 12.368 2.41985 12.1478 2.7759C11.9277 3.13196 11.7829 3.52937 11.7224 3.94359C11.662 4.35781 11.6871 4.78003 11.7962 5.18416C12.0049 5.94795 11.9192 6.76224 11.5562 7.4659L5.55797 18.9236C5.28579 19.4306 4.9128 19.8766 4.46193 20.2342C4.01105 20.5918 3.49181 20.8534 2.93612 21.003C2.16082 21.2228 1.46903 21.6695 0.949789 22.2858C0.430546 22.902 0.107614 23.6596 0.022555 24.4609C-0.0625035 25.2623 0.0942048 26.0707 0.47251 26.7822C0.850816 27.4938 1.43341 28.0758 2.1453 28.4534C2.85719 28.831 3.6658 28.9869 4.46705 28.9011C5.26831 28.8153 6.02554 28.4916 6.64129 27.9718C7.25704 27.4519 7.70312 26.7597 7.92212 25.9842C8.14113 25.2087 8.12303 24.3854 7.87016 23.6202C7.6747 23.0557 7.59522 22.4576 7.63645 21.8616C7.67769 21.2656 7.83881 20.6841 8.11015 20.1519L14.0604 8.77889C14.2907 8.34715 14.6196 7.97582 15.0204 7.69505C15.4539 7.91565 15.8292 8.23555 16.1156 8.6287L18.5062 11.9091C19.0263 12.646 19.3245 13.5164 19.3655 14.4174C19.3944 14.8915 19.553 15.3485 19.8238 15.7387L19.828 15.7428C19.8409 15.7603 19.8496 15.7779 19.8631 15.7944C19.8806 15.8207 19.9069 15.846 19.924 15.8729C19.9493 15.9081 19.977 15.9416 20.0071 15.973C20.0325 16.0041 20.0603 16.0333 20.0902 16.0602C20.1206 16.0953 20.1557 16.1257 20.1903 16.1603C20.2202 16.1903 20.2523 16.2181 20.2863 16.2434C20.3038 16.261 20.3214 16.2739 20.3379 16.2914C20.3514 16.303 20.3661 16.3132 20.3818 16.3219C20.4256 16.3523 20.469 16.3874 20.5128 16.4137C20.5433 16.4354 20.5737 16.4576 20.6047 16.4746C20.6486 16.501 20.6919 16.5262 20.7312 16.549C20.7704 16.5717 20.8055 16.5882 20.8401 16.6057C20.8746 16.6233 20.9185 16.6408 20.9536 16.6573C20.9975 16.6749 21.0408 16.6924 21.0888 16.709C21.1239 16.7219 21.1544 16.7306 21.189 16.744C21.237 16.7616 21.2891 16.7745 21.3371 16.7879C21.3675 16.7967 21.4026 16.8008 21.4331 16.8096C21.4847 16.8184 21.5363 16.8313 21.5879 16.84L21.6911 16.8529L21.8351 16.8659H22.088L22.232 16.8529L22.3352 16.84C22.3869 16.8313 22.4385 16.8225 22.4901 16.8096C22.5205 16.8008 22.5556 16.7967 22.5861 16.7879C22.6362 16.7759 22.6856 16.7613 22.7342 16.744C22.7684 16.735 22.8019 16.7232 22.8343 16.709C22.8782 16.6914 22.9215 16.6739 22.9695 16.6573C23.0088 16.6398 23.048 16.6222 23.0831 16.6057C23.1182 16.5892 23.1574 16.5665 23.192 16.549C23.2356 16.5268 23.2778 16.502 23.3184 16.4746C23.3489 16.4571 23.3793 16.4354 23.4103 16.4137L23.5414 16.3219C23.555 16.3103 23.5697 16.3001 23.5853 16.2914C23.6035 16.2766 23.6208 16.2606 23.6369 16.2434L23.7329 16.1603C23.768 16.1299 23.7984 16.0948 23.833 16.0602C23.8593 16.0297 23.8898 16.0034 23.9161 15.973C23.9424 15.9425 23.9729 15.9074 23.9992 15.8729C24.0219 15.8486 24.0422 15.8224 24.0601 15.7944C24.073 15.7769 24.0818 15.7593 24.0952 15.7428L24.0993 15.7387C24.369 15.3478 24.5275 14.8909 24.5576 14.4169C24.5972 13.5156 24.8955 12.6448 25.4169 11.9086L27.8076 8.62818C28.0952 8.23617 28.4702 7.91651 28.9028 7.69453C29.3045 7.97421 29.6336 8.3458 29.8627 8.77837L35.8115 20.1514C36.0818 20.684 36.2423 21.2654 36.2835 21.8612C36.3248 22.457 36.2458 23.055 36.0514 23.6197C35.8436 24.2527 35.7955 24.9272 35.9115 25.5833C36.0275 26.2393 36.304 26.8565 36.7163 27.3797C37.1286 27.903 37.664 28.3162 38.2747 28.5825C38.8854 28.8487 39.5525 28.9598 40.2165 28.9057C40.8805 28.8517 41.5209 28.6343 42.0805 28.2728C42.6401 27.9113 43.1016 27.417 43.4239 26.8339C43.7462 26.2508 43.9193 25.5971 43.9277 24.9309C43.9361 24.2648 43.7796 23.6069 43.4721 23.0159ZM4.14434 27.4658C3.65171 27.4658 3.17015 27.3197 2.76055 27.046C2.35094 26.7723 2.0317 26.3833 1.84318 25.9282C1.65466 25.4731 1.60533 24.9722 1.70144 24.4891C1.79755 24.0059 2.03477 23.5621 2.38311 23.2138C2.73145 22.8654 3.17526 22.6282 3.65842 22.5321C4.14158 22.436 4.64238 22.4853 5.09751 22.6739C5.55264 22.8624 5.94164 23.1816 6.21533 23.5912C6.48902 24.0008 6.6351 24.4824 6.6351 24.975C6.63387 25.6349 6.37104 26.2674 5.90424 26.7338C5.43744 27.2002 4.80474 27.4625 4.14486 27.4632L4.14434 27.4658ZM39.9295 27.4658C39.4369 27.4658 38.9553 27.3197 38.5457 27.046C38.1361 26.7723 37.8169 26.3833 37.6283 25.9282C37.4398 25.4731 37.3905 24.9722 37.4866 24.4891C37.5827 24.0059 37.8199 23.5621 38.1683 23.2138C38.5166 22.8654 38.9604 22.6282 39.4436 22.5321C39.9268 22.436 40.4276 22.4853 40.8827 22.6739C41.3378 22.8624 41.7268 23.1816 42.0005 23.5912C42.2742 24.0008 42.4203 24.4824 42.4203 24.975C42.419 25.635 42.1561 26.2675 41.6892 26.734C41.2223 27.2004 40.5895 27.4626 39.9295 27.4632V27.4658ZM18.436 19.2998H17.6288C17.5307 19.2997 17.4335 19.3189 17.3429 19.3564C17.2522 19.3939 17.1698 19.4489 17.1004 19.5183C17.0311 19.5876 16.976 19.67 16.9386 19.7607C16.9011 19.8514 16.8819 19.9485 16.882 20.0467V28.1739C16.882 28.3717 16.9606 28.5614 17.1004 28.7012C17.2403 28.8411 17.43 28.9197 17.6278 28.9197H18.435C18.6328 28.9197 18.8225 28.8411 18.9623 28.7012C19.1022 28.5614 19.1808 28.3717 19.1808 28.1739V20.0467C19.1813 19.9486 19.1624 19.8514 19.1252 19.7607C19.088 19.67 19.0332 19.5875 18.964 19.5181C18.8947 19.4487 18.8124 19.3936 18.7218 19.3562C18.6312 19.3187 18.5341 19.2996 18.436 19.2998ZM22.5933 23.6491H21.7851C21.5873 23.6491 21.3976 23.7277 21.2577 23.8676C21.1179 24.0074 21.0393 24.1971 21.0393 24.3949V28.1728C21.0391 28.2709 21.0582 28.3681 21.0956 28.4587C21.133 28.5494 21.1879 28.6318 21.2572 28.7012C21.3264 28.7706 21.4087 28.8257 21.4993 28.8633C21.5899 28.9008 21.687 28.9202 21.7851 28.9202H22.5923C22.7901 28.9202 22.9798 28.8416 23.1196 28.7017C23.2595 28.5619 23.338 28.3722 23.338 28.1744V24.3965C23.3375 24.199 23.2589 24.0097 23.1194 23.8699C22.9799 23.7301 22.7908 23.6511 22.5933 23.6502V23.6491ZM30.9027 17.6421H30.0945C29.8967 17.6421 29.707 17.7207 29.5671 17.8605C29.4273 18.0004 29.3487 18.1901 29.3487 18.3879V28.1739C29.3486 28.2719 29.3679 28.3689 29.4053 28.4594C29.4428 28.55 29.4977 28.6323 29.5669 28.7016C29.6362 28.7709 29.7184 28.8258 29.809 28.8634C29.8995 28.9009 29.9965 28.9202 30.0945 28.9202H30.9017C31.0995 28.9202 31.2892 28.8416 31.429 28.7017C31.5689 28.5619 31.6475 28.3722 31.6475 28.1744V18.3889C31.6468 18.1917 31.5683 18.0027 31.429 17.863C31.2897 17.7234 31.101 17.6443 30.9037 17.6431L30.9027 17.6421ZM26.7454 21.372H25.9393C25.8411 21.3718 25.7438 21.3909 25.653 21.4283C25.5622 21.4657 25.4797 21.5207 25.4102 21.5901C25.3407 21.6595 25.2856 21.7419 25.2481 21.8327C25.2105 21.9234 25.1913 22.0206 25.1914 22.1188V28.1739C25.1914 28.3717 25.27 28.5614 25.4098 28.7012C25.5497 28.8411 25.7394 28.9197 25.9372 28.9197H26.7444C26.9422 28.9197 27.1319 28.8411 27.2717 28.7012C27.4116 28.5614 27.4902 28.3717 27.4902 28.1739V22.1188C27.4909 22.0209 27.4722 21.9237 27.4351 21.833C27.3981 21.7424 27.3433 21.6599 27.2741 21.5906C27.205 21.5212 27.1227 21.4662 27.0321 21.4289C26.9415 21.3916 26.8444 21.3726 26.7465 21.3731L26.7454 21.372ZM14.2818 21.7849H13.4757C13.2779 21.7849 13.0882 21.8635 12.9483 22.0034C12.8084 22.1432 12.7299 22.3329 12.7299 22.5307V28.1739C12.7298 28.2719 12.749 28.3689 12.7865 28.4594C12.8239 28.55 12.8789 28.6323 12.9481 28.7016C13.0174 28.7709 13.0996 28.8258 13.1901 28.8634C13.2807 28.9009 13.3777 28.9202 13.4757 28.9202H14.2829C14.4806 28.9202 14.6703 28.8416 14.8102 28.7017C14.9501 28.5619 15.0286 28.3722 15.0286 28.1744V22.5333C15.029 22.4352 15.01 22.3381 14.9727 22.2474C14.9354 22.1567 14.8804 22.0744 14.8111 22.005C14.7418 21.9357 14.6594 21.8808 14.5687 21.8434C14.4781 21.8061 14.3809 21.7871 14.2829 21.7875L14.2818 21.7849Z" fill="url(#paint0_linear_1_12470)"/>
<path d="M62.8936 27.1314V20.4044H64.7304C65.0583 20.4014 65.3848 20.4484 65.6986 20.5438C65.9772 20.6282 66.2356 20.7687 66.4578 20.9567C66.6713 21.1393 66.8412 21.3673 66.9554 21.624C67.0771 21.9092 67.1366 22.2172 67.1298 22.5272C67.1306 22.7133 67.1115 22.8989 67.073 23.081C67.0351 23.2636 66.975 23.441 66.8939 23.609C66.8093 23.7796 66.7022 23.938 66.5755 24.0802C66.44 24.2278 66.2807 24.3516 66.1043 24.4466C66.3531 24.8347 66.6204 25.2667 66.9115 25.7421C67.2026 26.2174 67.4962 26.6757 67.7925 27.1294H66.5755C66.4532 26.9374 66.3226 26.7366 66.1915 26.5276C66.0604 26.3186 65.9252 26.109 65.7946 25.8995C65.664 25.6899 65.533 25.4892 65.4065 25.2889C65.2801 25.0887 65.1624 24.9008 65.0488 24.7264H63.9134V27.1299H62.8936V27.1314ZM63.9144 23.7726H64.8347C65.0481 23.7792 65.2602 23.7359 65.454 23.6461C65.6063 23.5734 65.7405 23.4676 65.8468 23.3365C65.9409 23.219 66.011 23.0841 66.0532 22.9396C66.0906 22.8135 66.1111 22.683 66.1141 22.5515C66.1114 22.4213 66.0909 22.2921 66.0532 22.1675C66.0124 22.0244 65.9409 21.892 65.8437 21.7794C65.7361 21.6517 65.6021 21.549 65.4509 21.4785C65.2605 21.3926 65.0532 21.3508 64.8445 21.3561H63.9155L63.9144 23.7726Z" fill="black"/>
<path d="M76.1426 27.1318V20.4048H80.5574V21.325H77.1634V23.2924H80.1868V24.2302H77.1634V26.1976H80.6885V27.1354H76.1426V27.1318Z" fill="black"/>
<path d="M89.291 27.1314V20.4044H91.1279C91.4558 20.4014 91.7823 20.4484 92.0961 20.5438C92.3747 20.6282 92.633 20.7687 92.8553 20.9567C93.0687 21.1393 93.2387 21.3673 93.3528 21.624C93.4745 21.9092 93.534 22.2172 93.5273 22.5272C93.5275 22.7965 93.4863 23.0643 93.405 23.321C93.3266 23.5811 93.1943 23.8219 93.0168 24.0275C92.8221 24.2469 92.5807 24.4197 92.3103 24.5333C91.9761 24.6726 91.6162 24.7394 91.2543 24.7295H90.3078V27.133H89.291V27.1314ZM90.3072 23.7726H91.2275C91.4415 23.78 91.6541 23.735 91.8468 23.6415C91.9985 23.5656 92.1323 23.4585 92.2396 23.3272C92.3337 23.2097 92.4038 23.0748 92.446 22.9303C92.4827 22.807 92.5032 22.6795 92.5069 22.5509C92.5042 22.4208 92.4837 22.2916 92.446 22.167C92.4052 22.0239 92.3337 21.8914 92.2365 21.7788C92.129 21.6512 91.9949 21.5485 91.8437 21.478C91.6533 21.3921 91.446 21.3503 91.2373 21.3556H90.3083L90.3072 23.7726Z" fill="black"/>
<path d="M101.593 23.7722C101.592 23.3178 101.684 22.868 101.863 22.4505C102.036 22.0399 102.286 21.6667 102.6 21.3511C102.914 21.0368 103.284 20.7838 103.691 20.6054C104.112 20.4241 104.565 20.3306 105.024 20.3306C105.482 20.3306 105.935 20.4241 106.356 20.6054C107.182 20.9628 107.839 21.6231 108.193 22.4505C108.374 22.8699 108.467 23.322 108.467 23.7789C108.467 24.2359 108.374 24.688 108.193 25.1074C108.014 25.5132 107.763 25.8828 107.451 26.1979C107.137 26.5121 106.765 26.7624 106.356 26.935C105.934 27.1134 105.481 27.2054 105.023 27.2054C104.565 27.2054 104.112 27.1134 103.69 26.935C102.868 26.584 102.213 25.9291 101.862 25.1069C101.68 24.6859 101.588 24.2311 101.593 23.7722ZM102.601 23.781C102.6 24.4342 102.857 25.0614 103.316 25.526C103.541 25.7491 103.806 25.9282 104.097 26.054C104.395 26.1852 104.718 26.2521 105.044 26.2501C105.368 26.2525 105.69 26.1857 105.986 26.054C106.275 25.9272 106.537 25.7482 106.76 25.526C107.218 25.057 107.474 24.4268 107.471 23.7712C107.472 23.118 107.215 22.4908 106.756 22.0262C106.533 21.8034 106.271 21.6244 105.982 21.4982C105.685 21.3665 105.364 21.2996 105.04 21.3021C104.714 21.3001 104.391 21.367 104.093 21.4982C103.804 21.6244 103.542 21.8034 103.319 22.0262C102.863 22.4964 102.608 23.1258 102.608 23.781H102.601Z" fill="black"/>
<path d="M117.066 27.1314V20.4044H118.904C119.232 20.4014 119.558 20.4484 119.872 20.5438C120.151 20.6282 120.409 20.7687 120.631 20.9567C120.845 21.1393 121.015 21.3673 121.129 21.624C121.25 21.9092 121.31 22.2172 121.303 22.5272C121.304 22.7133 121.285 22.8989 121.246 23.081C121.208 23.2636 121.148 23.441 121.067 23.609C120.983 23.7796 120.876 23.938 120.749 24.0802C120.613 24.2278 120.454 24.3516 120.278 24.4466C120.526 24.8347 120.794 25.2667 121.085 25.7421C121.376 26.2174 121.67 26.6757 121.966 27.1294H120.749C120.627 26.9374 120.496 26.7366 120.365 26.5276C120.234 26.3186 120.099 26.109 119.968 25.8995C119.837 25.6899 119.706 25.4892 119.58 25.2889C119.453 25.0887 119.336 24.9008 119.222 24.7264H118.087V27.1299H117.066V27.1314ZM118.087 23.7726H119.007C119.22 23.7792 119.433 23.7359 119.626 23.6461C119.779 23.5734 119.913 23.4676 120.019 23.3365C120.113 23.219 120.183 23.0841 120.226 22.9396C120.263 22.8135 120.283 22.683 120.286 22.5515C120.284 22.4213 120.263 22.2921 120.226 22.1675C120.185 22.0244 120.113 21.892 120.016 21.7794C119.908 21.6517 119.774 21.549 119.623 21.4785C119.433 21.3926 119.226 21.3508 119.017 21.3561H118.088V23.7731L118.087 23.7726Z" fill="black"/>
<path d="M134.084 20.4048V21.3689H132.387V27.1318H131.375V21.3689H129.713V20.4048H134.084Z" fill="black"/>
<path d="M146.552 20.7753L146.19 21.6011C145.944 21.5115 145.692 21.4372 145.436 21.3786C145.2 21.324 144.958 21.2961 144.716 21.2955C144.388 21.2783 144.062 21.362 143.782 21.5355C143.677 21.5994 143.59 21.689 143.529 21.7958C143.468 21.9026 143.435 22.0231 143.433 22.1461C143.431 22.2442 143.452 22.3415 143.495 22.4296C143.539 22.5177 143.603 22.594 143.682 22.6519C143.874 22.7915 144.082 22.9072 144.301 22.9966C144.55 23.0968 144.818 23.2031 145.109 23.3022C145.392 23.4011 145.663 23.533 145.916 23.6949C146.161 23.8531 146.372 24.0594 146.535 24.3014C146.711 24.5832 146.798 24.9117 146.784 25.2438C146.789 25.5198 146.734 25.7936 146.622 26.0464C146.513 26.2873 146.347 26.4983 146.138 26.6616C145.902 26.8467 145.63 26.9818 145.34 27.0585C144.976 27.1567 144.6 27.2036 144.223 27.1978C143.976 27.2005 143.73 27.1815 143.486 27.141C143.284 27.1105 143.086 27.0623 142.893 26.997C142.732 26.9466 142.577 26.8824 142.428 26.805C142.297 26.7354 142.184 26.6739 142.088 26.6177L142.533 25.7367C142.793 25.8847 143.07 26.0005 143.359 26.0815C143.626 26.1634 143.904 26.2075 144.184 26.2125C144.338 26.2108 144.492 26.1948 144.643 26.1645C144.824 26.1353 145 26.0809 145.166 26.003C145.328 25.9284 145.475 25.8232 145.598 25.6933C145.721 25.5592 145.785 25.382 145.777 25.2004C145.782 25.0359 145.731 24.8745 145.633 24.7421C145.529 24.6074 145.4 24.4934 145.254 24.4061C145.083 24.3034 144.903 24.2159 144.717 24.1445C144.516 24.066 144.311 23.9896 144.102 23.9045C143.892 23.8193 143.689 23.7342 143.487 23.6382C143.292 23.5508 143.112 23.4363 142.95 23.2981C142.795 23.1684 142.667 23.0108 142.57 22.8336C142.469 22.6368 142.42 22.4177 142.426 22.1967C142.428 21.9643 142.475 21.7346 142.566 21.5206C142.66 21.2945 142.803 21.0919 142.984 20.927C143.185 20.744 143.419 20.6018 143.673 20.5085C143.981 20.3992 144.307 20.3467 144.633 20.3536C144.853 20.3526 145.072 20.3716 145.288 20.4104C145.501 20.4496 145.693 20.4889 145.868 20.5369C146.042 20.5849 146.186 20.6282 146.309 20.6721C146.438 20.7273 146.517 20.7578 146.552 20.7753Z" fill="black"/>
<defs>
<linearGradient id="paint0_linear_1_12470" x1="48.4762" y1="8.13001" x2="5.35235" y2="36.9366" gradientUnits="userSpaceOnUse">
<stop stop-color="#4AF2C8"/>
<stop offset="1" stop-color="#2F4CB3"/>
</linearGradient>
</defs>
</svg>
