<svg width="15" height="15" viewBox="0 0 15 15" fill="none" xmlns="http://www.w3.org/2000/svg">
<path d="M9.99967 6.00016C11.1042 6.00016 11.9997 5.10473 11.9997 4.00016C11.9997 2.89559 11.1042 2.00016 9.99967 2.00016M11.9997 9.3335C13.1692 9.58996 13.9997 10.2395 13.9997 11.0002C13.9997 11.6864 13.3239 12.2821 12.333 12.5805M8.66634 4.00016C8.66634 5.47292 7.47243 6.66683 5.99967 6.66683C4.52692 6.66683 3.33301 5.47292 3.33301 4.00016C3.33301 2.5274 4.52692 1.3335 5.99967 1.3335C7.47243 1.3335 8.66634 2.5274 8.66634 4.00016ZM10.6663 11.3335C10.6663 12.8063 8.577 14.0002 5.99967 14.0002C3.42235 14.0002 1.33301 12.8063 1.33301 11.3335C1.33301 9.86074 3.42235 8.66683 5.99967 8.66683C8.577 8.66683 10.6663 9.86074 10.6663 11.3335Z" stroke="white" stroke-width="1.5" stroke-linecap="round"/>
</svg>
