<svg width="60" height="60" viewBox="0 0 60 60" fill="none" xmlns="http://www.w3.org/2000/svg">
<rect x="1.5" y="1.5" width="57" height="57" rx="28.5" fill="url(#paint0_linear_1_10990)"/>
<rect x="1.5" y="1.5" width="57" height="57" rx="28.5" stroke="url(#paint1_linear_1_10990)" stroke-width="3"/>
<g clip-path="url(#clip0_1_10990)">
<mask id="mask0_1_10990" style="mask-type:luminance" maskUnits="userSpaceOnUse" x="18" y="18" width="24" height="24">
<path d="M42 18H18V42H42V18Z" fill="white"/>
</mask>
<g mask="url(#mask0_1_10990)">
<mask id="mask1_1_10990" style="mask-type:luminance" maskUnits="userSpaceOnUse" x="18" y="18" width="24" height="24">
<path d="M18 18H42V42H18V18Z" fill="white"/>
</mask>
<g mask="url(#mask1_1_10990)">
<path d="M32.636 39.0807C32.7057 39.3268 31.9787 40.8258 31.8525 41.0625H28.1472C28.021 40.8258 27.294 39.3268 27.3637 39.0807L23.4538 36.8234C23.2756 37.0067 21.6139 37.1266 21.3458 37.1357L19.4932 33.9269C19.6351 33.6991 20.5697 32.32 20.8177 32.2574V27.7426C20.5697 27.68 19.6351 26.3009 19.4932 26.0732L21.3458 22.8644C21.6139 22.8734 23.2756 22.9933 23.4538 23.1767L27.3637 20.9193C27.294 20.6733 28.021 19.1743 28.1472 18.9375H31.8525C31.9787 19.1743 32.7057 20.6733 32.636 20.9193L36.5459 23.1767C36.7241 22.9933 38.3858 22.8734 38.654 22.8644L40.5066 26.0732C40.3646 26.3009 39.4299 27.68 39.182 27.7426V32.2574C39.4299 32.32 40.3646 33.6991 40.5066 33.9269L38.654 37.1357C38.3858 37.1266 36.7241 37.0067 36.5459 36.8234L32.636 39.0807Z" stroke="#F2F6FA" stroke-width="2.3" stroke-miterlimit="10" stroke-linecap="round" stroke-linejoin="round"/>
<path d="M34.9184 30C34.9184 27.2827 32.7156 25.0799 29.9983 25.0799C27.2809 25.0799 25.0781 27.2827 25.0781 30C25.0781 32.7174 27.2809 34.9202 29.9983 34.9202" stroke="#F2F6FA" stroke-width="2.3" stroke-miterlimit="10" stroke-linecap="round" stroke-linejoin="round"/>
</g>
</g>
</g>
<defs>
<linearGradient id="paint0_linear_1_10990" x1="0" y1="0" x2="60" y2="60" gradientUnits="userSpaceOnUse">
<stop stop-color="#3245FF" stop-opacity="0.25"/>
<stop offset="1" stop-color="#3245FF" stop-opacity="0"/>
</linearGradient>
<linearGradient id="paint1_linear_1_10990" x1="-0.614007" y1="42.4236" x2="61.4063" y2="40.257" gradientUnits="userSpaceOnUse">
<stop stop-color="#3245FF"/>
<stop offset="1" stop-color="#B845ED"/>
</linearGradient>
<clipPath id="clip0_1_10990">
<rect width="24" height="24" fill="white" transform="translate(18 18)"/>
</clipPath>
</defs>
</svg>
