<svg width="60" height="60" viewBox="0 0 60 60" fill="none" xmlns="http://www.w3.org/2000/svg">
<rect x="1.5" y="1.5" width="57" height="57" rx="28.5" fill="url(#paint0_linear_1_11060)"/>
<rect x="1.5" y="1.5" width="57" height="57" rx="28.5" stroke="url(#paint1_linear_1_11060)" stroke-width="3"/>
<path fill-rule="evenodd" clip-rule="evenodd" d="M32.2402 24.5C32.2402 23.2525 33.2593 22.25 34.4902 22.25H36.5003C37.7445 22.25 38.7503 23.2558 38.7503 24.5V31.51C38.7503 32.7575 37.7312 33.76 36.5003 33.76H34.4902C33.246 33.76 32.2402 32.7542 32.2402 31.51V24.5ZM34.4902 23.75C34.0812 23.75 33.7402 24.0875 33.7402 24.5V31.51C33.7402 31.9258 34.0745 32.26 34.4902 32.26H36.5003C36.9093 32.26 37.2503 31.9225 37.2503 31.51V24.5C37.2503 24.0842 36.916 23.75 36.5003 23.75H34.4902Z" fill="white"/>
<path fill-rule="evenodd" clip-rule="evenodd" d="M21.2402 28.5C21.2402 27.2525 22.2593 26.25 23.4902 26.25H25.5002C26.7445 26.25 27.7502 27.2558 27.7502 28.5V35.51C27.7502 36.7575 26.7312 37.76 25.5002 37.76H23.4902C22.246 37.76 21.2402 36.7542 21.2402 35.51V28.5ZM23.4902 27.75C23.0812 27.75 22.7402 28.0874 22.7402 28.5V35.51C22.7402 35.9258 23.0744 36.26 23.4902 36.26H25.5002C25.9093 36.26 26.2502 35.9225 26.2502 35.51V28.5C26.2502 28.0842 25.916 27.75 25.5002 27.75H23.4902Z" fill="white"/>
<path fill-rule="evenodd" clip-rule="evenodd" d="M24.5 36.25C24.9142 36.25 25.25 36.5858 25.25 37V39C25.25 39.4142 24.9142 39.75 24.5 39.75C24.0858 39.75 23.75 39.4142 23.75 39V37C23.75 36.5858 24.0858 36.25 24.5 36.25Z" fill="white"/>
<path fill-rule="evenodd" clip-rule="evenodd" d="M24.5 20.25C24.9142 20.25 25.25 20.5858 25.25 21V27C25.25 27.4142 24.9142 27.75 24.5 27.75C24.0858 27.75 23.75 27.4142 23.75 27V21C23.75 20.5858 24.0858 20.25 24.5 20.25Z" fill="white"/>
<path fill-rule="evenodd" clip-rule="evenodd" d="M35.5 32.25C35.9142 32.25 36.25 32.5858 36.25 33V39C36.25 39.4142 35.9142 39.75 35.5 39.75C35.0858 39.75 34.75 39.4142 34.75 39V33C34.75 32.5858 35.0858 32.25 35.5 32.25Z" fill="white"/>
<path fill-rule="evenodd" clip-rule="evenodd" d="M35.5 20.25C35.9142 20.25 36.25 20.5858 36.25 21V23C36.25 23.4142 35.9142 23.75 35.5 23.75C35.0858 23.75 34.75 23.4142 34.75 23V21C34.75 20.5858 35.0858 20.25 35.5 20.25Z" fill="white"/>
<defs>
<linearGradient id="paint0_linear_1_11060" x1="0" y1="0" x2="60" y2="60" gradientUnits="userSpaceOnUse">
<stop stop-color="#41B883" stop-opacity="0.25"/>
<stop offset="1" stop-color="#41B883" stop-opacity="0"/>
</linearGradient>
<linearGradient id="paint1_linear_1_11060" x1="-0.614007" y1="42.4236" x2="61.4063" y2="40.257" gradientUnits="userSpaceOnUse">
<stop stop-color="#41B883"/>
<stop offset="1" stop-color="#07FF91"/>
</linearGradient>
</defs>
</svg>
