<svg width="60" height="60" viewBox="0 0 60 60" fill="none" xmlns="http://www.w3.org/2000/svg">
<rect x="1.5" y="1.5" width="57" height="57" rx="28.5" fill="url(#paint0_linear_1_11010)"/>
<rect x="1.5" y="1.5" width="57" height="57" rx="28.5" stroke="url(#paint1_linear_1_11010)" stroke-width="3"/>
<g clip-path="url(#clip0_1_11010)">
<path d="M27.9493 36.2928L25.1213 39.1208C23.9489 40.2932 22.0502 40.2932 20.8788 39.121C19.7071 37.9493 19.7071 36.0505 20.8785 34.879L26.5355 29.2221C27.7069 28.0506 29.6058 28.0506 30.7772 29.2221C31.1677 29.6126 31.8009 29.6126 32.1914 29.2221C32.5819 28.8316 32.5819 28.1984 32.1914 27.8079C30.2389 25.8554 27.0738 25.8554 25.1213 27.8079L19.4644 33.4648C17.5119 35.4173 17.5119 38.5824 19.4644 40.535C21.4167 42.4885 24.582 42.4885 26.5355 40.535L29.3635 37.707C29.754 37.3165 29.754 36.6833 29.3635 36.2928C28.973 35.9023 28.3398 35.9023 27.9493 36.2928Z" fill="white"/>
<path d="M40.5351 26.535C42.4876 24.5825 42.4876 21.4174 40.5351 19.4649C38.5827 17.5124 35.4177 17.5124 33.4642 19.4646L30.071 22.8578C29.6805 23.2483 29.6805 23.8815 30.071 24.272C30.4615 24.6625 31.0947 24.6625 31.4852 24.272L34.8782 20.8791C36.0504 19.7076 37.9494 19.7076 39.1209 20.8791C40.2924 22.0505 40.2924 23.9493 39.1209 25.1208L32.899 31.3427C31.7275 32.5142 29.8287 32.5142 28.6573 31.3427C28.2668 30.9522 27.6336 30.9522 27.2431 31.3427C26.8526 31.7332 26.8526 32.3664 27.2431 32.7569C29.1956 34.7094 32.3607 34.7094 34.3132 32.7569L40.5351 26.535Z" fill="white"/>
<path d="M36.7071 35.2931C36.3166 34.9026 35.6834 34.9026 35.2929 35.2931C34.9024 35.6836 34.9024 36.3168 35.2929 36.7073L38.2919 39.7063C38.6824 40.0968 39.3156 40.0968 39.7061 39.7063C40.0966 39.3158 40.0966 38.6826 39.7061 38.2921L36.7071 35.2931Z" fill="white"/>
<path d="M23.2939 24.7083C23.6844 25.0988 24.3176 25.0988 24.7081 24.7083C25.0986 24.3178 25.0986 23.6846 24.7081 23.2941L21.7061 20.2922C21.3156 19.9016 20.6824 19.9016 20.2919 20.2922C19.9014 20.6827 19.9014 21.3158 20.2919 21.7064L23.2939 24.7083Z" fill="white"/>
<path d="M40.9999 32.9998H38C37.4477 32.9998 37 33.4475 37 33.9997C37 34.552 37.4477 34.9997 38 34.9997H40.9999C41.5522 34.9997 41.9999 34.552 41.9999 33.9997C41.9999 33.4475 41.5522 32.9998 40.9999 32.9998Z" fill="white"/>
<path d="M26 23C26.5522 23 26.9999 22.5523 26.9999 22V19C26.9999 18.4477 26.5522 18 26 18C25.4477 18 25 18.4477 25 19V21.9999C25 22.5522 25.4477 23 26 23Z" fill="white"/>
<path d="M19 26.9999H21.9999C22.5522 26.9999 22.9999 26.5522 22.9999 26C22.9999 25.4477 22.5522 25 21.9999 25H19C18.4477 25 18 25.4477 18 26C18 26.5522 18.4477 26.9999 19 26.9999Z" fill="white"/>
<path d="M34 36.9998C33.4477 36.9998 33 37.4475 33 37.9997V40.9997C33 41.552 33.4477 41.9997 34 41.9997C34.5522 41.9997 34.9999 41.552 34.9999 40.9997V37.9997C35 37.4475 34.5522 36.9998 34 36.9998Z" fill="white"/>
</g>
<defs>
<linearGradient id="paint0_linear_1_11010" x1="0" y1="0" x2="60" y2="60" gradientUnits="userSpaceOnUse">
<stop stop-color="#FF3E00" stop-opacity="0.25"/>
<stop offset="1" stop-color="#FF3E00" stop-opacity="0"/>
</linearGradient>
<linearGradient id="paint1_linear_1_11010" x1="-0.614007" y1="42.4236" x2="61.4063" y2="40.257" gradientUnits="userSpaceOnUse">
<stop stop-color="#F9DB32"/>
<stop offset="1" stop-color="#FF3E00"/>
</linearGradient>
<clipPath id="clip0_1_11010">
<rect width="24" height="24" fill="white" transform="translate(18 18)"/>
</clipPath>
</defs>
</svg>
