<svg width="60" height="60" viewBox="0 0 60 60" fill="none" xmlns="http://www.w3.org/2000/svg">
<rect x="1.5" y="1.5" width="57" height="57" rx="28.5" fill="url(#paint0_linear_1_10969)"/>
<rect x="1.5" y="1.5" width="57" height="57" rx="28.5" stroke="url(#paint1_linear_1_10969)" stroke-width="3"/>
<path d="M37 19H23C21.6744 19.0016 20.4035 19.5288 19.4662 20.4662C18.5288 21.4035 18.0016 22.6744 18 24V32C18.0016 33.3256 18.5288 34.5965 19.4662 35.5338C20.4035 36.4712 21.6744 36.9984 23 37H29V39H25C24.7348 39 24.4804 39.1054 24.2929 39.2929C24.1054 39.4804 24 39.7348 24 40C24 40.2652 24.1054 40.5196 24.2929 40.7071C24.4804 40.8946 24.7348 41 25 41H35C35.2652 41 35.5196 40.8946 35.7071 40.7071C35.8946 40.5196 36 40.2652 36 40C36 39.7348 35.8946 39.4804 35.7071 39.2929C35.5196 39.1054 35.2652 39 35 39H31V37H37C38.3256 36.9984 39.5965 36.4712 40.5338 35.5338C41.4712 34.5965 41.9984 33.3256 42 32V24C41.9984 22.6744 41.4712 21.4035 40.5338 20.4662C39.5965 19.5288 38.3256 19.0016 37 19ZM40 32C39.9991 32.7954 39.6828 33.5579 39.1204 34.1204C38.5579 34.6828 37.7954 34.9991 37 35H23C22.2046 34.9991 21.4421 34.6828 20.8796 34.1204C20.3172 33.5579 20.0009 32.7954 20 32V24C20.0009 23.2046 20.3172 22.4421 20.8796 21.8796C21.4421 21.3172 22.2046 21.0009 23 21H37C37.7954 21.0009 38.5579 21.3172 39.1204 21.8796C39.6828 22.4421 39.9991 23.2046 40 24V32Z" fill="white"/>
<path d="M38 30H22C21.7348 30 21.4804 30.1054 21.2929 30.2929C21.1054 30.4804 21 30.7348 21 31C21 31.2652 21.1054 31.5196 21.2929 31.7071C21.4804 31.8946 21.7348 32 22 32H38C38.2652 32 38.5196 31.8946 38.7071 31.7071C38.8946 31.5196 39 31.2652 39 31C39 30.7348 38.8946 30.4804 38.7071 30.2929C38.5196 30.1054 38.2652 30 38 30Z" fill="white"/>
<defs>
<linearGradient id="paint0_linear_1_10969" x1="0" y1="0" x2="60" y2="60" gradientUnits="userSpaceOnUse">
<stop stop-color="#D83333" stop-opacity="0.2"/>
<stop offset="1" stop-color="#F041FF" stop-opacity="0.2"/>
</linearGradient>
<linearGradient id="paint1_linear_1_10969" x1="-6.20632" y1="45.5405" x2="66.2063" y2="14.4595" gradientUnits="userSpaceOnUse">
<stop stop-color="#D83333"/>
<stop offset="1" stop-color="#F041FF"/>
</linearGradient>
</defs>
</svg>
