<svg width="71" height="70" viewBox="0 0 71 70" fill="none" xmlns="http://www.w3.org/2000/svg">
<rect x="1.75" y="1.5" width="67" height="67" rx="33.5" fill="url(#paint0_linear_1_11769)"/>
<rect x="1.75" y="1.5" width="67" height="67" rx="33.5" stroke="url(#paint1_linear_1_11769)" stroke-width="3"/>
<g clip-path="url(#clip0_1_11769)">
<path d="M34.1771 48.0001C33.8221 47.9988 33.4717 47.9204 33.1501 47.7704C32.6247 47.5364 32.2027 47.1188 31.9633 46.5958C31.724 46.0728 31.6837 45.4805 31.8501 44.9299L33.5412 39.3334H29.5567C29.049 39.334 28.5483 39.2157 28.0946 38.9879C27.6409 38.7602 27.2469 38.4293 26.9441 38.0218C26.6413 37.6144 26.4382 37.1416 26.351 36.6415C26.2638 36.1414 26.295 35.6279 26.4421 35.142L29.7181 24.3086C29.9178 23.6386 30.3294 23.0513 30.8912 22.6351C31.4529 22.2188 32.1346 21.996 32.8337 22.0001H36.8345C37.2892 22.0004 37.7371 22.1109 38.1399 22.322C38.5426 22.5332 38.8883 22.8387 39.1473 23.2124C39.4063 23.5862 39.5709 24.0171 39.6272 24.4683C39.6834 24.9196 39.6296 25.3777 39.4702 25.8036L37.647 30.6667H40.4171C41.0075 30.6667 41.5869 30.8275 42.0928 31.1319C42.5988 31.4363 43.0123 31.8728 43.2888 32.3945C43.5654 32.9162 43.6946 33.5034 43.6625 34.093C43.6305 34.6826 43.4384 35.2524 43.107 35.7411L36.1737 46.8994C35.9593 47.2351 35.6643 47.5117 35.3155 47.7039C34.9667 47.8962 34.5753 47.998 34.1771 48.0001ZM32.8337 24.1667C32.6011 24.1665 32.3745 24.2412 32.1876 24.3797C32.0007 24.5182 31.8634 24.7132 31.7959 24.9359L28.5199 35.7692C28.4709 35.9311 28.4604 36.1022 28.4893 36.2688C28.5183 36.4355 28.5859 36.593 28.6866 36.7288C28.7874 36.8647 28.9186 36.975 29.0697 37.0511C29.2207 37.1271 29.3875 37.1667 29.5567 37.1667H35.0004C35.1695 37.1667 35.3363 37.2063 35.4874 37.2824C35.6385 37.3584 35.7697 37.4688 35.8704 37.6046C35.9712 37.7404 36.0388 37.898 36.0677 38.0646C36.0967 38.2313 36.0862 38.4024 36.0372 38.5642L33.9279 45.5431C33.9182 45.5687 33.9138 45.5962 33.9152 45.6236C33.9166 45.651 33.9237 45.6779 33.9361 45.7024C33.9484 45.727 33.9657 45.7487 33.9868 45.7662C34.008 45.7837 34.0326 45.7966 34.059 45.8041C34.0829 45.8195 34.1098 45.8297 34.138 45.834C34.1661 45.8383 34.1948 45.8367 34.2222 45.8292C34.2497 45.8218 34.2753 45.8087 34.2974 45.7907C34.3194 45.7728 34.3375 45.7504 34.3504 45.7251L41.2837 34.5667C41.405 34.4023 41.4773 34.2069 41.4922 34.0031C41.5072 33.7994 41.4642 33.5955 41.3682 33.4151C41.2793 33.2394 41.1433 33.0919 40.9753 32.9892C40.8073 32.8864 40.614 32.8325 40.4171 32.8334H36.0837C35.9086 32.8335 35.7361 32.7912 35.581 32.71C35.4258 32.6289 35.2927 32.5113 35.1929 32.3675C35.0931 32.2236 35.0297 32.0577 35.008 31.8839C34.9864 31.7102 35.0072 31.5338 35.0687 31.3698L37.4412 25.0431C37.4776 24.945 37.4898 24.8396 37.4768 24.7358C37.4638 24.632 37.4259 24.5328 37.3663 24.4468C37.3068 24.3607 37.2273 24.2903 37.1347 24.2416C37.0421 24.1928 36.9391 24.1671 36.8345 24.1667H32.8337Z" fill="#F2F6FA"/>
</g>
<defs>
<linearGradient id="paint0_linear_1_11769" x1="0.25" y1="0" x2="70.25" y2="70" gradientUnits="userSpaceOnUse">
<stop stop-color="#3245FF" stop-opacity="0.25"/>
<stop offset="1" stop-color="#3245FF" stop-opacity="0"/>
</linearGradient>
<linearGradient id="paint1_linear_1_11769" x1="-0.466342" y1="49.4943" x2="71.8907" y2="46.9666" gradientUnits="userSpaceOnUse">
<stop stop-color="#3245FF"/>
<stop offset="1" stop-color="#B845ED"/>
</linearGradient>
<clipPath id="clip0_1_11769">
<rect width="26" height="26" fill="white" transform="translate(22 22)"/>
</clipPath>
</defs>
</svg>
