<svg width="60" height="60" viewBox="0 0 60 60" fill="none" xmlns="http://www.w3.org/2000/svg">
<rect x="1.5" y="1.5" width="57" height="57" rx="28.5" fill="url(#paint0_linear_1_10977)"/>
<rect x="1.5" y="1.5" width="57" height="57" rx="28.5" stroke="url(#paint1_linear_1_10977)" stroke-width="3"/>
<g clip-path="url(#clip0_1_10977)">
<path d="M36.3674 20.2908L38.913 22.4137C39.0883 22.5599 39.3012 22.6312 39.5129 22.6312C39.7815 22.6312 40.048 22.5165 40.2334 22.2941C40.565 21.8965 40.5115 21.3053 40.1138 20.9737L37.5682 18.8508C37.1707 18.5192 36.5794 18.5727 36.2478 18.9704C35.9162 19.3681 35.9697 19.9592 36.3674 20.2908Z" fill="white"/>
<path d="M20.4869 22.6311C20.6986 22.6311 20.9115 22.5598 21.0868 22.4136L23.6323 20.2908C24.03 19.9592 24.0836 19.368 23.752 18.9704C23.4204 18.5728 22.8292 18.5192 22.4315 18.8508L19.886 20.9736C19.4883 21.3052 19.4347 21.8964 19.7663 22.2941C19.9518 22.5164 20.2183 22.6311 20.4869 22.6311Z" fill="white"/>
<path d="M37.8224 23.1151C35.9555 21.2483 33.5388 20.1316 30.9375 19.9147V18.9375C30.9375 18.4197 30.5178 18 30 18C29.4822 18 29.0625 18.4197 29.0625 18.9375V19.9147C26.4612 20.1316 24.0445 21.2483 22.1776 23.1151C20.0882 25.2045 18.9375 27.9826 18.9375 30.9375C18.9375 33.8924 20.0882 36.6705 22.1776 38.7599C24.267 40.8493 27.0451 42 30 42C32.3791 42 34.6462 41.2561 36.5561 39.8487C36.973 39.5416 37.0619 38.9547 36.7547 38.5379C36.4476 38.121 35.8606 38.0321 35.4438 38.3392C33.8584 39.5075 31.976 40.125 30 40.125C24.934 40.125 20.8125 36.0035 20.8125 30.9375C20.8125 25.8715 24.934 21.75 30 21.75C35.066 21.75 39.1875 25.8715 39.1875 30.9375C39.1875 32.4848 38.7959 34.0143 38.055 35.3604C37.8053 35.814 37.9706 36.3841 38.4242 36.6338C38.8777 36.8834 39.4479 36.7182 39.6976 36.2645C40.5905 34.6421 41.0625 32.8001 41.0625 30.9375C41.0625 27.9826 39.9118 25.2045 37.8224 23.1151Z" fill="white"/>
<path d="M34.5672 25.2937C34.1648 24.9681 33.5745 25.0302 33.2487 25.4327L30.2927 29.0854C30.1973 29.0704 30.0996 29.0624 30 29.0624C28.9661 29.0624 28.125 29.9035 28.125 30.9374C28.125 31.9713 28.9661 32.8124 30 32.8124C31.0339 32.8124 31.875 31.9713 31.875 30.9374C31.875 30.7006 31.8304 30.4741 31.7499 30.2653L34.7062 26.6122C35.0319 26.2097 34.9697 25.6194 34.5672 25.2937Z" fill="white"/>
</g>
<defs>
<linearGradient id="paint0_linear_1_10977" x1="0" y1="0" x2="60" y2="60" gradientUnits="userSpaceOnUse">
<stop stop-color="#F8E42E" stop-opacity="0.15"/>
<stop offset="1" stop-color="#FF7D54" stop-opacity="0.15"/>
</linearGradient>
<linearGradient id="paint1_linear_1_10977" x1="61.5183" y1="28.3096" x2="-1.51833" y2="31.6904" gradientUnits="userSpaceOnUse">
<stop stop-color="#F8E42E"/>
<stop offset="1" stop-color="#FF7D54"/>
</linearGradient>
<clipPath id="clip0_1_10977">
<rect width="24" height="24" fill="white" transform="translate(18 18)"/>
</clipPath>
</defs>
</svg>
