<svg width="48" height="48" viewBox="0 0 48 48" fill="none" xmlns="http://www.w3.org/2000/svg">
<path d="M48 29.6309C48 33.7664 44.6355 37.1309 40.5 37.1309H25.875V40.8694H32.4375C33.4731 40.8694 34.3125 41.7089 34.3125 42.7444C34.3125 43.78 33.4731 44.6194 32.4375 44.6194H15.5625C14.5269 44.6194 13.6875 43.78 13.6875 42.7444C13.6875 41.7089 14.5269 40.8694 15.5625 40.8694H22.125V37.1309H7.5C3.3645 37.1309 0 33.7664 0 29.6309V10.8809C0 6.74536 3.3645 3.38086 7.5 3.38086H40.5C44.6355 3.38086 48 6.74536 48 10.8809C48 11.9164 47.1606 12.7559 46.125 12.7559C45.0894 12.7559 44.25 11.9164 44.25 10.8809C44.25 8.81311 42.5677 7.13086 40.5 7.13086H7.5C5.43225 7.13086 3.75 8.81311 3.75 10.8809V29.6309C3.75 31.6986 5.43225 33.3809 7.5 33.3809H40.5C42.5677 33.3809 44.25 31.6986 44.25 29.6309C44.25 28.5953 45.0894 27.7559 46.125 27.7559C47.1606 27.7559 48 28.5953 48 29.6309ZM47.659 19.3652C48.1136 20.0119 48.1136 20.8743 47.6592 21.5211C47.5932 21.615 47.3672 21.935 47.2267 22.1118C46.5989 22.9015 45.1288 24.7505 43.0835 26.383C40.461 28.476 37.7624 29.5371 35.0625 29.5371C32.3626 29.5371 29.664 28.476 27.0415 26.383C24.9962 24.7506 23.5261 22.9016 22.8984 22.112C22.7578 21.9351 22.5318 21.6151 22.4658 21.5212C22.0114 20.8744 22.0114 20.0121 22.4659 19.3654C22.5318 19.2716 22.7578 18.9516 22.8983 18.7749C23.5262 17.9852 24.9963 16.1361 27.0415 14.5038C29.664 12.4109 32.3626 11.3496 35.0625 11.3496C37.7624 11.3496 40.461 12.4108 43.0835 14.5037C45.1288 16.1361 46.5989 17.9851 47.2266 18.7748C47.3671 18.9516 47.5931 19.2714 47.659 19.3652ZM43.7478 20.4434C40.7665 16.8964 37.8473 15.0996 35.0625 15.0996C32.2777 15.0996 29.3587 16.8964 26.3772 20.4434C29.3585 23.9902 32.2776 25.7871 35.0625 25.7871C37.8473 25.7871 40.7664 23.9904 43.7478 20.4434ZM35.1562 17.1621C33.3441 17.1621 31.875 18.6312 31.875 20.4434C31.875 22.2555 33.3441 23.7246 35.1562 23.7246C36.9684 23.7246 38.4375 22.2555 38.4375 20.4434C38.4375 18.6312 36.9684 17.1621 35.1562 17.1621Z" fill="url(#paint0_linear_1_10111)"/>
<defs>
<linearGradient id="paint0_linear_1_10111" x1="49.2147" y1="22.8383" x2="-1.16339" y2="25.9832" gradientUnits="userSpaceOnUse">
<stop stop-color="#F8E42E"/>
<stop offset="1" stop-color="#FF7D54"/>
</linearGradient>
</defs>
</svg>
