<svg width="48" height="48" viewBox="0 0 48 48" fill="none" xmlns="http://www.w3.org/2000/svg">
<path d="M39 13.5002H34.5V9.00024C34.4979 7.01175 33.7071 5.1053 32.301 3.69922C30.8949 2.29315 28.9885 1.50231 27 1.50024H9C7.01151 1.50231 5.10506 2.29315 3.69898 3.69922C2.2929 5.1053 1.50206 7.01175 1.5 9.00024V27.0002C1.50206 28.9887 2.2929 30.8952 3.69898 32.3013C5.10506 33.7073 7.01151 34.4982 9 34.5002H13.5V39.0002C13.5021 40.9887 14.2929 42.8952 15.699 44.3013C17.1051 45.7073 19.0115 46.4982 21 46.5002H39C40.9885 46.4982 42.8949 45.7073 44.301 44.3013C45.7071 42.8952 46.4979 40.9887 46.5 39.0002V21.0002C46.4979 19.0118 45.7071 17.1053 44.301 15.6992C42.8949 14.2931 40.9885 13.5023 39 13.5002ZM4.5 27.0002V9.00024C4.50135 7.80718 4.97589 6.66338 5.81951 5.81975C6.66313 4.97613 7.80694 4.50159 9 4.50024H27C28.1931 4.50159 29.3369 4.97613 30.1805 5.81975C31.0241 6.66338 31.4986 7.80718 31.5 9.00024V27.0002C31.4986 28.1933 31.0241 29.3371 30.1805 30.1807C29.3369 31.0244 28.1931 31.4989 27 31.5002H9C7.80694 31.4989 6.66313 31.0244 5.81951 30.1807C4.97589 29.3371 4.50135 28.1933 4.5 27.0002ZM43.5 39.0002C43.4986 40.1933 43.0241 41.3371 42.1805 42.1807C41.3369 43.0244 40.1931 43.4989 39 43.5002H21C19.8069 43.4989 18.6631 43.0244 17.8195 42.1807C16.9759 41.3371 16.5013 40.1933 16.5 39.0002V34.5002H27C28.9885 34.4982 30.8949 33.7073 32.301 32.3013C33.7071 30.8952 34.4979 28.9887 34.5 27.0002V16.5002H39C40.1931 16.5016 41.3369 16.9761 42.1805 17.8198C43.0241 18.6634 43.4986 19.8072 43.5 21.0002V39.0002Z" fill="url(#paint0_linear_1_10179)"/>
<path d="M17.9101 22.461L25.0606 15.3096C25.2039 15.1713 25.3182 15.0058 25.3968 14.8228C25.4754 14.6397 25.5168 14.4429 25.5185 14.2437C25.5202 14.0446 25.4823 13.8471 25.4069 13.6627C25.3314 13.4784 25.2201 13.3109 25.0792 13.1701C24.9384 13.0292 24.7709 12.9178 24.5866 12.8424C24.4022 12.767 24.2047 12.729 24.0055 12.7308C23.8064 12.7325 23.6095 12.7739 23.4265 12.8525C23.2435 12.9311 23.078 13.0454 22.9396 13.1886L15.9991 20.1276L13.0606 17.1906C12.7777 16.9174 12.3988 16.7662 12.0055 16.7696C11.6122 16.7731 11.236 16.9308 10.9579 17.2089C10.6798 17.487 10.522 17.8632 10.5186 18.2565C10.5152 18.6498 10.6664 19.0287 10.9396 19.3116L14.092 22.4616C14.3426 22.7124 14.6401 22.9114 14.9676 23.0471C15.2951 23.1829 15.6461 23.2527 16.0006 23.2527C16.3551 23.2527 16.7062 23.1829 17.0337 23.0471C17.3611 22.9114 17.6596 22.7118 17.9101 22.461Z" fill="url(#paint1_linear_1_10179)"/>
<defs>
<linearGradient id="paint0_linear_1_10179" x1="47.6387" y1="22.7324" x2="0.361254" y2="25.2681" gradientUnits="userSpaceOnUse">
<stop stop-color="#F8E42E"/>
<stop offset="1" stop-color="#FF7D54"/>
</linearGradient>
<linearGradient id="paint1_linear_1_10179" x1="25.8981" y1="17.6953" x2="10.1855" y2="18.8966" gradientUnits="userSpaceOnUse">
<stop stop-color="#F8E42E"/>
<stop offset="1" stop-color="#FF7D54"/>
</linearGradient>
</defs>
</svg>
