<svg width="18" height="17" viewBox="0 0 18 17" fill="none" xmlns="http://www.w3.org/2000/svg">
<g clip-path="url(#clip0_1_12536)">
<path d="M16.273 8.30131C16.273 4.22812 13.0169 0.926147 9.00027 0.926147C4.98365 0.926147 1.72754 4.22812 1.72754 8.30131C1.72754 11.9824 4.38706 15.0336 7.8639 15.5869V10.4332H6.01731V8.30131H7.8639V6.67647C7.8639 4.82807 8.9497 3.80707 10.6109 3.80707C11.4067 3.80707 12.2389 3.95112 12.2389 3.95112V5.7661H11.3219C10.4184 5.7661 10.1366 6.33465 10.1366 6.91789V8.30131H12.1537L11.8312 10.4332H10.1366V15.5869C13.6135 15.0336 16.273 11.9825 16.273 8.30131Z" fill="white"/>
</g>
<defs>
<clipPath id="clip0_1_12536">
<rect width="16.3636" height="16.3636" fill="white" transform="translate(0.818359 0.0170898)"/>
</clipPath>
</defs>
</svg>
