<svg width="71" height="70" viewBox="0 0 71 70" fill="none" xmlns="http://www.w3.org/2000/svg">
<rect x="2" y="1.5" width="67" height="67" rx="33.5" fill="url(#paint0_linear_1_11762)"/>
<rect x="2" y="1.5" width="67" height="67" rx="33.5" stroke="url(#paint1_linear_1_11762)" stroke-width="3"/>
<path d="M43.9375 23.1934H26.0625C23.8224 23.1934 22 25.0158 22 27.2559V38.9863C22 41.2264 23.8224 43.0488 26.0625 43.0488H33.0703C33.6312 43.0488 34.0859 42.5941 34.0859 42.0332C34.0859 41.4723 33.6312 41.0176 33.0703 41.0176H26.0625C24.9425 41.0176 24.0312 40.1064 24.0312 38.9863V27.4711L32.8547 32.9577C33.5165 33.3692 34.2581 33.5749 35 33.5749C35.7417 33.5749 36.4837 33.3691 37.1453 32.9578L45.9688 27.4711V33.6035C45.9688 34.1644 46.4234 34.6191 46.9844 34.6191C47.5453 34.6191 48 34.1644 48 33.6035V27.2559C48 25.0158 46.1776 23.1934 43.9375 23.1934ZM36.0727 31.2327C35.411 31.6442 34.589 31.6442 33.9274 31.2327L24.8792 25.6064C25.2127 25.3665 25.6213 25.2246 26.0625 25.2246H43.9375C44.3788 25.2246 44.7873 25.3665 45.1208 25.6064L36.0727 31.2327ZM47.3337 41.7989C47.2221 41.7532 46.5337 41.4395 46.5337 40.6468V39.1224C46.5337 36.9783 45.0305 35.159 43.0234 34.6777V34.0098C43.0234 33.4488 42.5687 32.9941 42.0078 32.9941C41.4469 32.9941 40.9922 33.4488 40.9922 34.0098V34.666C38.9598 35.1286 37.4312 36.9603 37.4312 39.1224V40.6469C37.4312 41.4396 36.7427 41.7533 36.6311 41.7989C36.2169 41.937 35.9648 42.3154 35.9648 42.7528C35.9648 43.4009 36.1954 44.1084 36.5815 44.6453C37.1129 45.3842 37.9056 45.7911 38.8136 45.7911H40.9922C40.9922 46.351 41.4478 46.8067 42.0078 46.8067C42.5678 46.8067 43.0234 46.351 43.0234 45.7911H45.1512C46.0592 45.7911 46.8519 45.3842 47.3834 44.6453C47.7695 44.1084 48 43.4009 48 42.7527C48 42.3154 47.748 41.9369 47.3337 41.7989ZM45.1512 43.7598H38.8136C38.4359 43.7598 38.232 43.5195 38.1223 43.2737C38.7946 42.7792 39.4624 41.9227 39.4624 40.6468V39.1224C39.4624 37.7415 40.5842 36.603 41.9632 36.5845C41.9696 36.5845 41.976 36.5843 41.9824 36.5841C41.9888 36.5843 41.9953 36.5845 42.0017 36.5845C43.3806 36.603 44.5024 37.7415 44.5024 39.1224V40.6468C44.5024 41.9227 45.1702 42.7792 45.8426 43.2737C45.7329 43.5195 45.529 43.7598 45.1512 43.7598Z" fill="#F2F6FA"/>
<defs>
<linearGradient id="paint0_linear_1_11762" x1="0.5" y1="0" x2="70.5" y2="70" gradientUnits="userSpaceOnUse">
<stop stop-color="#F8E42E" stop-opacity="0.15"/>
<stop offset="1" stop-color="#FF7D54" stop-opacity="0.15"/>
</linearGradient>
<linearGradient id="paint1_linear_1_11762" x1="72.2714" y1="33.0278" x2="-1.27138" y2="36.9722" gradientUnits="userSpaceOnUse">
<stop stop-color="#F8E42E"/>
<stop offset="1" stop-color="#FF7D54"/>
</linearGradient>
</defs>
</svg>
