<svg width="71" height="70" viewBox="0 0 71 70" fill="none" xmlns="http://www.w3.org/2000/svg">
<rect x="2.25" y="1.5" width="67" height="67" rx="33.5" fill="url(#paint0_linear_1_11755)"/>
<rect x="2.25" y="1.5" width="67" height="67" rx="33.5" stroke="url(#paint1_linear_1_11755)" stroke-width="3"/>
<g clip-path="url(#clip0_1_11755)">
<path d="M37.1667 49H35.3362C35.1539 49 34.9741 48.9574 34.8113 48.8754C34.6485 48.7935 34.5072 48.6745 34.3986 48.5281C34.2901 48.3817 34.2173 48.2118 34.1863 48.0322C34.1552 47.8526 34.1666 47.6682 34.2197 47.4938C34.5537 46.4697 34.7598 45.4081 34.8333 44.3333C34.8333 43.7145 34.5875 43.121 34.1499 42.6834C33.7123 42.2458 33.1188 42 32.5 42C31.8812 42 31.2877 42.2458 30.8501 42.6834C30.4125 43.121 30.1667 43.7145 30.1667 44.3333C30.2402 45.4081 30.4463 46.4697 30.7803 47.4938C30.8334 47.6682 30.8448 47.8526 30.8137 48.0322C30.7827 48.2118 30.7099 48.3817 30.6014 48.5281C30.4928 48.6745 30.3515 48.7935 30.1887 48.8754C30.0259 48.9574 29.8461 49 29.6638 49H27.8333C26.2868 48.9981 24.8042 48.383 23.7106 47.2894C22.617 46.1959 22.0019 44.7132 22 43.1667V33.8333C22.0019 32.2868 22.617 30.8042 23.7106 29.7106C24.8042 28.617 26.2868 28.0019 27.8333 28H28.1507C27.9659 27.235 27.8596 26.4532 27.8333 25.6667C27.8333 24.429 28.325 23.242 29.2002 22.3668C30.0753 21.4917 31.2623 21 32.5 21C33.7377 21 34.9247 21.4917 35.7998 22.3668C36.675 23.242 37.1667 24.429 37.1667 25.6667C37.1404 26.4532 37.0341 27.235 36.8493 28H37.1667C38.6684 28.0002 40.1124 28.5788 41.1987 29.6158C42.285 30.6528 42.9301 32.0684 43 33.5685C43.7651 33.384 44.5468 33.2773 45.3333 33.25C46.571 33.25 47.758 33.7417 48.6332 34.6168C49.5083 35.492 50 36.679 50 37.9167C50 39.1543 49.5083 40.3413 48.6332 41.2165C47.758 42.0917 46.571 42.5833 45.3333 42.5833C44.5469 42.5564 43.7651 42.45 43 42.266V43.1667C42.9981 44.7132 42.383 46.1959 41.2894 47.2894C40.1959 48.383 38.7132 48.9981 37.1667 49ZM36.8493 46.6667H37.1667C38.0949 46.6667 38.9852 46.2979 39.6415 45.6415C40.2979 44.9852 40.6667 44.0949 40.6667 43.1667V40.7528C40.6666 40.5706 40.7093 40.3908 40.7912 40.228C40.8732 40.0652 40.9921 39.9238 41.1386 39.8153C41.285 39.7067 41.4548 39.634 41.6344 39.6029C41.8141 39.5718 41.9984 39.5833 42.1728 39.6363C43.1971 39.9701 44.2586 40.1762 45.3333 40.25C45.9522 40.25 46.5457 40.0042 46.9832 39.5666C47.4208 39.129 47.6667 38.5355 47.6667 37.9167C47.6667 37.2978 47.4208 36.7043 46.9832 36.2668C46.5457 35.8292 45.9522 35.5833 45.3333 35.5833C44.2586 35.6571 43.1971 35.8632 42.1728 36.197C41.9984 36.25 41.8141 36.2615 41.6344 36.2304C41.4548 36.1993 41.285 36.1266 41.1386 36.0181C40.9921 35.9095 40.8732 35.7682 40.7912 35.6053C40.7093 35.4425 40.6666 35.2628 40.6667 35.0805V33.8333C40.6667 32.9051 40.2979 32.0148 39.6415 31.3585C38.9852 30.7021 38.0949 30.3333 37.1667 30.3333H35.3362C35.1539 30.3334 34.9741 30.2907 34.8113 30.2088C34.6485 30.1268 34.5072 30.0079 34.3986 29.8614C34.2901 29.715 34.2173 29.5452 34.1863 29.3656C34.1552 29.1859 34.1666 29.0016 34.2197 28.8272C34.5537 27.803 34.7598 26.7414 34.8333 25.6667C34.8333 25.0478 34.5875 24.4543 34.1499 24.0168C33.7123 23.5792 33.1188 23.3333 32.5 23.3333C31.8812 23.3333 31.2877 23.5792 30.8501 24.0168C30.4125 24.4543 30.1667 25.0478 30.1667 25.6667C30.2402 26.7414 30.4463 27.803 30.7803 28.8272C30.8334 29.0016 30.8448 29.1859 30.8137 29.3656C30.7827 29.5452 30.7099 29.715 30.6014 29.8614C30.4928 30.0079 30.3515 30.1268 30.1887 30.2088C30.0259 30.2907 29.8461 30.3334 29.6638 30.3333H27.8333C26.9051 30.3333 26.0148 30.7021 25.3585 31.3585C24.7021 32.0148 24.3333 32.9051 24.3333 33.8333V43.1667C24.3333 44.0949 24.7021 44.9852 25.3585 45.6415C26.0148 46.2979 26.9051 46.6667 27.8333 46.6667H28.1507C27.9659 45.9017 27.8596 45.1199 27.8333 44.3333C27.8333 43.0957 28.325 41.9087 29.2002 41.0335C30.0753 40.1583 31.2623 39.6667 32.5 39.6667C33.7377 39.6667 34.9247 40.1583 35.7998 41.0335C36.675 41.9087 37.1667 43.0957 37.1667 44.3333C37.1404 45.1199 37.0341 45.9017 36.8493 46.6667Z" fill="#F2F6FA"/>
</g>
<defs>
<linearGradient id="paint0_linear_1_11755" x1="0.75" y1="0" x2="70.75" y2="70" gradientUnits="userSpaceOnUse">
<stop stop-color="#D83333" stop-opacity="0.2"/>
<stop offset="1" stop-color="#F041FF" stop-opacity="0.2"/>
</linearGradient>
<linearGradient id="paint1_linear_1_11755" x1="-6.4907" y1="53.1306" x2="77.9907" y2="16.8694" gradientUnits="userSpaceOnUse">
<stop stop-color="#D83333"/>
<stop offset="1" stop-color="#F041FF"/>
</linearGradient>
<clipPath id="clip0_1_11755">
<rect width="28" height="28" fill="white" transform="translate(22 21)"/>
</clipPath>
</defs>
</svg>
