<svg width="60" height="60" viewBox="0 0 60 60" fill="none" xmlns="http://www.w3.org/2000/svg">
<rect x="1.5" y="1.5" width="57" height="57" rx="28.5" fill="url(#paint0_linear_1_10951)"/>
<rect x="1.5" y="1.5" width="57" height="57" rx="28.5" stroke="url(#paint1_linear_1_10951)" stroke-width="3"/>
<g clip-path="url(#clip0_1_10951)">
<path d="M41.2174 40.4348H18.7826C18.3504 40.4348 18 40.7852 18 41.2174C18 41.6496 18.3504 42 18.7826 42H41.2174C41.6496 42 42 41.6496 42 41.2174C42 40.7852 41.6496 40.4348 41.2174 40.4348Z" fill="white"/>
<path d="M22.4348 31.0435H19.8261C18.8192 31.0435 18 31.8626 18 32.8695V37.0434C18 38.0503 18.8192 38.8695 19.8261 38.8695H22.4348C23.4417 38.8695 24.2609 38.0503 24.2609 37.0434V32.8695C24.2609 31.8626 23.4417 31.0435 22.4348 31.0435ZM22.6957 37.0435C22.6957 37.1873 22.5786 37.3043 22.4348 37.3043H19.8261C19.6823 37.3043 19.5652 37.1873 19.5652 37.0435V32.8696C19.5652 32.7257 19.6823 32.6087 19.8261 32.6087H22.4348C22.5787 32.6087 22.6957 32.7258 22.6957 32.8696V37.0435Z" fill="white"/>
<path d="M31.3039 18H28.6952C27.6883 18 26.8691 18.8192 26.8691 19.8261V37.0435C26.8691 38.0504 27.6883 38.8696 28.6952 38.8696H31.3039C32.3108 38.8696 33.13 38.0504 33.13 37.0435V19.8261C33.13 18.8192 32.3108 18 31.3039 18ZM31.5647 37.0435C31.5647 37.1873 31.4477 37.3043 31.3039 37.3043H28.6952C28.5513 37.3043 28.4343 37.1873 28.4343 37.0435V19.8261C28.4343 19.6823 28.5514 19.5652 28.6952 19.5652H31.3039C31.4477 19.5652 31.5647 19.6823 31.5647 19.8261V37.0435Z" fill="white"/>
<path d="M40.1741 24.7827H37.5654C36.5584 24.7827 35.7393 25.6019 35.7393 26.6088V37.0436C35.7393 38.0505 36.5584 38.8697 37.5654 38.8697H40.1741C41.181 38.8697 42.0002 38.0505 42.0002 37.0436V26.6088C42.0002 25.6019 41.181 24.7827 40.1741 24.7827ZM40.435 37.0436C40.435 37.1874 40.3179 37.3044 40.1741 37.3044H37.5654C37.4216 37.3044 37.3046 37.1874 37.3046 37.0436V26.6088C37.3046 26.4649 37.4216 26.3479 37.5654 26.3479H40.1741C40.318 26.3479 40.435 26.465 40.435 26.6088V37.0436Z" fill="white"/>
</g>
<defs>
<linearGradient id="paint0_linear_1_10951" x1="0" y1="0" x2="60" y2="60" gradientUnits="userSpaceOnUse">
<stop stop-color="#3245FF" stop-opacity="0.25"/>
<stop offset="1" stop-color="#3245FF" stop-opacity="0"/>
</linearGradient>
<linearGradient id="paint1_linear_1_10951" x1="66.2123" y1="14.8001" x2="-6.21226" y2="45.1999" gradientUnits="userSpaceOnUse">
<stop stop-color="#4AF2C8"/>
<stop offset="1" stop-color="#2F4CB3"/>
</linearGradient>
<clipPath id="clip0_1_10951">
<rect width="24" height="24" fill="white" transform="translate(18 18)"/>
</clipPath>
</defs>
</svg>
