<svg width="48" height="48" viewBox="0 0 48 48" fill="none" xmlns="http://www.w3.org/2000/svg">
<mask id="mask0_1_10118" style="mask-type:alpha" maskUnits="userSpaceOnUse" x="2" y="2" width="44" height="43">
<path d="M42 22.3752H42.0003C42.7624 22.3743 43.4931 22.0712 44.032 21.5322C44.5709 20.9933 44.8741 20.2627 44.875 19.5005V19.5002V16.5002V16.4999C44.8741 15.7378 44.5709 15.0072 44.032 14.4682C43.4931 13.9293 42.7624 13.6262 42.0003 13.6252H42L6 13.6252L5.9997 13.6252C5.23756 13.6262 4.50691 13.9293 3.968 14.4682C3.42909 15.0072 3.12593 15.7378 3.125 16.4999V16.5002L3.125 19.5002L3.125 19.5005C3.12593 20.2627 3.42909 20.9933 3.968 21.5322C4.50691 22.0712 5.23756 22.3743 5.9997 22.3752H6H42ZM5.91182 16.4121C5.9353 16.3886 5.9671 16.3754 6.0003 16.3752H41.9997C42.0329 16.3754 42.0647 16.3886 42.0882 16.4121C42.1117 16.4356 42.1249 16.4675 42.125 16.5007V19.4998C42.1249 19.533 42.1117 19.5649 42.0882 19.5884C42.0647 19.6119 42.0329 19.6251 41.9997 19.6252C41.9996 19.6252 41.9996 19.6252 41.9995 19.6252H6.00048C6.00042 19.6252 6.00036 19.6252 6.0003 19.6252C5.9671 19.6251 5.9353 19.6119 5.91182 19.5884C5.88835 19.5649 5.87511 19.5331 5.875 19.4999V16.5005C5.87511 16.4673 5.88835 16.4355 5.91182 16.4121Z" fill="black" stroke="black" stroke-width="0.5"/>
<path d="M19.4996 35.8752C19.4996 35.8752 19.4996 35.8752 19.4996 35.8752C19.319 35.8753 19.1402 35.8397 18.9734 35.7706C18.8066 35.7015 18.655 35.6001 18.5274 35.4724C18.5274 35.4724 18.5274 35.4724 18.5273 35.4723L5.02759 21.9726C4.835 21.7804 4.70379 21.5354 4.65057 21.2686C4.59736 21.0017 4.62452 20.7251 4.72864 20.4738C4.83275 20.2224 5.00913 20.0076 5.23542 19.8565C5.46168 19.7055 5.72767 19.625 5.9997 19.6252M19.4996 35.8752L42.795 21.7956C42.9525 21.6384 43.0599 21.438 43.1034 21.2197C43.147 21.0014 43.1247 20.7751 43.0396 20.5694C42.9544 20.3638 42.8101 20.188 42.625 20.0645C42.4398 19.9409 42.2222 19.875 41.9996 19.8752V19.6252H41.9995H5.9997M19.4996 35.8752H28.4995H19.4996ZM5.9997 19.6252C5.99974 19.6252 5.99979 19.6252 5.99983 19.6252L5.99959 19.8752M5.9997 19.6252H5.99959V19.8752M5.99959 19.8752C5.777 19.875 5.55935 19.9409 5.37422 20.0645C5.18908 20.188 5.04479 20.3638 4.95961 20.5694C4.87443 20.7751 4.85221 21.0014 4.89574 21.2197C4.93928 21.438 5.04663 21.6384 5.20418 21.7956M5.99959 19.8752L5.20418 21.7956M5.20418 21.7956L18.7042 35.2956C18.8086 35.4002 18.9326 35.4831 19.0691 35.5396C19.2056 35.5962 19.3519 35.6253 19.4996 35.6252L5.20418 21.7956ZM38.6802 22.3752L27.9302 33.1252H20.069L9.31897 22.3752H38.6802Z" fill="black" stroke="black" stroke-width="0.5"/>
<path d="M18.125 34.5002V34.5002C18.1251 34.1356 18.27 33.7859 18.5278 33.5281C18.7856 33.2702 19.1353 33.1253 19.4999 33.1252L19.5 33.1252H28.5H28.5001C28.8647 33.1253 29.2144 33.2702 29.4722 33.5281C29.73 33.7859 29.8749 34.1356 29.875 34.5002V34.5002V39.9595V39.9597L18.125 34.5002ZM18.125 34.5002V42.4594M18.125 34.5002L28.4205 41.976L20.9224 44.4756C20.7061 44.5478 20.4795 44.5846 20.2514 44.5845L20.2515 44.3345L20.2519 44.5845C19.9726 44.5849 19.696 44.5303 19.4378 44.4236C19.1797 44.317 18.9451 44.1605 18.7476 43.9631C18.55 43.7657 18.3933 43.5313 18.2865 43.2732C18.1797 43.0152 18.1248 42.7386 18.125 42.4594M18.125 42.4594C18.125 42.4593 18.125 42.4593 18.125 42.4593L18.375 42.4595H18.125V42.4594ZM27.125 39.5093L20.875 41.5926V35.8752H27.125V39.5093Z" fill="black" stroke="black" stroke-width="0.5"/>
<path d="M39.1252 13.503L39.1252 13.5002C39.1252 12.2736 38.6379 11.0972 37.7706 10.2299C36.9032 9.36252 35.7268 8.87524 34.5002 8.87524C33.2736 8.87524 32.0972 9.36252 31.2298 10.2299C30.3625 11.0972 29.8752 12.2736 29.8752 13.5002V13.503H29.8752C29.8709 13.8834 29.9192 14.2626 30.0186 14.6298C30.0672 14.8032 30.0812 14.9845 30.0599 15.1634C30.0386 15.3427 29.9821 15.516 29.8938 15.6734L29.6758 15.5511L29.8938 15.6734C29.8054 15.8309 29.6869 15.9694 29.545 16.081C29.4031 16.1927 29.2406 16.2753 29.0668 16.3241C28.8929 16.3729 28.7112 16.387 28.5319 16.3655C28.3526 16.344 28.1793 16.2875 28.0219 16.199C27.8645 16.1106 27.7261 15.992 27.6145 15.85C27.503 15.7081 27.4205 15.5455 27.3718 15.3717L27.3716 15.3708L27.3716 15.3708C27.2031 14.7614 27.1202 14.1315 27.1252 13.4992C27.1255 11.5436 27.9025 9.66817 29.2853 8.28533C30.6684 6.90225 32.5442 6.12524 34.5002 6.12524C36.4562 6.12524 38.332 6.90225 39.7151 8.28533C41.098 9.66817 41.8749 11.5436 41.8752 13.4992C41.8803 14.1315 41.7974 14.7614 41.6289 15.3708L41.6286 15.3717C41.5477 15.6604 41.3746 15.9147 41.1357 16.0959C40.8969 16.277 40.6054 16.3751 40.3057 16.3752C40.3056 16.3752 40.3055 16.3752 40.3055 16.3752L40.3054 16.1252C40.1317 16.1255 39.9603 16.0854 39.8046 16.0081C39.649 15.9309 39.5134 15.8186 39.4085 15.6802C39.3036 15.5417 39.2322 15.3808 39.2 15.21C39.1678 15.0393 39.1756 14.8635 39.2229 14.6963L39.1252 13.503ZM39.1252 13.503C39.1295 13.8834 39.0813 14.2625 38.9819 14.6297L39.1252 13.503Z" fill="black" stroke="black" stroke-width="0.5"/>
<path d="M23.25 10.3752H23.2503C24.2113 10.3741 25.1325 9.99179 25.812 9.31229C26.4915 8.63278 26.8738 7.71152 26.875 6.75055V6.75025C26.875 6.03329 26.6624 5.33243 26.2641 4.7363C25.8658 4.14018 25.2996 3.67555 24.6372 3.40118C23.9748 3.12681 23.246 3.05503 22.5428 3.1949C21.8396 3.33477 21.1937 3.68002 20.6867 4.18698C20.1798 4.69395 19.8345 5.33986 19.6947 6.04304C19.5548 6.74622 19.6266 7.47509 19.9009 8.13747C20.1753 8.79985 20.6399 9.366 21.2361 9.76432C21.8322 10.1626 22.533 10.3752 23.25 10.3752ZM22.7639 6.02271C22.9077 5.9266 23.0768 5.87529 23.2498 5.87525C23.4818 5.87564 23.7042 5.96797 23.8682 6.13202C24.0322 6.29604 24.1246 6.51838 24.125 6.75033C24.125 6.92336 24.0737 7.0925 23.9775 7.23637C23.8814 7.38026 23.7447 7.49241 23.5848 7.55864C23.425 7.62487 23.249 7.64219 23.0793 7.60843C22.9096 7.57467 22.7537 7.49133 22.6313 7.36896C22.5089 7.24659 22.4256 7.09068 22.3918 6.92095C22.3581 6.75122 22.3754 6.57528 22.4416 6.4154C22.5078 6.25551 22.62 6.11886 22.7639 6.02271Z" fill="black" stroke="black" stroke-width="0.5"/>
<path d="M17.7306 16.3752H17.7303C17.507 16.375 17.2871 16.3204 17.0896 16.2161C16.8921 16.1119 16.723 15.9611 16.5968 15.7768C16.4706 15.5926 16.3911 15.3804 16.3653 15.1586C16.3395 14.9371 16.368 14.7127 16.4481 14.5047M17.7306 16.3752L16.6817 14.5937M17.7306 16.3752C18.0079 16.3752 18.2787 16.2913 18.5075 16.1346C18.7363 15.9779 18.9123 15.7556 19.0125 15.4971L19.0129 15.4961C19.2566 14.8588 19.3795 14.1817 19.3751 13.4995C19.3749 11.9416 18.756 10.4476 17.6544 9.34599C16.5526 8.24422 15.0583 7.62524 13.5001 7.62524C11.942 7.62524 10.4476 8.24422 9.34586 9.34599C8.24428 10.4476 7.62533 11.9416 7.62511 13.4994M17.7306 16.3752L7.87511 13.5002M16.4481 14.5047C16.4483 14.5043 16.4484 14.504 16.4485 14.5036L16.6817 14.5937M16.4481 14.5047C16.448 14.505 16.4479 14.5052 16.4478 14.5055L16.6817 14.5937M16.4481 14.5047C16.5688 14.1846 16.6288 13.8449 16.6251 13.5029L16.6251 13.5002C16.6251 12.6714 16.2959 11.8766 15.7098 11.2905C15.1238 10.7045 14.3289 10.3752 13.5001 10.3752C12.6713 10.3752 11.8765 10.7045 11.2904 11.2905C10.7044 11.8766 10.3751 12.6714 10.3751 13.5002V13.5029H10.3751C10.3714 13.8449 10.4314 14.1845 10.552 14.5045M16.6817 14.5937C16.8135 14.2444 16.8791 13.8736 16.8751 13.5002C16.8751 12.6051 16.5195 11.7467 15.8866 11.1138C15.2537 10.4808 14.3952 10.1252 13.5001 10.1252C12.605 10.1252 11.7466 10.4808 11.1136 11.1138C10.4807 11.7467 10.1251 12.6051 10.1251 13.5002C10.1211 13.8736 10.1867 14.2444 10.3185 14.5937M10.552 14.5045C10.5519 14.5042 10.5518 14.5039 10.5517 14.5036L10.3185 14.5937M10.552 14.5045C10.5521 14.5049 10.5523 14.5052 10.5524 14.5055L10.3185 14.5937M10.552 14.5045C10.6831 14.8442 10.674 15.222 10.5269 15.555C10.3796 15.8884 10.106 16.1496 9.76615 16.2813C9.42635 16.413 9.04816 16.4044 8.71469 16.2574C8.38123 16.1104 8.11978 15.837 7.98779 15.4973L7.98731 15.4961L7.98731 15.4961C7.74358 14.8588 7.62075 14.1817 7.62511 13.4994M10.3185 14.5937C10.426 14.8718 10.4187 15.1813 10.2982 15.454C10.1777 15.7267 9.95382 15.9404 9.6758 16.0482C9.39779 16.1559 9.08837 16.1489 8.81554 16.0286C8.54271 15.9083 8.3288 15.6847 8.22082 15.4067C7.98809 14.7983 7.87085 14.1517 7.87511 13.5002M7.62511 13.4994C7.62511 13.4997 7.62511 13.5 7.62511 13.5002H7.87511M7.62511 13.4994C7.62511 13.4992 7.62512 13.4989 7.62512 13.4986L7.87511 13.5002" fill="black" stroke="black" stroke-width="0.5"/>
</mask>
<g mask="url(#mask0_1_10118)">
<rect y="0.000244141" width="48" height="48" fill="url(#paint0_linear_1_10118)"/>
</g>
<defs>
<linearGradient id="paint0_linear_1_10118" x1="49.2147" y1="22.6479" x2="-1.21466" y2="25.3526" gradientUnits="userSpaceOnUse">
<stop stop-color="#F8E42E"/>
<stop offset="1" stop-color="#FF7D54"/>
</linearGradient>
</defs>
</svg>
