<svg width="48" height="48" viewBox="0 0 48 48" fill="none" xmlns="http://www.w3.org/2000/svg">
<g clip-path="url(#clip0_1_10187)">
<path d="M35.85 30C35.85 32.2828 37.7172 34.15 40 34.15C42.2828 34.15 44.15 32.2828 44.15 30C44.15 27.7172 42.2828 25.85 40 25.85C37.7172 25.85 35.85 27.7172 35.85 30ZM38.15 30C38.15 29.4341 38.338 28.9741 38.6561 28.6561C38.9741 28.338 39.4341 28.15 40 28.15C40.5659 28.15 41.0259 28.338 41.3439 28.6561C41.662 28.9741 41.85 29.4341 41.85 30C41.85 30.5659 41.662 31.0259 41.3439 31.3439C41.0259 31.662 40.5659 31.85 40 31.85C39.4341 31.85 38.9741 31.662 38.6561 31.3439C38.338 31.0259 38.15 30.5659 38.15 30Z" fill="url(#paint0_linear_1_10187)" stroke="url(#paint1_linear_1_10187)" stroke-width="0.3"/>
<path d="M45.85 43C45.85 43.3341 45.962 43.6241 46.1689 43.8311C46.3759 44.038 46.6659 44.15 47 44.15C47.3341 44.15 47.6241 44.038 47.8311 43.8311C48.038 43.6241 48.15 43.3341 48.15 43V41C48.15 38.1172 45.8828 35.85 43 35.85H37C36.6659 35.85 36.3759 35.962 36.1689 36.1689C35.962 36.3759 35.85 36.6659 35.85 37C35.85 37.3341 35.962 37.6241 36.1689 37.8311C36.3759 38.038 36.6659 38.15 37 38.15H43C44.5172 38.15 45.85 39.4828 45.85 41V43Z" fill="url(#paint2_linear_1_10187)" stroke="url(#paint3_linear_1_10187)" stroke-width="0.3"/>
<path d="M3.85 30C3.85 32.2828 5.71716 34.15 8 34.15C10.2828 34.15 12.15 32.2828 12.15 30C12.15 27.7172 10.2828 25.85 8 25.85C5.71716 25.85 3.85 27.7172 3.85 30ZM6.15 30C6.15 29.4341 6.33798 28.9741 6.65607 28.6561C6.97415 28.338 7.43409 28.15 8 28.15C8.56591 28.15 9.02585 28.338 9.34393 28.6561C9.66202 28.9741 9.85 29.4341 9.85 30C9.85 30.5659 9.66202 31.0259 9.34393 31.3439C9.02585 31.662 8.56591 31.85 8 31.85C7.43409 31.85 6.97415 31.662 6.65607 31.3439C6.33798 31.0259 6.15 30.5659 6.15 30Z" fill="url(#paint4_linear_1_10187)" stroke="url(#paint5_linear_1_10187)" stroke-width="0.3"/>
<path d="M-0.15 43C-0.15 43.3341 -0.0379829 43.6241 0.168934 43.8311C0.375851 44.038 0.665913 44.15 1 44.15C1.33409 44.15 1.62415 44.038 1.83107 43.8311C2.03798 43.6241 2.15 43.3341 2.15 43V41C2.15 39.4828 3.48284 38.15 5 38.15H11C11.3341 38.15 11.6241 38.038 11.8311 37.8311C12.038 37.6241 12.15 37.3341 12.15 37C12.15 36.6659 12.038 36.3759 11.8311 36.1689C11.6241 35.962 11.3341 35.85 11 35.85H5C2.11716 35.85 -0.15 38.1172 -0.15 41V43Z" fill="url(#paint6_linear_1_10187)" stroke="url(#paint7_linear_1_10187)" stroke-width="0.3"/>
<path d="M17.85 29C17.85 32.4828 20.5172 35.15 24 35.15C27.4828 35.15 30.15 32.4828 30.15 29C30.15 25.5172 27.4828 22.85 24 22.85C20.5172 22.85 17.85 25.5172 17.85 29ZM20.15 29C20.15 26.8828 21.8828 25.15 24 25.15C26.1172 25.15 27.85 26.8828 27.85 29C27.85 31.1172 26.1172 32.85 24 32.85C21.8828 32.85 20.15 31.1172 20.15 29Z" fill="url(#paint8_linear_1_10187)" stroke="url(#paint9_linear_1_10187)" stroke-width="0.3"/>
<path d="M32.85 47C32.85 47.3341 32.962 47.6241 33.1689 47.8311C33.3759 48.038 33.6659 48.15 34 48.15C34.3341 48.15 34.6241 48.038 34.8311 47.8311C35.038 47.6241 35.15 47.3341 35.15 47V43C35.15 40.1172 32.8828 37.85 30 37.85H18C15.1172 37.85 12.85 40.1172 12.85 43V47C12.85 47.3341 12.962 47.6241 13.1689 47.8311C13.3759 48.038 13.6659 48.15 14 48.15C14.3341 48.15 14.6241 48.038 14.8311 47.8311C15.038 47.6241 15.15 47.3341 15.15 47V43C15.15 41.4828 16.4828 40.15 18 40.15H30C31.5172 40.15 32.85 41.4828 32.85 43V47Z" fill="url(#paint10_linear_1_10187)" stroke="url(#paint11_linear_1_10187)" stroke-width="0.3"/>
<path d="M17.252 18.7753L17.25 18.7876V18.8C17.25 19.2245 17.4517 19.6564 17.8615 19.8955C17.8719 19.9359 17.8896 19.9738 17.916 20.0077C17.9614 20.0662 18.0217 20.0987 18.0776 20.1173C18.1762 20.1502 18.2974 20.1501 18.3878 20.15C18.3919 20.15 18.396 20.15 18.4 20.15H18.4065C18.6035 20.15 18.8514 20.1501 19.0906 19.9212L24.0026 17.1704L28.9118 19.7232C29.047 19.8473 29.2323 19.9 29.425 19.9C29.6274 19.9 29.8502 19.8426 30.0671 19.7342C30.3101 19.6126 30.4345 19.4254 30.4942 19.2162C30.55 19.0209 30.55 18.8031 30.55 18.6108V18.6V18.5876L30.548 18.5753L29.5606 12.6515L33.7061 8.50607C33.8321 8.37999 33.9418 8.15142 33.9955 7.93638C34.023 7.82644 34.0386 7.70987 34.0309 7.60181C34.0233 7.49571 33.9917 7.37955 33.9061 7.29393C33.8646 7.25249 33.822 7.19986 33.7699 7.1355L33.7635 7.1275C33.7106 7.06224 33.6498 6.98772 33.5811 6.91893C33.4446 6.7825 33.262 6.65383 33.0112 6.65008L27.5034 5.86324L25.1371 0.539079L25.1372 0.539016L25.1342 0.532918C24.9052 0.0750634 24.4485 -0.15 24 -0.15C23.7777 -0.15 23.5469 -0.0948915 23.3668 0.0251925C23.1909 0.142446 23.0626 0.323741 23.0509 0.56396L20.4984 5.86531L14.7868 6.85007C14.5649 6.85228 14.3843 6.91049 14.2313 7.03287C14.0807 7.15338 13.9689 7.32682 13.8658 7.53292L13.85 7.56459V7.6L13.85 7.60636C13.85 7.80177 13.85 8.01061 13.8765 8.19621C13.903 8.38188 13.9593 8.57146 14.0939 8.70607L18.2393 12.8515L17.252 18.7753ZM24.6699 15.0673L24.6699 15.0672L24.6671 15.0658C24.4502 14.9574 24.2274 14.9 24.025 14.9C23.8322 14.9 23.6467 14.9528 23.5115 15.077L19.9862 16.9325L20.5429 12.6643C20.6636 12.508 20.6439 12.3073 20.5923 12.1526C20.5341 11.978 20.4206 11.8084 20.3061 11.6939L17.3199 8.70777L21.4203 8.14862L21.4703 8.1418L21.5061 8.10607C21.6798 7.9323 22.0424 7.75 22.4 7.75H22.497L22.5368 7.66155L24.2 3.96553L25.8632 7.66155L25.8631 7.66161L25.8658 7.66708C25.9689 7.87318 26.0807 8.04662 26.2313 8.16713C26.3848 8.28992 26.5661 8.34811 26.789 8.34995L30.6818 8.90607L27.6939 11.8939C27.4497 12.1382 27.4498 12.3982 27.45 12.7698C27.45 12.7798 27.45 12.7898 27.45 12.8V12.8135L27.4524 12.8268L28.1973 16.9238L24.6699 15.0673Z" fill="url(#paint12_linear_1_10187)" stroke="url(#paint13_linear_1_10187)" stroke-width="0.3"/>
<path d="M34.6517 16.7763L34.6498 16.7881V16.8L34.6498 16.8108C34.6498 17.003 34.6498 17.2209 34.7056 17.4162C34.7636 17.6191 34.8823 17.8014 35.1111 17.923C35.3498 18.1501 35.5969 18.15 35.7933 18.15H35.7998H35.7998H35.7998H35.7999H35.7999H35.7999H35.8H35.8H35.8H35.8001H35.8001H35.8002H35.8002H35.8003H35.8004H35.8005H35.8005H35.8006H35.8007H35.8008H35.8009H35.801H35.8011H35.8012H35.8013H35.8014H35.8016H35.8017H35.8018H35.802H35.8021H35.8022H35.8024H35.8025H35.8027H35.8029H35.803H35.8032H35.8034H35.8035H35.8037H35.8039H35.8041H35.8043H35.8045H35.8047H35.8049H35.8051H35.8053H35.8056H35.8058H35.806H35.8062H35.8065H35.8067H35.807H35.8072H35.8075H35.8077H35.808H35.8082H35.8085H35.8088H35.8091H35.8093H35.8096H35.8099H35.8102H35.8105H35.8108H35.8111H35.8114H35.8117H35.8121H35.8124H35.8127H35.813H35.8134H35.8137H35.814H35.8144H35.8147H35.8151H35.8154H35.8158H35.8161H35.8165H35.8169H35.8173H35.8176H35.818H35.8184H35.8188H35.8192H35.8196H35.82H35.8204H35.8208H35.8212H35.8216H35.822H35.8225H35.8229H35.8233H35.8237H35.8242H35.8246H35.8251H35.8255H35.826H35.8264H35.8269H35.8273H35.8278H35.8283H35.8287H35.8292H35.8297H35.8302H35.8307H35.8312H35.8317H35.8322H35.8327H35.8332H35.8337H35.8342H35.8347H35.8352H35.8357H35.8363H35.8368H35.8373H35.8379H35.8384H35.8389H35.8395H35.84H35.8406H35.8411H35.8417H35.8423H35.8428H35.8434H35.844H35.8445H35.8451H35.8457H35.8463H35.8469H35.8475H35.848H35.8486H35.8492H35.8498H35.8505H35.8511H35.8517H35.8523H35.8529H35.8535H35.8542H35.8548H35.8554H35.8561H35.8567H35.8573H35.858H35.8586H35.8593H35.8599H35.8606H35.8613H35.8619H35.8626H35.8632H35.8639H35.8646H35.8653H35.866H35.8666H35.8673H35.868H35.8687H35.8694H35.8701H35.8708H35.8715H35.8722H35.8729H35.8736H35.8743H35.8751H35.8758H35.8765H35.8772H35.878H35.8787H35.8794H35.8802H35.8809H35.8817H35.8824H35.8832H35.8839H35.8847H35.8854H35.8862H35.8869H35.8877H35.8885H35.8892H35.89H35.8908H35.8916H35.8924H35.8931H35.8939H35.8947H35.8955H35.8963H35.8971H35.8979H35.8987H35.8995H35.9003H35.9011H35.9019H35.9028H35.9036H35.9044H35.9052H35.906H35.9069H35.9077H35.9085H35.9094H35.9102H35.911H35.9119H35.9127H35.9136H35.9144H35.9153H35.9161H35.917H35.9178H35.9187H35.9196H35.9204H35.9213H35.9222H35.9231H35.9239H35.9248H35.9257H35.9266H35.9275H35.9283H35.9292H35.9301H35.931H35.9319H35.9328H35.9337H35.9346H35.9355H35.9364H35.9373H35.9382H35.9392H35.9401H35.941H35.9419H35.9428H35.9438H35.9447H35.9456H35.9465H35.9475H35.9484H35.9493H35.9503H35.9512H35.9522H35.9531H35.9541H35.955H35.956H35.9569H35.9579H35.9588H35.9598H35.9607H35.9617H35.9627H35.9636H35.9646H35.9656H35.9665H35.9675H35.9685H35.9695H35.9704H35.9714H35.9724H35.9734H35.9744H35.9754H35.9764H35.9774H35.9783H35.9793H35.9803H35.9813H35.9823H35.9833H35.9843H35.9854H35.9864H35.9874H35.9884H35.9894H35.9904H35.9914H35.9924H35.9935H35.9945H35.9955H35.9965H35.9976H35.9986H35.9996H36.0006H36.0017H36.0027H36.0037H36.0048H36.0058H36.0069H36.0079H36.009H36.01H36.011H36.0121H36.0131H36.0142H36.0152H36.0163H36.0174H36.0184H36.0195H36.0205H36.0216H36.0227H36.0237H36.0248H36.0258H36.0269H36.028H36.0291H36.0301H36.0312H36.0323H36.0333H36.0344H36.0355H36.0366H36.0377H36.0387H36.0398H36.0409H36.042H36.0431H36.0442H36.0453H36.0464H36.0475H36.0485H36.0496H36.0507H36.0518H36.0529H36.054H36.0551H36.0562H36.0573H36.0584H36.0595H36.0606H36.0618H36.0629H36.064H36.0651H36.0662H36.0673H36.0684H36.0695H36.0706H36.0718H36.0729H36.074H36.0751H36.0762H36.0774H36.0785H36.0796H36.0807H36.0819H36.083H36.0841H36.0852H36.0864H36.0875H36.0886H36.0898H36.0909H36.092H36.0932H36.0943H36.0954H36.0966H36.0977H36.0988H36.1H36.1011H36.1023H36.1034H36.1045H36.1057H36.1068H36.108H36.1091H36.1103H36.1114H36.1125H36.1137H36.1148H36.116H36.1171H36.1183H36.1194H36.1206H36.1217H36.1229H36.124H36.1252H36.1264H36.1275H36.1287H36.1298H36.131H36.1321H36.1333H36.1344H36.1356H36.1368H36.1379H36.1391H36.1402H36.1414H36.1426H36.1437H36.1449H36.146H36.1472H36.1484H36.1495H36.1507H36.1519H36.153H36.1542H36.1554H36.1565H36.1577H36.1589H36.16H36.1612H36.1624H36.1635H36.1647H36.1659H36.167H36.1682H36.1694H36.1705H36.1717H36.1729H36.174H36.1752H36.1764H36.1776H36.1787H36.1799H36.1811H36.1822H36.1834H36.1846H36.1857H36.1869H36.1881H36.1893H36.1904H36.1916H36.1928H36.1939H36.1951H36.1963H36.1975H36.1986H36.1998H36.2401L36.275 18.1298L40.0066 15.9694L44.1138 17.9252C44.2487 18.0478 44.4331 18.1 44.6248 18.1C44.8272 18.1 45.05 18.0426 45.2669 17.9342C45.5099 17.8126 45.6343 17.6254 45.694 17.4162C45.7498 17.2209 45.7498 17.0031 45.7498 16.8108V16.8V16.7871L45.7476 16.7743L44.9609 12.251L48.1059 9.10607C48.3294 8.8825 48.5747 8.41439 48.334 7.93292L48.3231 7.91115L48.3059 7.89393C48.2644 7.8525 48.2219 7.79988 48.1698 7.73554L48.1633 7.7275C48.1104 7.66224 48.0497 7.58772 47.9809 7.51893C47.8443 7.38241 47.6616 7.25366 47.4105 7.25008L43.1004 6.66233L41.1352 2.53551L41.1353 2.5355L41.134 2.53292C40.905 2.07506 40.4483 1.85 39.9998 1.85C39.7771 1.85 39.554 1.90518 39.3827 1.99084C39.2972 2.03362 39.2184 2.08706 39.1589 2.15078C39.108 2.20535 39.0633 2.27646 39.0523 2.36066L36.869 6.92589C36.6548 7.2517 36.5914 7.59402 36.6811 7.8931C36.7704 8.19073 37.004 8.42036 37.3333 8.53577C37.6568 8.74599 37.9961 8.80771 38.2929 8.71867C38.5938 8.62839 38.8253 8.39063 38.9394 8.05554L39.9998 5.75795L41.0636 8.06286L41.0635 8.06289L41.0656 8.06708C41.1687 8.27318 41.2805 8.44662 41.4311 8.56713C41.5848 8.69005 41.7663 8.74824 41.9896 8.74996L44.6791 9.10857L42.6937 11.0939C42.4495 11.3382 42.4496 11.5982 42.4498 11.9698C42.4498 11.9798 42.4498 11.9898 42.4498 12V12.0185L42.4543 12.0364L43.1719 14.9069L40.8709 13.6679L40.871 13.6679L40.8669 13.6658C40.66 13.5624 40.4848 13.5 40.2998 13.5C40.1148 13.5 39.9396 13.5624 39.7327 13.6658L39.7327 13.6658L39.7287 13.6679L37.3873 14.9287L37.7467 12.2335C37.9618 11.5605 37.52 10.8662 36.8242 10.8503C36.1502 10.6408 35.4579 11.088 35.4499 11.7876L34.6517 16.7763Z" fill="url(#paint14_linear_1_10187)" stroke="url(#paint15_linear_1_10187)" stroke-width="0.3"/>
<path d="M12.1999 18.15C12.1999 18.15 12.2 18.15 12.2 18L12.2 18.15L12.2087 18.15C12.3043 18.1501 12.4351 18.1502 12.5671 18.0842C12.7016 18.0169 12.8177 17.8926 12.9234 17.6884C13.1433 17.4575 13.35 17.0311 13.35 16.6V16.5881L13.3481 16.5763L12.5481 11.5763L12.5462 11.5642L12.5423 11.5526C12.434 11.2276 12.2656 10.9954 12.0295 10.8478C11.7965 10.7022 11.5148 10.65 11.2 10.65H11.1757L11.1526 10.6577C10.8276 10.766 10.5954 10.9344 10.4478 11.1705C10.3022 11.4035 10.25 11.6852 10.25 12V12.0185L10.2545 12.0364L10.9721 14.9069L8.67111 13.6679L8.67115 13.6679L8.66708 13.6658C8.46023 13.5624 8.28504 13.5 8.1 13.5C7.91496 13.5 7.73977 13.5624 7.53292 13.6658L7.53289 13.6658L7.52888 13.6679L5.18491 14.9301L5.54318 12.0639C5.66358 11.9077 5.64384 11.7072 5.5923 11.5526C5.53411 11.378 5.42057 11.2084 5.30607 11.0939L3.3207 9.10857L6.01025 8.74996C6.23351 8.74824 6.41505 8.69005 6.5687 8.56713C6.71934 8.44662 6.83112 8.27318 6.93416 8.06708L6.93423 8.06711L6.93619 8.06286L8 5.75795L9.06043 8.05554C9.1757 8.39408 9.40773 8.62606 9.72374 8.74097C10.0362 8.85458 10.4188 8.84992 10.8364 8.74552L10.8767 8.73545L10.9061 8.70607C11.1228 8.48938 11.2862 8.21802 11.3687 7.9431C11.4505 7.6702 11.4565 7.3787 11.3348 7.13414L9.13532 2.53528L9.13534 2.53527L9.13416 2.53292C8.90524 2.07506 8.4485 1.85 8 1.85C7.77775 1.85 7.54692 1.90511 7.3668 2.02519C7.19083 2.1425 7.06244 2.32392 7.05085 2.56432L5.09942 6.66233L0.789519 7.25004C0.566362 7.2518 0.384893 7.30999 0.231296 7.43287C0.0806615 7.55338 -0.0311151 7.72682 -0.134164 7.93292L-0.15 7.96459V8L-0.15 8.00636C-0.150003 8.20177 -0.150007 8.41061 -0.123492 8.59621C-0.0969691 8.78188 -0.0406752 8.97146 0.093934 9.10607L3.23888 12.251L2.45222 16.7743L2.45 16.7871V16.8C2.45 17.2424 2.6677 17.6798 2.89393 17.9061L2.91115 17.9233L2.93292 17.9342C3.37515 18.1553 3.82485 18.1553 4.26708 17.9342L4.2671 17.9342L4.26986 17.9327L8 15.9695L11.7109 17.9226C11.8237 18.0302 11.9376 18.0873 12.0276 18.1173C12.0745 18.133 12.1147 18.1411 12.1444 18.1454C12.1593 18.1475 12.1717 18.1487 12.181 18.1493L12.1929 18.1499L12.197 18.15L12.1987 18.15L12.1994 18.15H12.1997H12.1999Z" fill="url(#paint16_linear_1_10187)" stroke="url(#paint17_linear_1_10187)" stroke-width="0.3"/>
</g>
<defs>
<linearGradient id="paint0_linear_1_10187" x1="44.2024" y1="29.7746" x2="35.7976" y2="30.2254" gradientUnits="userSpaceOnUse">
<stop stop-color="#F8E42E"/>
<stop offset="1" stop-color="#FF7D54"/>
</linearGradient>
<linearGradient id="paint1_linear_1_10187" x1="44.2024" y1="29.7746" x2="35.7976" y2="30.2254" gradientUnits="userSpaceOnUse">
<stop stop-color="#F8E42E"/>
<stop offset="1" stop-color="#FF7D54"/>
</linearGradient>
<linearGradient id="paint2_linear_1_10187" x1="48.3037" y1="39.7746" x2="35.7414" y2="40.7852" gradientUnits="userSpaceOnUse">
<stop stop-color="#F8E42E"/>
<stop offset="1" stop-color="#FF7D54"/>
</linearGradient>
<linearGradient id="paint3_linear_1_10187" x1="48.3037" y1="39.7746" x2="35.7414" y2="40.7852" gradientUnits="userSpaceOnUse">
<stop stop-color="#F8E42E"/>
<stop offset="1" stop-color="#FF7D54"/>
</linearGradient>
<linearGradient id="paint4_linear_1_10187" x1="12.2024" y1="29.7746" x2="3.79756" y2="30.2254" gradientUnits="userSpaceOnUse">
<stop stop-color="#F8E42E"/>
<stop offset="1" stop-color="#FF7D54"/>
</linearGradient>
<linearGradient id="paint5_linear_1_10187" x1="12.2024" y1="29.7746" x2="3.79756" y2="30.2254" gradientUnits="userSpaceOnUse">
<stop stop-color="#F8E42E"/>
<stop offset="1" stop-color="#FF7D54"/>
</linearGradient>
<linearGradient id="paint6_linear_1_10187" x1="12.3037" y1="39.7746" x2="-0.258626" y2="40.7852" gradientUnits="userSpaceOnUse">
<stop stop-color="#F8E42E"/>
<stop offset="1" stop-color="#FF7D54"/>
</linearGradient>
<linearGradient id="paint7_linear_1_10187" x1="12.3037" y1="39.7746" x2="-0.258626" y2="40.7852" gradientUnits="userSpaceOnUse">
<stop stop-color="#F8E42E"/>
<stop offset="1" stop-color="#FF7D54"/>
</linearGradient>
<linearGradient id="paint8_linear_1_10187" x1="30.3037" y1="28.6619" x2="17.6963" y2="29.3381" gradientUnits="userSpaceOnUse">
<stop stop-color="#F8E42E"/>
<stop offset="1" stop-color="#FF7D54"/>
</linearGradient>
<linearGradient id="paint9_linear_1_10187" x1="30.3037" y1="28.6619" x2="17.6963" y2="29.3381" gradientUnits="userSpaceOnUse">
<stop stop-color="#F8E42E"/>
<stop offset="1" stop-color="#FF7D54"/>
</linearGradient>
<linearGradient id="paint10_linear_1_10187" x1="35.5567" y1="42.7183" x2="12.6951" y2="45.4158" gradientUnits="userSpaceOnUse">
<stop stop-color="#F8E42E"/>
<stop offset="1" stop-color="#FF7D54"/>
</linearGradient>
<linearGradient id="paint11_linear_1_10187" x1="35.5567" y1="42.7183" x2="12.6951" y2="45.4158" gradientUnits="userSpaceOnUse">
<stop stop-color="#F8E42E"/>
<stop offset="1" stop-color="#FF7D54"/>
</linearGradient>
<linearGradient id="paint12_linear_1_10187" x1="34.386" y1="9.43653" x2="13.4962" y2="10.5503" gradientUnits="userSpaceOnUse">
<stop stop-color="#F8E42E"/>
<stop offset="1" stop-color="#FF7D54"/>
</linearGradient>
<linearGradient id="paint13_linear_1_10187" x1="34.386" y1="9.43653" x2="13.4962" y2="10.5503" gradientUnits="userSpaceOnUse">
<stop stop-color="#F8E42E"/>
<stop offset="1" stop-color="#FF7D54"/>
</linearGradient>
<linearGradient id="paint14_linear_1_10187" x1="48.6238" y1="9.54922" x2="34.4468" y2="10.19" gradientUnits="userSpaceOnUse">
<stop stop-color="#F8E42E"/>
<stop offset="1" stop-color="#FF7D54"/>
</linearGradient>
<linearGradient id="paint15_linear_1_10187" x1="48.6238" y1="9.54922" x2="34.4468" y2="10.19" gradientUnits="userSpaceOnUse">
<stop stop-color="#F8E42E"/>
<stop offset="1" stop-color="#FF7D54"/>
</linearGradient>
<linearGradient id="paint16_linear_1_10187" x1="13.534" y1="9.54922" x2="-0.346748" y2="10.1634" gradientUnits="userSpaceOnUse">
<stop stop-color="#F8E42E"/>
<stop offset="1" stop-color="#FF7D54"/>
</linearGradient>
<linearGradient id="paint17_linear_1_10187" x1="13.534" y1="9.54922" x2="-0.346748" y2="10.1634" gradientUnits="userSpaceOnUse">
<stop stop-color="#F8E42E"/>
<stop offset="1" stop-color="#FF7D54"/>
</linearGradient>
<clipPath id="clip0_1_10187">
<rect width="48" height="48" fill="white"/>
</clipPath>
</defs>
</svg>
