<svg width="48" height="48" viewBox="0 0 48 48" fill="none" xmlns="http://www.w3.org/2000/svg">
<path d="M44 2.00024H4C3.46957 2.00024 2.96086 2.21096 2.58579 2.58603C2.21071 2.9611 2 3.46981 2 4.00024C2 4.53068 2.21071 5.03939 2.58579 5.41446C2.96086 5.78953 3.46957 6.00024 4 6.00024V28.0002C4 30.6524 5.05357 33.1959 6.92893 35.0713C8.8043 36.9467 11.3478 38.0002 14 38.0002H22V40.7802C21.5471 41.1853 21.2279 41.7183 21.0846 42.3087C20.9413 42.8992 20.9807 43.5192 21.1975 44.0868C21.4143 44.6544 21.7983 45.1427 22.2987 45.4873C22.7992 45.8318 23.3924 46.0163 24 46.0163C24.6076 46.0163 25.2008 45.8318 25.7013 45.4873C26.2017 45.1427 26.5857 44.6544 26.8025 44.0868C27.0193 43.5192 27.0587 42.8992 26.9154 42.3087C26.7721 41.7183 26.4529 41.1853 26 40.7802V38.0002H34C36.6522 38.0002 39.1957 36.9467 41.0711 35.0713C42.9464 33.1959 44 30.6524 44 28.0002V6.00024C44.5304 6.00024 45.0391 5.78953 45.4142 5.41446C45.7893 5.03939 46 4.53068 46 4.00024C46 3.46981 45.7893 2.9611 45.4142 2.58603C45.0391 2.21096 44.5304 2.00024 44 2.00024ZM40 28.0002C40 29.5915 39.3679 31.1177 38.2426 32.2429C37.1174 33.3681 35.5913 34.0002 34 34.0002H14C12.4087 34.0002 10.8826 33.3681 9.75736 32.2429C8.63214 31.1177 8 29.5915 8 28.0002V6.00024H40V28.0002Z" fill="url(#paint0_linear_1_10132)"/>
<path d="M16 28.0002C16.5304 28.0002 17.0391 27.7895 17.4142 27.4145C17.7893 27.0394 18 26.5307 18 26.0002V22.0002C18 21.4698 17.7893 20.9611 17.4142 20.586C17.0391 20.211 16.5304 20.0002 16 20.0002C15.4696 20.0002 14.9609 20.211 14.5858 20.586C14.2107 20.9611 14 21.4698 14 22.0002V26.0002C14 26.5307 14.2107 27.0394 14.5858 27.4145C14.9609 27.7895 15.4696 28.0002 16 28.0002Z" fill="url(#paint1_linear_1_10132)"/>
<path d="M24 28.0002C24.5304 28.0002 25.0391 27.7895 25.4142 27.4145C25.7893 27.0394 26 26.5307 26 26.0002V18.0002C26 17.4698 25.7893 16.9611 25.4142 16.586C25.0391 16.211 24.5304 16.0002 24 16.0002C23.4696 16.0002 22.9609 16.211 22.5858 16.586C22.2107 16.9611 22 17.4698 22 18.0002V26.0002C22 26.5307 22.2107 27.0394 22.5858 27.4145C22.9609 27.7895 23.4696 28.0002 24 28.0002Z" fill="url(#paint2_linear_1_10132)"/>
<path d="M32 28.0002C32.5304 28.0002 33.0391 27.7895 33.4142 27.4145C33.7893 27.0394 34 26.5307 34 26.0002V14.0002C34 13.4698 33.7893 12.9611 33.4142 12.586C33.0391 12.211 32.5304 12.0002 32 12.0002C31.4696 12.0002 30.9609 12.211 30.5858 12.586C30.2107 12.9611 30 13.4698 30 14.0002V26.0002C30 26.5307 30.2107 27.0394 30.5858 27.4145C30.9609 27.7895 31.4696 28.0002 32 28.0002Z" fill="url(#paint3_linear_1_10132)"/>
<defs>
<linearGradient id="paint0_linear_1_10132" x1="47.1134" y1="22.7682" x2="0.886463" y2="25.2466" gradientUnits="userSpaceOnUse">
<stop stop-color="#F8E42E"/>
<stop offset="1" stop-color="#FF7D54"/>
</linearGradient>
<linearGradient id="paint1_linear_1_10132" x1="18.1012" y1="23.7749" x2="13.8897" y2="23.8878" gradientUnits="userSpaceOnUse">
<stop stop-color="#F8E42E"/>
<stop offset="1" stop-color="#FF7D54"/>
</linearGradient>
<linearGradient id="paint2_linear_1_10132" x1="26.1012" y1="21.6622" x2="21.888" y2="21.7375" gradientUnits="userSpaceOnUse">
<stop stop-color="#F8E42E"/>
<stop offset="1" stop-color="#FF7D54"/>
</linearGradient>
<linearGradient id="paint3_linear_1_10132" x1="34.1012" y1="19.5495" x2="29.8874" y2="19.606" gradientUnits="userSpaceOnUse">
<stop stop-color="#F8E42E"/>
<stop offset="1" stop-color="#FF7D54"/>
</linearGradient>
</defs>
</svg>
