<svg width="48" height="48" viewBox="0 0 48 48" fill="none" xmlns="http://www.w3.org/2000/svg">
<g clip-path="url(#clip0_1_10099)">
<path d="M33.8438 48.0002H14.1609C6.3525 48.0002 0 41.6477 0 33.844V14.1612C0 6.35274 6.3525 0.000244141 14.1609 0.000244141H33.8438C41.6475 0.000244141 48 6.35274 48 14.1612V33.844C48 41.6477 41.6475 48.0002 33.8438 48.0002ZM14.1609 3.87774C11.4346 3.88097 8.82083 4.96544 6.89301 6.89326C4.96519 8.82108 3.88073 11.4348 3.8775 14.1612V33.844C3.88197 36.5695 4.96698 39.1821 6.89466 41.1089C8.82235 43.0357 11.4354 44.1195 14.1609 44.1227H33.8438C36.5685 44.1183 39.1803 43.0339 41.107 41.1072C43.0337 39.1806 44.118 36.5687 44.1225 33.844V14.1612C44.1193 11.4356 43.0355 8.82259 41.1087 6.89491C39.1818 4.96722 36.5693 3.88221 33.8438 3.87774H14.1609Z" fill="url(#paint0_linear_1_10099)"/>
<path d="M35.0044 12.9852C32.8295 10.8103 30.0589 9.32865 27.0425 8.72733C24.0261 8.126 20.8992 8.43198 18.0566 9.60662C15.214 10.7813 12.7832 12.7719 11.0712 15.3271C9.35914 17.8823 8.44267 20.8876 8.4375 23.9633C8.44876 24.4809 8.66227 24.9734 9.03228 25.3355C9.40228 25.6975 9.89936 25.9003 10.417 25.9003C10.9347 25.9003 11.4318 25.6975 11.8018 25.3355C12.1718 24.9734 12.3853 24.4809 12.3966 23.9633C12.3966 17.5799 17.6016 12.3871 24 12.3871C30.3984 12.3871 35.6034 17.5799 35.6034 23.9633C35.6147 24.4809 35.8282 24.9734 36.1982 25.3355C36.5682 25.6975 37.0653 25.9003 37.583 25.9003C38.1006 25.9003 38.5977 25.6975 38.9677 25.3355C39.3377 24.9734 39.5512 24.4809 39.5625 23.9633C39.5676 21.9228 39.1673 19.9015 38.3849 18.017C37.6024 16.1324 36.4533 14.422 35.0044 12.9852Z" fill="url(#paint1_linear_1_10099)"/>
<path d="M31.4063 18.9016C30.9371 18.6665 30.3939 18.6271 29.8958 18.7922C29.3976 18.9572 28.9854 19.3132 28.7494 19.7819L24.75 27.7244C23.6699 27.5895 22.5735 27.7541 21.5805 28.2002C20.5876 28.6463 19.7363 29.3566 19.1198 30.2537C18.5032 31.1508 18.145 32.2001 18.0844 33.2869C18.0238 34.3738 18.263 35.4564 18.776 36.4165C19.289 37.3765 20.0559 38.1772 20.9931 38.7309C21.9303 39.2846 23.0016 39.5702 24.09 39.5563C25.1785 39.5424 26.2422 39.2296 27.1649 38.6522C28.0876 38.0747 28.8339 37.2548 29.3222 36.2819C29.8746 35.1826 30.072 33.9389 29.8873 32.7226C29.7026 31.5063 29.1448 30.3773 28.291 29.4916L32.2875 21.55C32.4042 21.3184 32.474 21.066 32.4929 20.8073C32.5117 20.5486 32.4793 20.2887 32.3974 20.0426C32.3155 19.7965 32.1858 19.569 32.0157 19.3732C31.8456 19.1774 31.6385 19.0171 31.4063 18.9016ZM25.7813 34.5119C25.5746 34.9236 25.2315 35.2509 24.8105 35.4381C24.3895 35.6252 23.9167 35.6606 23.4726 35.5381C23.0284 35.4157 22.6405 35.1431 22.3748 34.7667C22.1092 34.3903 21.9823 33.9334 22.0157 33.4739C22.0492 33.0144 22.2409 32.5807 22.5583 32.2468C22.8756 31.9128 23.299 31.6992 23.7561 31.6424C24.2133 31.5856 24.6761 31.6891 25.0655 31.9352C25.455 32.1813 25.747 32.5549 25.8919 32.9922C25.9747 33.2403 26.0076 33.5023 25.9886 33.7631C25.9696 34.0239 25.8991 34.2784 25.7813 34.5119Z" fill="url(#paint2_linear_1_10099)"/>
</g>
<defs>
<linearGradient id="paint0_linear_1_10099" x1="49.2147" y1="22.6479" x2="-1.21466" y2="25.3526" gradientUnits="userSpaceOnUse">
<stop stop-color="#F8E42E"/>
<stop offset="1" stop-color="#FF7D54"/>
</linearGradient>
<linearGradient id="paint1_linear_1_10099" x1="40.3502" y1="16.6713" x2="7.85242" y2="19.7761" gradientUnits="userSpaceOnUse">
<stop stop-color="#F8E42E"/>
<stop offset="1" stop-color="#FF7D54"/>
</linearGradient>
<linearGradient id="paint2_linear_1_10099" x1="32.863" y1="28.5364" x2="17.6875" y2="29.099" gradientUnits="userSpaceOnUse">
<stop stop-color="#F8E42E"/>
<stop offset="1" stop-color="#FF7D54"/>
</linearGradient>
<clipPath id="clip0_1_10099">
<rect width="48" height="48" fill="white" transform="translate(0 0.000244141)"/>
</clipPath>
</defs>
</svg>
