<svg width="48" height="48" viewBox="0 0 48 48" fill="none" xmlns="http://www.w3.org/2000/svg">
<path d="M47.0683 20.4609L38.6601 13.5373C37.7222 12.7649 36.361 12.7649 35.4231 13.5373L27.0149 20.4609C26.1745 21.153 25.869 22.2619 26.2367 23.2862C26.604 24.3108 27.5448 24.9726 28.6332 24.9726H30.4716C29.7472 32.0841 23.7234 37.6519 16.4237 37.6519L16.3702 37.6516C16.3589 37.6516 16.3475 37.6516 16.3362 37.6516C15.0533 37.6516 13.9924 38.5268 13.75 39.791C13.5054 41.0643 14.1796 42.2787 15.3895 42.7441C17.745 43.6501 20.2297 44.1094 22.7745 44.1094C28.271 44.1094 33.4386 41.9689 37.3252 38.0822C40.8705 34.5369 42.9627 29.9267 43.3033 24.9726H45.4496C46.538 24.9726 47.4788 24.3108 47.8461 23.2862C48.2138 22.2619 47.9084 21.153 47.0683 20.4609ZM41.9113 22.0901C41.1155 22.0901 40.4703 22.7354 40.4703 23.5312C40.4703 33.2885 32.5319 41.2269 22.7745 41.2269C21.0383 41.2269 19.3351 40.9786 17.6948 40.4875C26.4791 39.8353 33.4273 32.4792 33.4273 23.5312C33.4273 22.7354 32.782 22.0901 31.9859 22.0901H29.5711L37.0418 15.9385L44.5121 22.0901H41.9113Z" fill="url(#paint0_linear_1_10212)"/>
<path d="M21.7631 24.8544C21.3955 23.8298 20.455 23.168 19.3667 23.168H17.5283C18.2526 16.0565 24.2765 10.4887 31.5758 10.4887L31.6296 10.489H31.6637C32.9465 10.489 34.0074 9.61342 34.2499 8.34962C34.4941 7.07594 33.8199 5.86194 32.6103 5.39649C30.2549 4.49048 27.7701 4.03125 25.2253 4.03125C19.7285 4.03125 14.5612 6.17176 10.6742 10.0584C7.12932 13.6033 5.03678 18.2139 4.69657 23.168H2.54984C1.46146 23.168 0.520658 23.8298 0.153348 24.8544C-0.213963 25.8787 0.0914577 26.9876 0.931548 27.6794L9.33977 34.6033C9.80889 34.9893 10.3835 35.1827 10.9584 35.1823C11.533 35.1823 12.108 34.9893 12.5767 34.6033L20.9849 27.6794C21.825 26.9876 22.1305 25.8787 21.7631 24.8544ZM10.9581 32.2021L3.48771 26.0505H6.08854C6.88432 26.0505 7.52959 25.4052 7.52959 24.6091C7.52959 14.8517 15.468 6.9137 25.2249 6.9137C26.9615 6.9137 28.6648 7.162 30.305 7.65308C21.5203 8.30531 14.5726 15.661 14.5726 24.6091C14.5726 25.4052 15.2178 26.0505 16.014 26.0505H18.4288L10.9581 32.2021Z" fill="url(#paint1_linear_1_10212)"/>
<defs>
<linearGradient id="paint0_linear_1_10212" x1="48.8677" y1="27.656" x2="12.8542" y2="29.7827" gradientUnits="userSpaceOnUse">
<stop stop-color="#F8E42E"/>
<stop offset="1" stop-color="#FF7D54"/>
</linearGradient>
<linearGradient id="paint1_linear_1_10212" x1="35.1675" y1="18.7291" x2="-0.84603" y2="20.8559" gradientUnits="userSpaceOnUse">
<stop stop-color="#F8E42E"/>
<stop offset="1" stop-color="#FF7D54"/>
</linearGradient>
</defs>
</svg>
