<svg width="48" height="48" viewBox="0 0 48 48" fill="none" xmlns="http://www.w3.org/2000/svg">
<g clip-path="url(#clip0_1_10091)">
<path d="M46.395 27.1956C45.9693 27.1956 45.5611 27.3647 45.2601 27.6657C44.9591 27.9667 44.79 28.3749 44.79 28.8006V36.7956C44.79 38.0686 44.2843 39.2895 43.3841 40.1897C42.4839 41.0898 41.263 41.5956 39.99 41.5956H7.995C6.72196 41.5956 5.50106 41.0898 4.60089 40.1897C3.70071 39.2895 3.195 38.0686 3.195 36.7956V25.3956C4.91655 27.1654 7.1725 28.3197 9.615 28.6806C9.615 28.6806 9.615 28.7556 9.615 28.8006C9.615 29.2262 9.7841 29.6345 10.0851 29.9355C10.3861 30.2365 10.7943 30.4056 11.22 30.4056H16.02C16.4457 30.4056 16.8539 30.2365 17.1549 29.9355C17.4559 29.6345 17.625 29.2262 17.625 28.8006H30.42C30.42 29.2262 30.5891 29.6345 30.8901 29.9355C31.1911 30.2365 31.5993 30.4056 32.025 30.4056H36.825C37.2454 30.3977 37.646 30.2251 37.9406 29.925C38.2351 29.6248 38.4001 29.2211 38.4 28.8006C38.4 28.8006 38.4 28.7256 38.4 28.6806C40.8915 28.3152 43.1894 27.1278 44.9287 25.3069C46.6681 23.486 47.7491 21.1361 48 18.6306C48.003 18.5756 48.003 18.5205 48 18.4656C48.003 18.4106 48.003 18.3555 48 18.3006C47.7854 16.3435 46.8548 14.5348 45.3873 13.2223C43.9197 11.9099 42.0188 11.1862 40.05 11.1906H35.25V7.99556C35.25 6.72252 34.7443 5.50162 33.8441 4.60144C32.9439 3.70127 31.723 3.19556 30.45 3.19556H17.595C16.322 3.19556 15.1011 3.70127 14.2009 4.60144C13.3007 5.50162 12.795 6.72252 12.795 7.99556V12.7956C12.795 13.2212 12.9641 13.6295 13.2651 13.9305C13.5661 14.2315 13.9743 14.4006 14.4 14.4006H40.005C41.1537 14.3998 42.264 14.8136 43.132 15.5659C44 16.3182 44.5675 17.3585 44.73 18.4956C44.4999 20.4436 43.5669 22.2408 42.1059 23.5499C40.645 24.8589 38.7566 25.5899 36.795 25.6056H11.205C9.24344 25.5899 7.35501 24.8589 5.89406 23.5499C4.43312 22.2408 3.50007 20.4436 3.27 18.4956C3.43844 17.3611 4.00755 16.3244 4.87429 15.5732C5.74102 14.822 6.84807 14.406 7.995 14.4006C8.21779 14.4222 8.44265 14.3969 8.65511 14.3265C8.86758 14.256 9.06296 14.1419 9.2287 13.9915C9.39445 13.8411 9.52689 13.6576 9.61753 13.4529C9.70816 13.2483 9.75498 13.0269 9.75498 12.8031C9.75498 12.5792 9.70816 12.3579 9.61753 12.1532C9.52689 11.9485 9.39445 11.7651 9.2287 11.6146C9.06296 11.4642 8.86758 11.3501 8.65511 11.2796C8.44265 11.2092 8.21779 11.1839 7.995 11.2056C5.87581 11.2095 3.84456 12.0531 2.34606 13.5516C0.847566 15.0501 0.00396481 17.0814 0 19.2006L0 36.7956C0.00396481 38.9147 0.847566 40.946 2.34606 42.4445C3.84456 43.943 5.87581 44.7866 7.995 44.7906H40.005C42.1242 44.7866 44.1554 43.943 45.6539 42.4445C47.1524 40.946 47.996 38.9147 48 36.7956V28.8006C48 28.3749 47.8309 27.9667 47.5299 27.6657C47.2289 27.3647 46.8207 27.1956 46.395 27.1956ZM17.595 6.40556H30.39C30.8157 6.40556 31.2239 6.57465 31.5249 6.87565C31.8259 7.17665 31.995 7.58488 31.995 8.01056V11.2056H16.005V7.99556C16.0089 7.57507 16.1777 7.17292 16.475 6.87558C16.7724 6.57824 17.1745 6.40947 17.595 6.40556Z" fill="url(#paint0_linear_1_10091)"/>
</g>
<defs>
<linearGradient id="paint0_linear_1_10091" x1="49.217" y1="22.8212" x2="-1.16677" y2="25.9397" gradientUnits="userSpaceOnUse">
<stop stop-color="#F8E42E"/>
<stop offset="1" stop-color="#FF7D54"/>
</linearGradient>
<clipPath id="clip0_1_10091">
<rect width="48" height="48" fill="white" transform="translate(0 0.000244141)"/>
</clipPath>
</defs>
</svg>
