<svg width="116" height="36" viewBox="0 0 116 36" fill="none" xmlns="http://www.w3.org/2000/svg">
<g clip-path="url(#clip0_1_12433)">
<path d="M25.1555 7.4623C25.1367 7.29355 24.9867 7.21855 24.8742 7.21855C24.7617 7.21855 22.3055 7.03105 22.3055 7.03105C22.3055 7.03105 20.5992 5.3248 20.393 5.15605C20.2055 4.96855 19.8492 5.0248 19.6992 5.0623C19.6805 5.0623 19.3242 5.1748 18.743 5.3623C18.1617 3.69355 17.168 2.1748 15.3867 2.1748H15.218C14.7305 1.5373 14.093 1.2373 13.568 1.2373C9.44297 1.2373 7.45547 6.39355 6.83672 9.01855C5.22422 9.5248 4.08047 9.8623 3.94922 9.91855C3.04922 10.1998 3.03047 10.2186 2.91797 11.0623C2.82422 11.6998 0.480469 29.8311 0.480469 29.8311L18.7242 33.2435L28.6242 31.1061C28.643 31.0686 25.1742 7.63105 25.1555 7.4623ZM17.7305 5.6248C17.2805 5.75605 16.7367 5.9248 16.193 6.1123V5.7748C16.193 4.7623 16.0617 3.9373 15.818 3.28105C16.7555 3.39355 17.3367 4.4248 17.7305 5.6248ZM14.6742 3.4873C14.918 4.1248 15.0867 5.0248 15.0867 6.2623V6.4498C14.0742 6.76855 13.0055 7.0873 11.8992 7.44355C12.518 5.08105 13.6992 3.91855 14.6742 3.4873ZM13.4742 2.3248C13.6617 2.3248 13.8492 2.3998 13.9992 2.5123C12.668 3.13105 11.2617 4.6873 10.6805 7.8373C9.79922 8.11855 8.95547 8.3623 8.14922 8.6248C8.82422 6.2248 10.5117 2.3248 13.4742 2.3248Z" fill="#F2F6FA" fill-opacity="0.6"/>
<path d="M24.875 7.18135C24.7625 7.18135 22.3063 6.99385 22.3063 6.99385C22.3063 6.99385 20.6 5.2876 20.3937 5.11885C20.3187 5.04385 20.225 5.00635 20.15 5.00635L18.7812 33.2438L28.6813 31.1063C28.6813 31.1063 25.2125 7.63135 25.1937 7.4626C25.1188 7.29385 24.9875 7.21885 24.875 7.18135Z" fill="#F2F6FA"/>
<path d="M15.3883 12.6563L14.1883 16.275C14.1883 16.275 13.1008 15.6938 11.807 15.6938C9.87578 15.6938 9.78203 16.9125 9.78203 17.2125C9.78203 18.8625 14.0945 19.5 14.0945 23.3813C14.0945 26.4375 12.1633 28.4063 9.55703 28.4063C6.40703 28.4063 4.83203 26.4563 4.83203 26.4563L5.67578 23.6813C5.67578 23.6813 7.32578 25.1063 8.71328 25.1063C9.63203 25.1063 10.007 24.3938 10.007 23.8688C10.007 21.7125 6.48203 21.6188 6.48203 18.0563C6.48203 15.075 8.61953 12.1875 12.9508 12.1875C14.5633 12.1688 15.3883 12.6563 15.3883 12.6563Z" fill="#211439"/>
<path d="M40.1758 19.4623C39.182 18.9373 38.6758 18.4685 38.6758 17.8498C38.6758 17.0623 39.3883 16.5561 40.4945 16.5561C41.7883 16.5561 42.932 17.0811 42.932 17.0811L43.832 14.3248C43.832 14.3248 43.007 13.6873 40.5695 13.6873C37.1758 13.6873 34.8133 15.6373 34.8133 18.3748C34.8133 19.9311 35.9195 21.1123 37.382 21.9561C38.582 22.6123 38.9945 23.0998 38.9945 23.8123C38.9945 24.5436 38.3945 25.1436 37.2883 25.1436C35.657 25.1436 34.1008 24.2998 34.1008 24.2998L33.1445 27.0561C33.1445 27.0561 34.5695 28.0123 36.9695 28.0123C40.457 28.0123 42.9883 26.2873 42.9883 23.1936C42.9508 21.5061 41.6945 20.3436 40.1758 19.4623ZM54.0883 13.6498C52.3633 13.6498 51.0133 14.4748 49.982 15.7123L49.9445 15.6936L51.4445 7.89355H47.5633L43.7758 27.7686H47.657L48.9508 20.9811C49.457 18.4123 50.7883 16.8186 52.0258 16.8186C52.907 16.8186 53.2445 17.4186 53.2445 18.2623C53.2445 18.7873 53.207 19.4623 53.0758 19.9873L51.6133 27.7686H55.4945L57.0133 19.7436C57.182 18.8998 57.2945 17.8873 57.2945 17.1936C57.2758 14.9623 56.132 13.6498 54.0883 13.6498ZM66.0695 13.6498C61.382 13.6498 58.2883 17.8686 58.2883 22.5748C58.2883 25.5748 60.1445 28.0123 63.632 28.0123C68.2258 28.0123 71.3195 23.9061 71.3195 19.0873C71.3383 16.2936 69.7258 13.6498 66.0695 13.6498ZM64.157 25.0498C62.8258 25.0498 62.282 23.9248 62.282 22.4998C62.282 20.2686 63.4258 16.6498 65.5445 16.6498C66.9133 16.6498 67.382 17.8498 67.382 18.9936C67.382 21.3748 66.2008 25.0498 64.157 25.0498ZM81.2758 13.6498C78.6508 13.6498 77.1695 15.9748 77.1695 15.9748H77.132L77.357 13.8936H73.907C73.7383 15.2998 73.4195 17.4561 73.1195 19.0498L70.4383 33.2811H74.3195L75.407 27.5248H75.5008C75.5008 27.5248 76.307 28.0311 77.7695 28.0311C82.3445 28.0311 85.3258 23.3436 85.3258 18.6186C85.307 15.9936 84.1258 13.6498 81.2758 13.6498ZM77.5633 25.0873C76.5508 25.0873 75.9508 24.5061 75.9508 24.5061L76.5883 20.8873C77.0383 18.4498 78.3133 16.8561 79.6633 16.8561C80.8633 16.8561 81.2195 17.9623 81.2195 18.9936C81.2383 21.5061 79.7383 25.0873 77.5633 25.0873ZM90.857 8.08105C89.6195 8.08105 88.6258 9.0748 88.6258 10.3311C88.6258 11.4748 89.357 12.2811 90.4633 12.2811H90.5008C91.7195 12.2811 92.7508 11.4561 92.7695 10.0311C92.7883 8.8873 92.0195 8.08105 90.857 8.08105ZM85.4195 27.7498H89.3008L91.9258 13.9498H88.0258M101.826 13.9311H99.1258L99.257 13.2936C99.482 11.9623 100.27 10.7998 101.582 10.7998C102.276 10.7998 102.82 11.0061 102.82 11.0061L103.57 7.9498C103.57 7.9498 102.913 7.6123 101.451 7.6123C100.082 7.6123 98.6945 8.00605 97.6445 8.90605C96.3133 10.0311 95.6945 11.6623 95.3945 13.3123L95.282 13.9498H93.4633L92.882 16.8936H94.7008L92.6383 27.7686H96.5195L98.582 16.8936H101.263L101.826 13.9311ZM111.182 13.9498C111.182 13.9498 108.745 20.0811 107.676 23.4373H107.638C107.563 22.3498 106.682 13.9498 106.682 13.9498H102.595L104.938 26.5873C104.976 26.8686 104.957 27.0373 104.845 27.2248C104.395 28.1061 103.626 28.9498 102.726 29.5686C101.995 30.0935 101.17 30.4498 100.513 30.6748L101.601 33.9748C102.388 33.806 104.038 33.1498 105.407 31.8561C107.17 30.2061 108.82 27.6373 110.507 24.1498L115.251 13.9311H111.182V13.9498Z" fill="#F2F6FA"/>
</g>
<defs>
<clipPath id="clip0_1_12433">
<rect width="114.75" height="36" fill="white" transform="translate(0.5)"/>
</clipPath>
</defs>
</svg>
