<svg width="15" height="12" viewBox="0 0 15 12" fill="none" xmlns="http://www.w3.org/2000/svg">
<path d="M7.49978 0C11.0944 0 14.0851 2.58667 14.7124 6C14.0858 9.41333 11.0944 12 7.49978 12C3.90511 12 0.914443 9.41333 0.287109 6C0.913776 2.58667 3.90511 0 7.49978 0ZM7.49978 10.6667C8.85942 10.6664 10.1787 10.2045 11.2417 9.35678C12.3047 8.50901 13.0484 7.32552 13.3511 6C13.0473 4.67554 12.3031 3.49334 11.2402 2.64668C10.1773 1.80003 8.85865 1.33902 7.49978 1.33902C6.14091 1.33902 4.82224 1.80003 3.75936 2.64668C2.69648 3.49334 1.95229 4.67554 1.64844 6C1.95117 7.32552 2.69489 8.50901 3.75787 9.35678C4.82085 10.2045 6.14013 10.6664 7.49978 10.6667ZM7.49978 9C6.70413 9 5.94107 8.68393 5.37846 8.12132C4.81585 7.55871 4.49978 6.79565 4.49978 6C4.49978 5.20435 4.81585 4.44129 5.37846 3.87868C5.94107 3.31607 6.70413 3 7.49978 3C8.29543 3 9.05849 3.31607 9.6211 3.87868C10.1837 4.44129 10.4998 5.20435 10.4998 6C10.4998 6.79565 10.1837 7.55871 9.6211 8.12132C9.05849 8.68393 8.29543 9 7.49978 9ZM7.49978 7.66667C7.9418 7.66667 8.36573 7.49107 8.67829 7.17851C8.99085 6.86595 9.16644 6.44203 9.16644 6C9.16644 5.55797 8.99085 5.13405 8.67829 4.82149C8.36573 4.50893 7.9418 4.33333 7.49978 4.33333C7.05775 4.33333 6.63383 4.50893 6.32127 4.82149C6.0087 5.13405 5.83311 5.55797 5.83311 6C5.83311 6.44203 6.0087 6.86595 6.32127 7.17851C6.63383 7.49107 7.05775 7.66667 7.49978 7.66667Z" fill="#BFC1C9"/>
</svg>
