<svg width="48" height="48" viewBox="0 0 48 48" fill="none" xmlns="http://www.w3.org/2000/svg">
<mask id="mask0_1_10422" style="mask-type:alpha" maskUnits="userSpaceOnUse" x="5" y="6" width="38" height="37">
<path d="M12.0537 16.928C11.3332 16.93 10.6194 16.7891 9.95368 16.5134C9.28797 16.2377 8.68356 15.8327 8.17543 15.3218L5.78579 13.1986C5.32033 12.783 5.03903 12.1995 5.00376 11.5765C4.9863 11.268 5.02977 10.9591 5.13169 10.6675C5.23361 10.3758 5.39197 10.107 5.59775 9.87658C5.80353 9.64611 6.05269 9.45842 6.331 9.32424C6.60932 9.19006 6.91133 9.11201 7.21981 9.09455C7.8428 9.05929 8.45429 9.27295 8.91975 9.68854L11.4018 11.9042C11.4827 11.9998 11.5822 12.0777 11.6943 12.1332C11.8064 12.1887 11.9288 12.2207 12.0537 12.227C12.2611 12.227 12.46 12.1447 12.6069 11.9983L18.2683 6.60786C18.7229 6.19652 19.3202 5.97907 19.9329 6.00187C20.5455 6.02468 21.125 6.28594 21.5477 6.72994C21.9704 7.17393 22.203 7.76552 22.1957 8.37854C22.1885 8.99155 21.942 9.57747 21.5089 10.0113L15.8897 15.361C15.3848 15.8617 14.7861 16.2578 14.1278 16.5267C13.4696 16.7956 12.7647 16.932 12.0537 16.928ZM42.6098 11.4436C42.6098 10.8202 42.3622 10.2223 41.9214 9.78152C41.4806 9.34073 40.8827 9.09309 40.2593 9.09309H27.7235C27.1001 9.09309 26.5023 9.34073 26.0615 9.78152C25.6207 10.2223 25.373 10.8202 25.373 11.4436C25.373 12.0669 25.6207 12.6648 26.0615 13.1056C26.5023 13.5464 27.1001 13.794 27.7235 13.794H40.2593C40.8827 13.794 41.4806 13.5464 41.9214 13.1056C42.3622 12.6648 42.6098 12.0669 42.6098 11.4436ZM15.8897 27.8968L21.5089 22.5472C21.942 22.1133 22.1885 21.5274 22.1957 20.9144C22.203 20.3014 21.9704 19.7098 21.5477 19.2658C21.125 18.8218 20.5455 18.5605 19.9329 18.5377C19.3202 18.5149 18.7229 18.7324 18.2683 19.1437L12.6069 24.5341C12.4599 24.681 12.2607 24.7635 12.0529 24.7635C11.8452 24.7635 11.6459 24.681 11.499 24.5341L9.01534 22.0489C8.5744 21.6079 7.97635 21.3602 7.35277 21.3602C6.72919 21.3602 6.13114 21.6079 5.6902 22.0489C5.24926 22.4898 5.00155 23.0879 5.00155 23.7114C5.00155 24.335 5.24926 24.9331 5.6902 25.374L8.17543 27.8577C9.19705 28.8787 10.5802 29.4555 12.0245 29.4628C13.4688 29.4701 14.8577 28.9074 15.8897 27.8968ZM42.6098 23.9794C42.6098 23.356 42.3622 22.7582 41.9214 22.3174C41.4806 21.8766 40.8827 21.6289 40.2593 21.6289H27.7235C27.1001 21.6289 26.5023 21.8766 26.0615 22.3174C25.6207 22.7582 25.373 23.356 25.373 23.9794C25.373 24.6028 25.6207 25.2006 26.0615 25.6414C26.5023 26.0822 27.1001 26.3299 27.7235 26.3299H40.2593C40.8827 26.3299 41.4806 26.0822 41.9214 25.6414C42.3622 25.2006 42.6098 24.6028 42.6098 23.9794ZM15.8897 40.4327L21.5089 35.083C21.942 34.6491 22.1885 34.0632 22.1957 33.4502C22.203 32.8372 21.9704 32.2456 21.5477 31.8016C21.125 31.3576 20.5455 31.0963 19.9329 31.0735C19.3202 31.0507 18.7229 31.2682 18.2683 31.6795L12.6069 37.0699C12.46 37.2164 12.2611 37.2987 12.0537 37.2987C11.9288 37.2923 11.8064 37.2604 11.6943 37.2049C11.5822 37.1493 11.4827 37.0714 11.4018 36.9759L8.91975 34.7602C8.45429 34.3446 7.8428 34.131 7.21981 34.1662C6.59681 34.2015 6.01334 34.4828 5.59775 34.9482C5.18216 35.4137 4.9685 36.0252 5.00376 36.6482C5.03903 37.2712 5.32033 37.8547 5.78579 38.2702L8.1723 40.3935C9.19404 41.4155 10.5778 41.9928 12.0229 42.0002C13.468 42.0075 14.8576 41.4442 15.8897 40.4327ZM42.6098 36.5152C42.6098 35.8918 42.3622 35.294 41.9214 34.8532C41.4806 34.4124 40.8827 34.1648 40.2593 34.1648H27.7235C27.1001 34.1648 26.5023 34.4124 26.0615 34.8532C25.6207 35.294 25.373 35.8918 25.373 36.5152C25.373 37.1386 25.6207 37.7365 26.0615 38.1773C26.5023 38.6181 27.1001 38.8657 27.7235 38.8657H40.2593C40.8827 38.8657 41.4806 38.6181 41.9214 38.1773C42.3622 37.7365 42.6098 37.1386 42.6098 36.5152Z" fill="#48E6C7"/>
</mask>
<g mask="url(#mask0_1_10422)">
<rect x="5" y="6" width="39" height="36" fill="url(#paint0_linear_1_10422)"/>
</g>
<defs>
<linearGradient id="paint0_linear_1_10422" x1="48.038" y1="14.88" x2="2.15525" y2="35.744" gradientUnits="userSpaceOnUse">
<stop stop-color="#4AF2C8"/>
<stop offset="1" stop-color="#2F4CB3"/>
</linearGradient>
</defs>
</svg>
