<svg width="50" height="48" viewBox="0 0 50 48" fill="none" xmlns="http://www.w3.org/2000/svg">
<mask id="mask0_38_2421" style="mask-type:alpha" maskUnits="userSpaceOnUse" x="4" y="4" width="40" height="40">
<path fill-rule="evenodd" clip-rule="evenodd" d="M18.5039 19.5C17.6755 19.5 17.0039 20.1716 17.0039 21C17.0039 21.8284 17.6755 22.5 18.5039 22.5C19.3323 22.5 20.0038 21.8284 20.0038 21C20.0038 20.1716 19.3323 19.5 18.5039 19.5ZM14.0039 21C14.0039 18.5147 16.0186 16.5 18.5039 16.5C20.9892 16.5 23.0038 18.5147 23.0038 21C23.0038 23.4852 20.9892 25.5 18.5039 25.5C16.0186 25.5 14.0039 23.4852 14.0039 21Z" fill="#48E6C7"/>
<path fill-rule="evenodd" clip-rule="evenodd" d="M30.5039 29.5C29.6755 29.5 29.0039 30.1716 29.0039 31C29.0039 31.8284 29.6755 32.5 30.5039 32.5C31.3323 32.5 32.0039 31.8284 32.0039 31C32.0039 30.1716 31.3323 29.5 30.5039 29.5ZM26.0039 31C26.0039 28.5148 28.0187 26.5 30.5039 26.5C32.9893 26.5 35.0039 28.5148 35.0039 31C35.0039 33.4852 32.9893 35.5 30.5039 35.5C28.0187 35.5 26.0039 33.4852 26.0039 31Z" fill="#48E6C7"/>
<path fill-rule="evenodd" clip-rule="evenodd" d="M38.5039 13.5C37.6755 13.5 37.0039 14.1716 37.0039 15C37.0039 15.8284 37.6755 16.5 38.5039 16.5C39.3323 16.5 40.0039 15.8284 40.0039 15C40.0039 14.1716 39.3323 13.5 38.5039 13.5ZM34.0039 15C34.0039 12.5147 36.0187 10.5 38.5039 10.5C40.9893 10.5 43.0039 12.5147 43.0039 15C43.0039 17.4853 40.9893 19.5 38.5039 19.5C36.0187 19.5 34.0039 17.4853 34.0039 15Z" fill="#48E6C7"/>
<path fill-rule="evenodd" clip-rule="evenodd" d="M38.158 16.6504C38.9036 17.0116 39.2152 17.9088 38.854 18.6543L33.7222 29.2469C33.361 29.9923 32.4638 30.3039 31.7182 29.9427C30.9726 29.5815 30.661 28.6843 31.0222 27.9389L36.1542 17.3463C36.5154 16.6008 37.4126 16.2892 38.158 16.6504ZM19.471 22.2347C19.9694 21.5729 20.91 21.4407 21.5716 21.9391L28.8142 27.3947C29.4758 27.8931 29.6082 28.8337 29.1098 29.4953C28.6114 30.1571 27.6708 30.2895 27.0092 29.7909L19.7666 24.3353C19.1049 23.8369 18.9726 22.8963 19.471 22.2347ZM17.4959 22.4979C18.1922 22.9467 18.3928 23.8749 17.944 24.5713L8.76488 38.8129C8.31608 39.5093 7.38778 39.7099 6.69146 39.2611C5.99512 38.8123 5.79448 37.8839 6.24328 37.1877L15.4224 22.9461C15.8712 22.2497 16.7995 22.0491 17.4959 22.4979Z" fill="#48E6C7"/>
<path fill-rule="evenodd" clip-rule="evenodd" d="M5.50391 4.5C6.33233 4.5 7.00391 5.17158 7.00391 6V28C7.00391 31.3422 7.00709 33.698 7.24681 35.481C7.48073 37.2208 7.91485 38.1892 8.61483 38.889C9.31479 39.589 10.283 40.0232 12.0229 40.257C13.8059 40.4968 16.1617 40.5 19.5039 40.5H41.5038C42.3322 40.5 43.0038 41.1716 43.0038 42C43.0038 42.8284 42.3322 43.5 41.5038 43.5H19.3924C16.1872 43.5 13.6293 43.5 11.6231 43.2304C9.55061 42.9516 7.84379 42.3606 6.49351 41.0104C5.14323 39.6602 4.55221 37.9534 4.27357 35.8808C4.00385 33.8746 4.00387 31.3166 4.00391 28.1114V6C4.00391 5.17158 4.67549 4.5 5.50391 4.5Z" fill="#48E6C7"/>
</mask>
<g mask="url(#mask0_38_2421)">
<rect x="2" y="3" width="44" height="41" fill="url(#paint0_linear_38_2421)"/>
</g>
<defs>
<linearGradient id="paint0_linear_38_2421" x1="50.5557" y1="13.1134" x2="-1.37562" y2="36.5063" gradientUnits="userSpaceOnUse">
<stop stop-color="#4AF2C8"/>
<stop offset="1" stop-color="#2F4CB3"/>
</linearGradient>
</defs>
</svg>
