<svg width="48" height="48" viewBox="0 0 48 48" fill="none" xmlns="http://www.w3.org/2000/svg">
<mask id="mask0_38_2394" style="mask-type:alpha" maskUnits="userSpaceOnUse" x="6" y="6" width="36" height="36">
<path d="M39.0542 15.205H8.92885C7.32217 15.205 6 13.8828 6 12.2761V8.92885C6 7.32217 7.32217 6 8.92885 6H39.0542C40.6609 6 41.9831 7.32217 41.9831 8.92885V12.2761C41.9831 13.8828 40.6609 15.205 39.0542 15.205ZM8.92885 8.51045C8.69455 8.51045 8.51045 8.69455 8.51045 8.92885V12.2761C8.51045 12.5104 8.69455 12.6945 8.92885 12.6945H39.0542C39.2885 12.6945 39.4726 12.5104 39.4726 12.2761V8.92885C39.4726 8.69455 39.2885 8.51045 39.0542 8.51045H8.92885Z" fill="#48E6C7"/>
<path d="M20.6437 41.9831C20.1081 41.9831 19.5726 41.8325 19.104 41.548C18.2337 41.0124 17.7148 40.0752 17.7148 39.0543V30.0501C17.7148 29.364 18.2839 28.7949 18.9701 28.7949H29.0119C29.698 28.7949 30.2671 29.364 30.2671 30.0501V35.707C30.2671 36.8284 29.6478 37.8325 28.6437 38.3346L21.9491 41.6819C21.5307 41.8827 21.0788 41.9999 20.6437 41.9999V41.9831ZM20.2253 31.3054V39.0543C20.2253 39.2551 20.3424 39.3723 20.4261 39.4057C20.4931 39.456 20.6437 39.5229 20.8278 39.4225L27.5223 36.0752C27.6562 36.0083 27.7566 35.8576 27.7566 35.707V31.3054H20.2253Z" fill="#48E6C7"/>
<path d="M29.0133 31.3051H18.9715C18.5364 31.3051 18.1347 31.0875 17.9004 30.7193L7.85859 14.619C7.62428 14.2341 7.60754 13.7487 7.82512 13.3471C8.04269 12.9454 8.4611 12.6943 8.92971 12.6943H39.0551C39.507 12.6943 39.9254 12.9454 40.1597 13.3471C40.3772 13.7487 40.3605 14.2341 40.1262 14.619L30.0844 30.7193C29.8501 31.0875 29.4484 31.3051 29.0133 31.3051ZM19.6744 28.7947H28.3271L36.7957 15.2048H11.1891L19.6577 28.7947H19.6744Z" fill="#48E6C7"/>
</mask>
<g mask="url(#mask0_38_2394)">
<rect x="2" y="3" width="44" height="41" fill="url(#paint0_linear_38_2394)"/>
</g>
<defs>
<linearGradient id="paint0_linear_38_2394" x1="50.5557" y1="13.1134" x2="-1.37562" y2="36.5063" gradientUnits="userSpaceOnUse">
<stop stop-color="#4AF2C8"/>
<stop offset="1" stop-color="#2F4CB3"/>
</linearGradient>
</defs>
</svg>
