<svg width="48" height="48" viewBox="0 0 48 48" fill="none" xmlns="http://www.w3.org/2000/svg">
<mask id="mask0_38_2355" style="mask-type:alpha" maskUnits="userSpaceOnUse" x="6" y="6" width="36" height="36">
<path d="M41.9741 37.1336L41.0073 29.4183C40.888 28.4994 40.4866 27.6401 39.8586 26.9587C39.2305 26.2774 38.4067 25.8075 37.5005 25.6139V16.2239C38.3754 15.9158 39.1336 15.3443 39.6707 14.588C40.2079 13.8317 40.4977 12.9276 40.5005 12V10.5C40.5005 9.3065 40.0264 8.16192 39.1825 7.31801C38.3385 6.4741 37.194 6 36.0005 6C34.807 6 33.6624 6.4741 32.8185 7.31801C31.9746 8.16192 31.5005 9.3065 31.5005 10.5V12C31.5034 12.9275 31.7933 13.8315 32.3304 14.5877C32.8676 15.3439 33.6256 15.9153 34.5005 16.2235V25.6199C33.5954 25.8136 32.7725 26.2827 32.1446 26.9627C31.5167 27.6428 31.1147 28.5005 30.9937 29.4181L30.0269 37.1335V37.1378C30.0065 37.3177 29.9977 37.4988 30.0005 37.6798C30.0018 38.8251 30.4574 39.9232 31.2673 40.733C32.0771 41.5429 33.1752 41.9985 34.3205 41.9998H37.6805C38.2915 41.9911 38.8941 41.8548 39.4493 41.5995C40.0045 41.3442 40.5002 40.9755 40.9046 40.5173C41.3089 40.059 41.6129 39.5213 41.797 38.9385C41.9812 38.3558 42.0416 37.741 41.9741 37.1336ZM34.5005 10.5C34.5005 10.1021 34.6585 9.72062 34.9398 9.43932C35.2211 9.15801 35.6027 8.99998 36.0005 8.99998C36.3983 8.99998 36.7798 9.15801 37.0611 9.43932C37.3425 9.72062 37.5005 10.1021 37.5005 10.5V12C37.5005 12.3978 37.3425 12.7793 37.0611 13.0606C36.7798 13.3419 36.3983 13.5 36.0005 13.5C35.6027 13.5 35.2211 13.3419 34.9398 13.0606C34.6585 12.7793 34.5005 12.3978 34.5005 12V10.5ZM37.6805 38.9998H34.3205C33.9705 38.9995 33.6349 38.8604 33.3874 38.6129C33.1399 38.3654 33.0008 38.0298 33.0005 37.6798C32.9985 37.6212 32.9995 37.5625 33.0035 37.504L33.9703 29.7903C34.0326 29.4189 34.2273 29.0827 34.5184 28.8438C34.8095 28.6049 35.1773 28.4795 35.5536 28.4909L36.0005 28.4999L36.4517 28.491C36.8302 28.4687 37.2032 28.5902 37.496 28.8312C37.7887 29.0721 37.9797 29.4147 38.0307 29.7904L38.9975 37.5013C39.0015 37.5607 39.0025 37.6203 39.0005 37.6798C39.0002 38.0298 38.8611 38.3654 38.6136 38.6129C38.3661 38.8604 38.0305 38.9995 37.6805 38.9998Z" fill="#48E6C7"/>
<path d="M19.6799 42H16.3199C15.1746 41.9987 14.0766 41.5431 13.2667 40.7333C12.4568 39.9234 12.0013 38.8254 12 37.68C11.9971 37.499 12.0059 37.318 12.0264 37.1381L12.8613 30.4687C12.9584 29.6633 12.8367 28.8467 12.5091 28.1046C12.1815 27.3626 11.66 26.7224 10.9995 26.2516C9.45796 25.1393 8.20143 23.6781 7.33254 21.9874C6.46365 20.2967 6.00703 18.4245 6 16.5236L6 16.5002C6.0008 14.6596 6.39774 12.8409 7.16385 11.1674C7.92997 9.49386 9.04731 8.00486 10.44 6.80153C11.0968 6.27396 11.9164 5.99074 12.7588 6.00023C13.7507 6.00138 14.7016 6.39591 15.4029 7.09725C16.1043 7.7986 16.4988 8.7495 16.4999 9.74136V12.0002C16.4999 12.398 16.658 12.7795 16.9393 13.0608C17.2206 13.3421 17.6021 13.5002 17.9999 13.5002C18.3977 13.5002 18.7793 13.3421 19.0606 13.0608C19.3419 12.7795 19.4999 12.398 19.4999 12.0002V9.74136C19.5011 8.7495 19.8956 7.7986 20.5969 7.09725C21.2983 6.39591 22.2492 6.00138 23.241 6.00023C24.0835 5.99074 24.903 6.27396 25.5599 6.80153C26.9525 8.00486 28.0699 9.49386 28.836 11.1674C29.6021 12.8409 29.999 14.6596 29.9998 16.5002C29.9978 18.8404 29.3123 21.1291 28.0275 23.0852C26.7428 25.0413 24.9148 26.5797 22.7679 27.5113L23.9735 37.1339C24.041 37.7413 23.9808 38.3561 23.7966 38.9388C23.6124 39.5215 23.3084 40.0593 22.9041 40.5176C22.4997 40.9758 22.004 41.3444 21.4488 41.5997C20.8935 41.855 20.291 41.9914 19.6799 42ZM15.7133 28.2818C15.9024 29.1212 15.9445 29.987 15.8378 30.8408L15.0029 37.5059C14.9989 37.5638 14.9979 37.622 14.9999 37.68C15.0002 38.03 15.1393 38.3656 15.3868 38.6131C15.6343 38.8606 15.9699 38.9998 16.3199 39H19.6799C20.0299 38.9998 20.3655 38.8606 20.613 38.6131C20.8605 38.3656 20.9997 38.03 20.9999 37.68C21.0019 37.6205 21.0009 37.5608 20.9969 37.5014L19.8515 28.3579C18.4778 28.5678 17.0784 28.5421 15.7133 28.2818ZM10.3125 21.1752C11.3323 22.8532 12.873 24.1516 14.6996 24.8723C16.5262 25.5929 18.5384 25.6963 20.4292 25.1666C22.3201 24.6369 23.9857 23.5031 25.172 21.9384C26.3584 20.3737 27.0003 18.4638 26.9999 16.5002C27.0039 15.1008 26.7068 13.717 26.1287 12.4427C25.5507 11.1683 24.7052 10.0333 23.6498 9.11451C23.5297 9.03277 23.3861 8.99263 23.241 9.00021C23.0445 9.00045 22.8562 9.07861 22.7172 9.21755C22.5783 9.35649 22.5001 9.54487 22.4999 9.74136V12.0002C22.4999 13.1937 22.0258 14.3382 21.1819 15.1822C20.338 16.0261 19.1934 16.5002 17.9999 16.5002C16.8065 16.5002 15.6619 16.0261 14.818 15.1822C13.9741 14.3382 13.5 13.1937 13.5 12.0002V9.74136C13.4997 9.54487 13.4216 9.35649 13.2826 9.21755C13.1437 9.07861 12.9553 9.00045 12.7588 9.00021C12.6137 8.99263 12.4702 9.03277 12.3501 9.11451C11.2946 10.0333 10.4492 11.1683 9.87112 12.4427C9.29308 13.717 8.99598 15.1008 8.99998 16.5002V16.5177C9.00507 18.1608 9.4589 19.7712 10.3125 21.1752Z" fill="#48E6C7"/>
<path d="M19.5 22.5H16.5C16.1022 22.5 15.7206 22.3419 15.4393 22.0606C15.158 21.7793 15 21.3978 15 21C15 20.6022 15.158 20.2206 15.4393 19.9393C15.7206 19.658 16.1022 19.5 16.5 19.5H19.5C19.8978 19.5 20.2793 19.658 20.5606 19.9393C20.8419 20.2206 21 20.6022 21 21C21 21.3978 20.8419 21.7793 20.5606 22.0606C20.2793 22.3419 19.8978 22.5 19.5 22.5Z" fill="#48E6C7"/>
</mask>
<g mask="url(#mask0_38_2355)">
<rect x="2" y="3" width="44" height="41" fill="url(#paint0_linear_38_2355)"/>
</g>
<defs>
<linearGradient id="paint0_linear_38_2355" x1="50.5557" y1="13.1134" x2="-1.37562" y2="36.5063" gradientUnits="userSpaceOnUse">
<stop stop-color="#4AF2C8"/>
<stop offset="1" stop-color="#2F4CB3"/>
</linearGradient>
</defs>
</svg>
