<svg width="48" height="48" viewBox="0 0 48 48" fill="none" xmlns="http://www.w3.org/2000/svg">
<mask id="mask0_38_2490" style="mask-type:alpha" maskUnits="userSpaceOnUse" x="6" y="6" width="36" height="36">
<path d="M32.3721 22.7442C27.0627 22.7442 22.7442 27.0635 22.7442 32.3721C22.7442 37.6807 27.0627 42 32.3721 42C37.6815 42 42 37.6807 42 32.3721C42 27.0635 37.6815 22.7442 32.3721 22.7442ZM32.3721 39.4884C28.4477 39.4884 25.2558 36.2957 25.2558 32.3721C25.2558 28.4485 28.4477 25.2558 32.3721 25.2558C36.2965 25.2558 39.4884 28.4485 39.4884 32.3721C39.4884 36.2957 36.2965 39.4884 32.3721 39.4884ZM36.8443 34.6082C36.6235 35.0481 36.1804 35.3023 35.7193 35.3023C35.5313 35.3023 35.3399 35.2598 35.1601 35.1699L31.8112 33.4955C31.3845 33.2829 31.1163 32.8479 31.1163 32.3721V29.0233C31.1163 28.3299 31.6788 27.7674 32.3721 27.7674C33.0654 27.7674 33.6279 28.3299 33.6279 29.0233V31.5962L36.2818 32.9231C36.9032 33.2338 37.155 33.9876 36.8443 34.6082ZM12.2791 36.1395C10.2016 36.1395 8.51163 34.4496 8.51163 32.3721V21.907H27.1236C28.705 21.1104 30.4842 20.6512 32.3721 20.6512C34.6828 20.6512 36.8336 21.3325 38.6512 22.4918V15.6279C38.6512 12.1654 35.8338 9.34884 32.3721 9.34884H30.2791V7.25581C30.2791 6.5625 29.7166 6 29.0233 6C28.3299 6 27.7674 6.5625 27.7674 7.25581V9.34884H16.8837V7.25581C16.8837 6.5625 16.3212 6 15.6279 6C14.9346 6 14.3721 6.5625 14.3721 7.25581V9.34884H12.2791C8.81659 9.34884 6 12.1654 6 15.6279V32.3721C6 35.8346 8.81659 38.6512 12.2791 38.6512H22.4919C21.9943 37.8711 21.5873 37.03 21.2839 36.1395H12.2791ZM8.51163 15.6279C8.51163 13.5504 10.2016 11.8605 12.2791 11.8605H14.3721V13.9535C14.3721 14.6468 14.9346 15.2093 15.6279 15.2093C16.3212 15.2093 16.8837 14.6468 16.8837 13.9535V11.8605H27.7674V13.9535C27.7674 14.6468 28.3299 15.2093 29.0233 15.2093C29.7166 15.2093 30.2791 14.6468 30.2791 13.9535V11.8605H32.3721C34.4488 11.8605 36.1395 13.5504 36.1395 15.6279V19.3953H8.51163V15.6279Z" fill="#48E6C7"/>
</mask>
<g mask="url(#mask0_38_2490)">
<rect x="2" y="3" width="44" height="41" fill="url(#paint0_linear_38_2490)"/>
</g>
<defs>
<linearGradient id="paint0_linear_38_2490" x1="50.5557" y1="13.1134" x2="-1.37562" y2="36.5063" gradientUnits="userSpaceOnUse">
<stop stop-color="#4AF2C8"/>
<stop offset="1" stop-color="#2F4CB3"/>
</linearGradient>
</defs>
</svg>
