<svg width="48" height="48" viewBox="0 0 48 48" fill="none" xmlns="http://www.w3.org/2000/svg">
<mask id="mask0_38_2499" style="mask-type:alpha" maskUnits="userSpaceOnUse" x="3" y="5" width="42" height="38">
<path d="M35.8182 5H11.6364C9.34669 5.0027 7.15156 5.91346 5.53251 7.53251C3.91346 9.15156 3.0027 11.3467 3 13.6364L3 27.4545C3.0027 29.7442 3.91346 31.9394 5.53251 33.5584C7.15156 35.1774 9.34669 36.0882 11.6364 36.0909H22V39.5455H15.0909C14.6328 39.5455 14.1935 39.7274 13.8695 40.0514C13.5456 40.3753 13.3636 40.8146 13.3636 41.2727C13.3636 41.7308 13.5456 42.1702 13.8695 42.4941C14.1935 42.818 14.6328 43 15.0909 43H32.3636C32.8217 43 33.2611 42.818 33.585 42.4941C33.9089 42.1702 34.0909 41.7308 34.0909 41.2727C34.0909 40.8146 33.9089 40.3753 33.585 40.0514C33.2611 39.7274 32.8217 39.5455 32.3636 39.5455H25.4545V36.0909H35.8182C38.1079 36.0882 40.303 35.1774 41.922 33.5584C43.5411 31.9394 44.4518 29.7442 44.4545 27.4545V13.6364C44.4518 11.3467 43.5411 9.15156 41.922 7.53251C40.303 5.91346 38.1079 5.0027 35.8182 5ZM41 27.4545C40.9985 28.8284 40.4521 30.1455 39.4806 31.117C38.5092 32.0884 37.192 32.6349 35.8182 32.6364H11.6364C10.2625 32.6349 8.94538 32.0884 7.97393 31.117C7.00248 30.1455 6.45605 28.8284 6.45455 27.4545V13.6364C6.45605 12.2625 7.00248 10.9454 7.97393 9.97393C8.94538 9.00248 10.2625 8.45605 11.6364 8.45455H35.8182C37.192 8.45605 38.5092 9.00248 39.4806 9.97393C40.4521 10.9454 40.9985 12.2625 41 13.6364V27.4545Z" fill="#48E6C7"/>
<path d="M37.5472 24H9.91087C9.45277 24 9.01343 24.182 8.6895 24.5059C8.36557 24.8298 8.18359 25.2692 8.18359 25.7273C8.18359 26.1854 8.36557 26.6247 8.6895 26.9486C9.01343 27.2726 9.45277 27.4545 9.91087 27.4545H37.5472C38.0053 27.4545 38.4447 27.2726 38.7686 26.9486C39.0925 26.6247 39.2745 26.1854 39.2745 25.7273C39.2745 25.2692 39.0925 24.8298 38.7686 24.5059C38.4447 24.182 38.0053 24 37.5472 24Z" fill="#48E6C7"/>
</mask>
<g mask="url(#mask0_38_2499)">
<rect x="2" y="3" width="44" height="41" fill="url(#paint0_linear_38_2499)"/>
</g>
<defs>
<linearGradient id="paint0_linear_38_2499" x1="50.5557" y1="13.1134" x2="-1.37562" y2="36.5063" gradientUnits="userSpaceOnUse">
<stop stop-color="#4AF2C8"/>
<stop offset="1" stop-color="#2F4CB3"/>
</linearGradient>
</defs>
</svg>
